<svg viewBox="0 0 60 113" xmlns="http://www.w3.org/2000/svg" xml:space="preserve" style="fill-rule:evenodd;clip-rule:evenodd;stroke-linejoin:round;stroke-miterlimit:2"><path d="M40.6 107.62c-.79.8-5.32 4.03-6.9 4.5a13.44 13.44 0 0 1-17.13-15.17c1.53-8.99 3.5-17.9 5.28-26.86.17-.88.38-1.76.55-2.64 1.04-5.28-2.17-9.24-7.57-9.3-3.37-.04-6.75-.01-10.11-.01-3.4 0-4.71-1.3-4.71-4.68L0 43.35c0-.35.02-.7.04-.93H59.8c-.06 1.5.02 9.46-.02 11.77-.05 2.42-1.48 3.89-3.89 3.93-3.6.06-7.2.01-10.81.03-5.52.03-8.76 4.03-7.65 9.43 1.63 7.9 3.3 15.8 4.9 23.7.42 2.04.75 4.09 1.01 6.15.45 3.48-.36 6.68-2.4 9.55-.11.15-.3.6-.34.64ZM26.16 95.08a5.35 5.35 0 0 0-.07 7.43 5.4 5.4 0 0 0 7.53.09 5.34 5.34 0 0 0 .02-7.51 5.26 5.26 0 0 0-7.48 0Z" style="fill:#132d46;fill-rule:nonzero"/><path d="M59.82 26.48v-11.2l-9.68-6.86-3.69 3.93L30.95 0 16.63 12.62l-4.4-3.18-12.2 6.48v11.85l.2.22 12.53-6.79 4.8 3.48 13.57-11.85 15.54 12.38 3.29-3.5 8.72 5.77 1.14-1Z" style="fill:#ebf6fa;fill-rule:nonzero"/><path d="m59.82 25.2-9.26-6.39-3.7 3.94-15.5-12.36-14.32 12.63-4.4-3.18L.03 26.7v6.83l.62.68 12.55-6.79 4.79 3.46 13.57-11.83 15.54 12.38 3.28-3.5 8.72 5.77.73-.64V25.2Z" style="fill:#b4d8dc;fill-rule:nonzero"/><path d="M59.82 31.55v5.1l-9.45-6.13-3.28 3.5-15.54-12.38L17.98 33.5 13.18 30 .03 37.37v-4.3l12.63-6.87 4.39 3.19 14.32-12.63 15.5 12.36 3.7-3.94 9.26 6.38Z" style="fill:#132d46;fill-rule:nonzero"/></svg>