<?xml version="1.0" encoding="UTF-8" standalone="no"?><!DOCTYPE svg PUBLIC "-//W3C//DTD SVG 1.1//EN" "http://www.w3.org/Graphics/SVG/1.1/DTD/svg11.dtd"><svg width="100%" height="100%" viewBox="0 0 105 143" version="1.1" xmlns="http://www.w3.org/2000/svg" xmlns:xlink="http://www.w3.org/1999/xlink" xml:space="preserve" xmlns:serif="http://www.serif.com/" style="fill-rule:evenodd;clip-rule:evenodd;stroke-linejoin:round;stroke-miterlimit:2;"><g><g><path d="M87.88,49.011c13.968,21.849 12.44,29.366 -10.918,53.793c-7.446,0.515 -14.115,8.009 -22.24,2.491c-2.177,-12.473 6.693,-20.551 13.721,-31.575c-16.843,-3.726 -33.652,-5.498 -44.767,-19.166c-6.437,-5.152 -10.105,-10.62 -6.265,-19.653c2.918,-6.864 4.069,-14.566 5.525,-22.014l-0.042,0.083c10.562,-9.461 21.494,-11.639 33.303,-2.039c3.256,2.643 7.28,3.666 11.51,4.248c21.334,2.929 24.141,7.056 19.848,28.812c-0.355,1.8 -0.577,3.397 0.325,5.02Z" style="fill:#395398;"/><path d="M22.938,12.887c0.141,8.163 1.994,16.692 -2.787,24.09c-5.754,8.9 5.701,9.92 6.635,15.639c6.092,9.56 12.913,18.238 23.021,24.176c6.576,3.856 10.229,9.889 6.993,18.063c-5.953,4.867 -11.788,1.765 -15.829,-1.998c-10.867,-10.125 -24.516,-16.144 -35.783,-25.566c-1.162,-1.267 -2.248,-2.603 -3.268,-3.992c2.42,-18.717 13.501,-33.819 21.018,-50.412Z" style="fill:#415fa3;"/><path d="M87.88,49.011c-4.093,-2.599 -1.656,-5.821 -1.348,-9.228c1.089,-11.983 0.854,-23.232 -16.902,-19.649c-4.367,0.879 -9.918,1.558 -13.235,-2.696c-9.838,-12.621 -21.181,-11.632 -33.5,-4.467c6.8,-7.208 43.118,-15.867 50.472,-12.028c16.982,8.863 21.226,22.906 14.513,48.068Z" style="fill:#415fa3;"/><path d="M1.92,63.3c1.124,0 2.25,0.029 3.375,0.071c1.984,3.675 5.508,6.399 6.814,10.447c4.629,14.315 14.663,21.039 29.42,21.575c4.793,0.175 9.556,0.949 12.975,4.969c0.336,0.799 0.667,1.601 0.996,2.403c7.146,6.175 14.316,-2.95 21.463,0.038c-9.162,6.386 -18.51,10.422 -29.302,3.33c-3.409,-2.233 -6.946,-1.849 -9.045,2.117c-7.748,14.674 -16.868,6.307 -22.248,-0.522c-9.957,-12.633 -20.865,-26.028 -14.448,-44.428Z" style="fill:#6994d1;"/><path d="M37.832,132.206c0.249,-3.615 1.753,-6.115 5.263,-5.691c4.971,0.6 6.603,4.683 6.306,8.832c-0.229,3.154 -1.398,7.905 -5.985,6.514c-4.118,-1.246 -4.899,-5.961 -5.584,-9.655Z" style="fill:#5479ba;"/><path d="M98.161,94.055c4.116,0.898 6.136,3.53 6.111,7.41c-0.034,4.449 -3.049,5.923 -6.992,5.642c-4.028,-0.282 -6.617,-2.391 -6.02,-6.704c0.536,-3.849 2.97,-6.117 6.901,-6.348Z" style="fill:#5479ba;"/><path d="M4.205,115.313c-0.415,-2.83 1.116,-3.654 2.824,-3.241c1.373,0.333 3.152,1.455 3.574,2.644c0.633,1.793 -0.76,3.372 -2.762,2.912c-1.424,-0.331 -2.624,-1.635 -3.636,-2.315Z" style="fill:#6994d1;"/><path d="M55.458,95.633c0.686,-7.281 -1.801,-14.132 -8.556,-16.139c-13.929,-4.147 -16.764,-15.446 -20.117,-26.877c10.621,9.245 22.337,15.491 37.037,14.436c4.833,-0.343 10.098,0.176 11.536,5.988c1.299,5.269 -3.437,7.014 -6.984,9.014c-8.107,4.58 -6.896,14.866 -12.874,20.712l-0.089,0.072c-1.919,-2.414 -2.195,-4.818 0.047,-7.206Z" style="fill:#36568e;"/><path d="M55.458,95.633c-0.017,2.406 -0.03,4.806 -0.047,7.205c-3.33,-1.175 -6.58,-2.999 -10.002,-3.427c-31.644,-3.975 -31.654,-3.902 -40.114,-36.04c16.722,10.75 33.441,21.506 50.163,32.262Z" style="fill:#5479ba;"/></g><path d="M64.062,110.552l0,-35.736l11.997,0l1.796,-13.927l-13.792,-0l0,-8.893c0,-4.032 1.119,-6.779 6.902,-6.779l7.375,-0.004l0,-12.457c-1.276,-0.168 -5.653,-0.548 -10.747,-0.548c-10.632,0 -17.912,6.49 -17.912,18.41l0,10.271l-12.025,-0l-0,13.927l12.025,0l0,35.736l14.381,0Z" style="fill:#fff;fill-rule:nonzero;"/></g></svg>