<?xml version="1.0" encoding="UTF-8" standalone="no"?><!DOCTYPE svg PUBLIC "-//W3C//DTD SVG 1.1//EN" "http://www.w3.org/Graphics/SVG/1.1/DTD/svg11.dtd"><svg width="100%" height="100%" viewBox="0 0 523 478" version="1.1" xmlns="http://www.w3.org/2000/svg" xmlns:xlink="http://www.w3.org/1999/xlink" xml:space="preserve" xmlns:serif="http://www.serif.com/" style="fill-rule:evenodd;clip-rule:evenodd;stroke-linejoin:round;stroke-miterlimit:2;"><g><g><g><path d="M43.887,121.954c-27.931,-52.472 -20.435,-78.782 43.5,-104.26c63.937,-25.475 344.622,-21.631 324.012,0c-20.612,21.631 4.253,14.994 -3.109,21.144c-21.716,13.819 -46.25,12.903 -70.513,13.447c-56.137,0.684 -112.318,-0.038 -168.521,0.372c-42.607,0.312 -76.232,14.347 -95.691,54.434c-7.594,9.559 -16.334,16.913 -29.678,14.863Z" style="fill:#b02a9e;"/><path d="M398.099,35.857c-0.053,-4.9 -0.053,-9.788 0,-14.672l14.713,-0c11.731,20.887 35.872,9.878 51.406,19.831c19.409,12.481 14.316,21.181 -6.078,25.125c-13.588,11.616 -4.475,31.253 -15.434,43.784c-0.038,9.588 -0.066,19.191 -0.088,28.813c-40.269,0.887 -48.247,-34.747 -66.562,-58.778c-6.038,-21.375 5.581,-33.96 22.043,-44.103Z" style="fill:#972aab;"/><path d="M43.887,121.954c5.169,-5.35 10.356,-10.725 15.519,-16.079c61.068,-69.137 147.85,-55.831 214.218,-37.087c65.588,18.541 129.319,62.331 192.191,98.184c34.531,34.15 38.809,73.547 20.266,116.866c-0.704,12.003 -4.363,22.316 -16.097,27.987c-14.553,15.404 -11.788,37.632 -21.557,54.969c-22.134,23.363 -58.521,35.275 -79.256,23.235c-57.219,-33.235 -73.644,-0.863 -89.712,42.131c-111.953,57.6 -104.991,48.394 -195.285,-46.063c-82.24,-86.056 -85.987,-167.097 -40.287,-264.143Z" style="fill:#f04471;"/><path d="M455.734,179.619c-18.2,3.506 -16.607,-68.406 -52.775,-11.372c-13.982,22.044 -28.903,-12.481 -41.622,-24.25c-79.778,-73.847 -214.866,-90.925 -301.95,-38.122c10.531,-53.781 44.584,-75.284 97.709,-73.84c60.144,1.647 120.335,1.206 180.51,1.7c19.346,14.684 29.784,41.847 59.268,42.244c29.41,10.121 35.866,43.009 59.047,59.29c5.11,4.694 10.21,9.388 15.328,14.091c9.032,17.365 -5.247,22.765 -15.515,30.259Z" style="fill:#cf2a8c;"/><path d="M279.456,432.154c21.587,-40.054 -29.169,-23.785 -36.991,-49.647c50.191,0.19 91.094,-19.463 120.709,-56.094c26.541,24.556 -3.428,35.559 1.303,55.369c28.932,4.509 53.044,-8.607 76.222,-24.997c27.532,-1.856 23.8,12.362 15,29.162c-58.743,15.422 -117.515,30.816 -176.243,46.207Z" style="fill:#cf2a8c;"/><path d="M455.734,179.619c5.19,-10.109 10.318,-20.178 15.512,-30.259c40.016,40.956 84.856,81.4 14.794,134.465c-9.409,-34.94 1.778,-75.859 -30.306,-104.206Z" style="fill:#9f2aa6;"/><path d="M455.699,385.95c-0.928,-11.809 -2.906,-23.078 -15,-29.162c0.153,-21.272 7.982,-37.509 29.313,-44.966c-15.919,22.56 40.237,59.019 -14.313,74.128Z" style="fill:#9f2aa6;"/><path d="M442.696,113.422c-7.997,-19.237 -27.628,-50.187 13.038,-52.275c20.531,-7.403 33.484,43.603 33.484,43.603c0,0 -39.937,28.891 -46.522,8.672Z" style="fill:#b02a9e;"/><path d="M396.874,75.979c-4.493,7.671 -11.943,22.381 -13.047,21.931c-28.181,-11.735 -48.137,-30.413 -46.218,-64.191c24.603,-0.437 49.187,-0.912 73.79,-1.353c-4.837,14.556 -9.675,29.072 -14.525,43.613Z" style="fill:#b52a9b;"/></g><path d="M103.246,464.313c-4.662,-1.441 -9.344,-2.891 -14.003,-4.328c-58.534,-15.313 -76.409,-70.056 -85.059,-114.453c-8.541,-43.885 -1.75,-94.144 0.647,-141.56c9.784,-30.315 31.584,-44.472 62.431,-46.425c7.237,-3.137 14.356,-4.043 21.147,1.147c13.318,3.972 25.512,-4.222 38.553,-3.634c20.222,6.053 37.956,23.831 37.04,39.534c-2.537,43.331 21.272,43.369 51.197,40.069c66.828,48.509 59.378,47.156 30.778,127.956c-26.059,73.594 -72.4,99.753 -142.731,101.694Z" style="fill:#f38259;"/><path d="M42.981,429.919c-8.719,-0.737 -17.394,-1.565 -26.066,-2.494c0.837,-8.737 1.666,-17.406 2.497,-26.131c39.087,-17.294 23.644,-62.034 43.959,-87.931c25.456,-32.356 40.053,-21.828 43.588,15.066c18.315,26.1 54.747,13.253 75.14,34.843c17.028,1.694 34.072,3.378 51.163,5.053c-5.26,71.679 -69.91,79.788 -115.697,108.229c-38.994,7.09 -59.372,-15.675 -74.584,-46.635Z" style="fill:#f5ab4a;"/></g><g><g><path d="M302.012,376.7l-123.513,0c-54.815,0 -99.412,-44.603 -99.412,-99.415l-0,-108.844c-0,-54.819 44.597,-99.409 99.412,-99.409l123.513,-0c54.815,-0 99.412,44.59 99.412,99.409l0,108.844c0,54.812 -44.597,99.415 -99.412,99.415Zm-123.513,-285.578c-42.634,0 -77.322,34.688 -77.322,77.319l0,108.844c0,42.637 34.691,77.319 77.322,77.319l123.513,-0c42.631,-0 77.319,-34.682 77.319,-77.319l-0,-108.844c-0,-42.634 -34.688,-77.319 -77.319,-77.319l-123.513,0Z" style="fill:#fff;fill-rule:nonzero;"/></g><g><path d="M240.256,311.36c-48.797,-0 -88.491,-39.703 -88.491,-88.494c-0,-48.797 39.697,-88.494 88.491,-88.494c48.796,0 88.493,39.697 88.493,88.494c0,48.794 -39.697,88.494 -88.493,88.494Zm-0,-154.897c-36.616,-0 -66.4,29.781 -66.4,66.403c-0,36.613 29.784,66.4 66.4,66.4c36.615,0 66.403,-29.787 66.403,-66.4c-0,-36.619 -29.788,-66.403 -66.403,-66.403Z" style="fill:#fff;fill-rule:nonzero;"/></g><g><path d="M345.756,137.094c-0,10.141 -8.219,18.356 -18.36,18.356c-10.144,0 -18.362,-8.218 -18.362,-18.356c-0,-10.144 8.218,-18.362 18.362,-18.362c10.141,-0.003 18.36,8.218 18.36,18.362Z" style="fill:#fff;fill-rule:nonzero;"/></g></g></g></svg>