<?xml version="1.0" encoding="UTF-8" standalone="no"?><!DOCTYPE svg PUBLIC "-//W3C//DTD SVG 1.1//EN" "http://www.w3.org/Graphics/SVG/1.1/DTD/svg11.dtd"><svg width="100%" height="100%" viewBox="0 0 105 114" version="1.1" xmlns="http://www.w3.org/2000/svg" xmlns:xlink="http://www.w3.org/1999/xlink" xml:space="preserve" xmlns:serif="http://www.serif.com/" style="fill-rule:evenodd;clip-rule:evenodd;stroke-linejoin:round;stroke-miterlimit:2;"><g><g><path d="M37.562,111.846c-6.471,-9.178 -22.217,-5.58 -25.819,-18.726c-1.485,-2.231 -3.932,-3.579 -5.332,-5.922c-2.138,-3.614 -2.94,-7.616 1.008,-9.884c5.556,-3.195 8.837,-0.446 9.848,5.352c1.262,-5.259 -0.832,-10.236 -2.411,-15.295c-5.06,-16.262 5.302,-39.696 20.925,-47.093c1.415,-0.671 3.139,-0.023 4.575,0.762c6.074,8.247 -0.836,15.053 -2.542,22.437c-1.892,8.16 -6.237,16.933 4.989,22.008c10.885,4.914 23.829,0.56 28.893,-9.744c5.283,-10.744 -1.479,-16.998 -8.967,-22.765c-6.755,-5.205 -16.59,-4.769 -22.284,-12.008c1.504,-9.985 8.798,-9.252 15.824,-8.198c21.882,3.286 37.939,24.776 35.924,47.779c-1.366,15.678 -22.631,29.775 -45.93,30.083c6.552,4.761 11.948,9.772 7.915,18.539c-5.33,2.244 -10.28,6.757 -16.616,2.675Z" style="fill:#6fc1ef;"/><path d="M53.714,108.37c-1.107,-12.519 -9.194,-17.044 -20.716,-16.893c0.638,-7.137 5.373,-5.74 8.332,-4.686c8.246,2.952 17.018,0.941 23.139,-2.388c10.996,-5.991 26.172,-11.247 23.731,-28.351c-3.82,-26.657 -17.093,-40.4 -37.127,-40.657c-4.881,-0.061 -8.156,1.989 -10.198,6.305c-18.818,9.687 -26.878,28.365 -20.341,46.989c0.523,1.478 0.845,3.079 0.915,4.639c0.142,3.15 0.045,6.308 0.045,9.239c-6.033,3.059 -8.291,-7.408 -12.452,-3.622c-5.291,4.808 2.597,9.18 2.705,14.17c-13.332,-3.567 -13.441,-12.534 -9.466,-23.177c5.142,-8.977 7.609,-18.564 6.559,-28.944c0.807,-1.149 1.606,-2.305 2.408,-3.458c7.731,-6.133 7.995,-16.73 14.191,-23.798c11.347,-6.717 24.533,-7.86 36.758,-8.168c13.485,-0.338 22.046,11.117 29.788,21.455c7.019,16.652 12.564,33.426 3.807,51.264c-11.45,10.374 -24.143,19.199 -36.096,28.964c-1.806,1.348 -3.649,2.604 -5.982,1.117Z" style="fill:#7bc5f8;"/><path d="M92.394,76.404c10.426,-7.244 3.236,-17.159 3.083,-25.553c-0.142,-7.602 -4.112,-15.141 -6.393,-22.71c-1.946,-7.288 -6.718,-14.169 -3.189,-22.238c2.141,-0.083 4.287,-0.158 6.441,-0.243c7.581,10.58 4.101,24.198 9.702,35.328c6.126,16.016 -2.363,31.76 -1.068,47.77c0.306,3.878 -5.638,4.08 -8.937,5.354c-6.343,2.448 -12.336,3.892 -15.033,12.123c-2.061,6.302 -31.617,9.533 -39.435,5.61c5.382,-1.156 10.762,-2.312 16.149,-3.475c1.098,-0.99 2.192,-1.983 3.285,-2.974c13.731,-5.556 22.627,-12.844 35.395,-28.992Z" style="fill:#c2ecff;"/><path d="M85.895,5.903c4.627,6.895 2.943,14.708 3.189,22.238c-13.585,-15.507 -27.903,-27.784 -50.19,-14.781c-3.781,2.209 -9.326,1.371 -14.053,1.946c-0.444,-0.461 -0.888,-0.92 -1.329,-1.379c-0.653,-1.966 -0.424,-3.703 1.341,-5.024c6.018,-6.432 12.537,-10.666 21.511,-5.321c4.795,2.86 9.072,-0.077 13.732,-1.012c8.739,-1.74 18.329,-6.197 25.799,3.333Z" style="fill:#9cdcff;"/><path d="M102.038,40.988c-9.423,-10.078 -8.773,-22.921 -9.702,-35.328c9.962,-0.472 12.385,4.573 10.947,13.7c-1.119,7.095 -0.88,14.407 -1.245,21.628Z" style="fill:#e1f7ff;"/><path d="M8.84,40.995c5.194,14.77 2.649,26.004 -6.559,28.944c-5.064,-11.288 5.332,-19.078 6.559,-28.944Z" style="fill:#9cdcff;"/><path d="M24.841,15.306c-1.079,9.514 -2.814,18.634 -13.59,22.231c0.175,-7.169 4.157,-12.926 7.068,-19.086c1.817,-1.677 2.738,-5.078 6.347,-3.293l0.175,0.148Z" style="fill:#9cdcff;"/><path d="M24.665,15.158c-2.119,1.1 -4.234,2.191 -6.347,3.293c0.034,-4.653 -0.194,-9.483 6.534,-9.548c-0.06,2.088 -0.127,4.172 -0.187,6.255Z" style="fill:#c2ecff;"/><path d="M40.875,21.7c7.691,-0.107 14.657,2.732 21.296,6.007c14.396,7.117 19.822,20.047 13.389,30.624c-8.556,14.081 -28.303,19.367 -40.084,9.657c-7.712,-6.352 -4.761,-15.629 -2.406,-23.773c2.204,-7.621 5.173,-15.023 7.805,-22.515Z" style="fill:#60a7c6;"/><path d="M92.394,76.404c-7.932,14.375 -16.414,28.097 -35.395,28.992c11.802,-9.662 23.598,-19.328 35.395,-28.992Z" style="fill:#afe5f9;"/></g><g><path d="M77.563,41.033l-0,32.878l-12.829,-16.035l-2.438,1.951l12.954,16.194l-48.441,-0l12.954,-16.194l-2.438,-1.951l-12.829,16.035l-0,-32.878l26.532,23.008l26.535,-23.008Zm-0.002,-5.591l-0,1.455l-26.532,23.008l-26.532,-23.008l-0,-1.455l53.064,0Z" style="fill:#fff;"/></g></g></svg>