<?xml version="1.0" encoding="UTF-8" standalone="no"?><!DOCTYPE svg PUBLIC "-//W3C//DTD SVG 1.1//EN" "http://www.w3.org/Graphics/SVG/1.1/DTD/svg11.dtd"><svg width="100%" height="100%" viewBox="0 0 112 122" version="1.1" xmlns="http://www.w3.org/2000/svg" xmlns:xlink="http://www.w3.org/1999/xlink" xml:space="preserve" xmlns:serif="http://www.serif.com/" style="fill-rule:evenodd;clip-rule:evenodd;stroke-linejoin:round;stroke-miterlimit:2;"><g><g><path d="M42.928,120.091c-10.501,-6.931 -20.999,-13.853 -31.498,-20.78c-4.323,-5.019 -3.24,-10.208 -0.558,-15.457c3.057,-4.653 2.825,-9.59 1.126,-14.659c-0.999,-4.556 -0.934,-9.06 0.445,-13.528c3.269,-9.107 9.54,-16.066 16.211,-22.749c5.495,-5.074 10.451,-10.736 16.462,-15.265c1.626,-1.034 3.385,-1.76 5.253,-2.24c12.789,-0.658 23.989,5.502 35.981,8.39c1.732,0.944 3.093,2.286 4.183,3.929c2.865,6.157 2.42,13.248 5.514,19.358c2.298,5.511 4.43,11.067 4.912,17.093c0.332,5.347 -0.754,10.375 -3.076,15.184c-16.832,34.879 -24.96,20.496 -38.817,36.663c-1.651,1.93 -12.442,4.503 -16.138,4.061Z" style="fill:#32ba46;"/><path d="M42.928,120.091c8.637,-2.529 19.25,-2.747 15.085,-17.211c-2.569,-8.891 5.819,-5.774 9.968,-7.671c14.074,-6.446 30.04,-11.609 28.304,-32.129c11.619,2.172 7.382,11.268 7.979,18.256c1.096,11.96 -7.764,17.027 -15.756,22.673c-9.934,20.271 -27.726,18.258 -45.58,16.082Z" style="fill:#4acc59;"/><path d="M88.509,104.009c1.844,-8.075 12.371,-11.142 11.86,-20.573c3.562,-12.556 3.454,-24.595 -3.057,-36.523c-6.226,-11.414 -7.429,-23.973 -5.681,-36.822c2.976,-1.816 5.887,-1.892 8.707,0.324c16.931,20.771 10.762,44.604 9.253,67.922c-0.902,13.925 -0.925,27.868 -21.082,25.672Z" style="fill:#5cd067;"/><path d="M15.635,55.027c-0.063,5.373 -0.126,10.754 -0.188,16.13c2.426,4.162 -0.956,8.117 -0.469,12.212c-2.668,4.983 -4.266,10.206 -3.547,15.942c-12.023,-4.918 -7.469,-15.381 -8.087,-24.123c-0.552,-12.826 4.109,-24.413 8.532,-36.064c1.193,-0.082 2.385,-0.119 3.581,-0.096c4.192,5.284 2.346,10.639 0.178,15.999Z" style="fill:#5cd067;"/><path d="M19.7,27.14c4.347,-24.327 26.238,-34.78 43.992,-21c0.304,0.891 0.606,1.787 0.915,2.684c-11.193,10.216 -29.937,3.456 -39.411,17.547c-1.733,0.955 -3.568,1.197 -5.496,0.769Z" style="fill:#95fc97;"/><path d="M11.876,39.124c1.512,13.054 -3.357,24.597 -8.533,36.064c-5.497,-13.989 -5.222,-26.624 8.533,-36.064Z" style="fill:#95fc97;"/><path d="M19.7,27.14c1.257,-0.15 2.505,-0.303 3.759,-0.462c0.796,0.025 1.591,0.049 2.394,0.059c3.134,1.798 8.256,2.188 5.687,8.025c-5.303,6.758 -10.607,13.507 -15.905,20.265c-0.058,-5.336 -0.122,-10.668 -0.178,-15.999c1.414,-3.965 2.829,-7.931 4.243,-11.888Z" style="fill:#5cd067;"/><path d="M100.337,10.415c-2.718,0.042 -5.439,0.083 -8.163,0.127c-10.188,6.664 -19.016,1.949 -27.765,-3.355c0,-0 -0.713,-1.043 -0.717,-1.047c13.122,-6.357 25.474,-6.092 36.645,4.275Z" style="fill:#95fc97;"/><path d="M64.41,7.187c9.626,-1.941 18.439,2.826 27.764,3.355c1.446,24.438 24.926,46.409 8.195,72.894c-1.091,-6.839 2.661,-14.649 -4.082,-20.356c-1.363,-5.382 -2.724,-10.784 -4.084,-16.167c-4.754,-6.06 0.967,-14.223 -4.05,-20.227l0.01,0.01c-13.107,-4.555 -25.305,-13.62 -40.424,-8.091l0,0.009c-7.675,3.646 -14.625,9.408 -23.965,8.203l-0.314,-0.139c2.033,-12.542 11.627,-14.785 21.912,-16.047c6.413,-0.789 13.451,1.9 19.038,-3.444Z" style="fill:#73e57b;"/><path d="M47.737,18.605c15.898,-9.404 28.72,-3.456 40.423,8.091c-14.412,1.995 -26.329,-8.493 -40.423,-8.091Z" style="fill:#5cd067;"/><path d="M23.772,26.816c6.893,-5.936 14.484,-9.817 23.965,-8.202c-3.902,6.889 -9.299,12.274 -16.198,16.148c-2.591,-2.649 -5.179,-5.293 -7.767,-7.946Z" style="fill:#5cd067;"/><path d="M88.151,26.686c6.778,5.65 3.084,13.407 4.05,20.227c-6.714,-5.664 -3.045,-13.417 -4.05,-20.227Z" style="fill:#4acc59;"/></g><g><path d="M31.283,38.458c0,0 3.234,-5.653 5.872,-5.977c2.637,-0.326 6.03,-0.326 6.946,1.4c0.916,1.722 5.006,11.74 5.006,11.74c0,-0 0.701,1.724 -0.376,3.393c-1.076,1.669 -3.5,4.093 -3.5,4.093c0,-0 -1.345,1.725 0,3.553c1.346,1.832 3.435,5.196 7.758,9.513c4.312,4.32 12.598,7.396 12.598,7.396c-0,-0 1.184,0.161 1.941,-0.592c0.751,-0.754 4.847,-5.871 4.847,-5.871c-0,-0 1.314,-1.696 3.498,-0.697c2.18,0.995 11.631,5.705 11.631,5.705c-0,0 1.105,0.404 1.105,2.073c0,1.671 -0.675,5.756 -2.057,7.134c-1.379,1.384 -5.42,5.639 -11.487,5.639c-6.068,0 -20.518,-4.936 -28.218,-12.636c-7.7,-7.703 -14.538,-15.512 -16.152,-22.619c-1.617,-7.109 -1.402,-10.32 0.588,-13.247Z" style="fill:#fff;fill-rule:nonzero;"/></g></g></svg>