<?xml version="1.0" encoding="utf-8"?>
<!-- Generator: Adobe Illustrator 27.0.1, SVG Export Plug-In . SVG Version: 6.00 Build 0)  -->
<svg version="1.1" xmlns="http://www.w3.org/2000/svg" xmlns:xlink="http://www.w3.org/1999/xlink" x="0px" y="0px"
	 viewBox="0 0 107.8 206.91" style="enable-background:new 0 0 107.8 206.91;" xml:space="preserve">
<style type="text/css">
	.st0{fill:#FFFFFF;stroke:#000000;stroke-miterlimit:10;}
	.st1{fill:#EBF6FA;}
	.st2{fill:#B4D8DC;}
	.st3{fill:#132D46;}
	.st4{fill:#FFFFFF;}
	.st5{fill:#F1EBF6;}
	.st6{fill:#C1B3D9;}
	.st7{fill:#321C45;}
</style>
<g id="Calque_13">
</g>
<g id="essais">
</g>
<g id="logo_complet">
</g>
<g id="logo_nom">
</g>
<g id="petit_logo">
</g>
<g id="logo_noir">
</g>
<g id="logo_blanc">
	<g>
		<path class="st4" d="M18.92,65l3.05,16.03h-2.08l-0.76-3.7h-3.79l-0.76,3.7H13.8L16.81,65H18.92z M15.47,76.88h3.45L17.27,66.8
			L15.47,76.88z"/>
		<path class="st4" d="M27.97,65c0.46,0,0.87,0.11,1.25,0.33c0.38,0.22,0.71,0.52,0.98,0.91c0.27,0.38,0.49,0.84,0.65,1.35
			c0.16,0.52,0.24,1.07,0.24,1.65c0,0.92-0.18,1.73-0.54,2.42c-0.36,0.69-0.92,1.16-1.68,1.38c1.51,0.25,2.26,1.33,2.26,3.23v3.11
			c0,1.02,0.39,1.64,1.18,1.86c-0.19,0.05-0.4,0.08-0.64,0.08c-0.92,0-1.58-0.18-2-0.53c-0.42-0.35-0.63-0.82-0.63-1.4v-3.92
			c0-0.27-0.05-0.53-0.15-0.79c-0.1-0.26-0.24-0.5-0.41-0.71c-0.17-0.21-0.36-0.39-0.58-0.52c-0.21-0.13-0.43-0.2-0.64-0.2h-2.2
			v7.79h-2.1V65H27.97z M25.04,72.79h2.16c0.29,0,0.55-0.08,0.77-0.25c0.22-0.16,0.4-0.39,0.55-0.68c0.14-0.29,0.26-0.62,0.33-1
			c0.08-0.38,0.11-0.79,0.11-1.23c0-0.6-0.07-1.16-0.22-1.67c-0.15-0.51-0.35-0.95-0.61-1.32c-0.26-0.37-0.57-0.66-0.94-0.87
			c-0.37-0.21-0.78-0.31-1.23-0.31h-0.93V72.79z"/>
		<path class="st4" d="M40.68,65v0.85c-0.18-0.27-0.52-0.4-1.02-0.4h-1.84v15.58h-2.1V65.46h-1.99c-0.06,0-0.15,0.01-0.25,0.04
			c-0.1,0.03-0.2,0.06-0.3,0.09s-0.19,0.08-0.27,0.12c-0.08,0.04-0.12,0.09-0.13,0.14V65H40.68z"/>
		<path class="st4" d="M49.53,65v0.45h-5.93v7.3h3.43v0.45h-3.43v7.37h5.93v0.46h-8.04V65H49.53z"/>
		<path class="st4" d="M58.22,65v0.45h-5.93v7.52h4.19v0.45h-4.19v7.6h-2.1V65H58.22z"/>
		<path class="st4" d="M63.95,65L67,81.03h-2.08l-0.76-3.7h-3.79l-0.76,3.7h-0.78L61.84,65H63.95z M60.5,76.88h3.45L62.3,66.8
			L60.5,76.88z"/>
		<path class="st4" d="M76.61,67.56c-0.13-0.3-0.3-0.58-0.52-0.84c-0.22-0.26-0.47-0.49-0.76-0.68c-0.28-0.2-0.58-0.35-0.9-0.46
			c-0.32-0.11-0.63-0.17-0.95-0.17c-0.56,0-1.05,0.18-1.49,0.55c-0.44,0.37-0.8,0.88-1.1,1.55c-0.3,0.66-0.52,1.46-0.67,2.39
			c-0.15,0.93-0.23,1.96-0.23,3.1c0,1.11,0.08,2.14,0.23,3.09c0.15,0.95,0.37,1.77,0.65,2.47c0.28,0.7,0.63,1.24,1.03,1.64
			c0.4,0.4,0.87,0.6,1.38,0.6c0.29,0,0.58-0.06,0.88-0.18c0.3-0.12,0.58-0.28,0.85-0.48s0.53-0.43,0.78-0.69
			c0.25-0.26,0.46-0.53,0.65-0.81h0.82c-0.49,0.96-1.14,1.66-1.94,2.09c-0.8,0.43-1.72,0.64-2.74,0.64c-0.83,0-1.55-0.15-2.16-0.46
			c-0.61-0.31-1.1-0.81-1.49-1.49c-0.39-0.68-0.67-1.56-0.85-2.64c-0.18-1.08-0.28-2.39-0.28-3.93c0-1.3,0.11-2.45,0.32-3.44
			c0.21-0.99,0.56-1.83,1.04-2.5c0.48-0.68,1.1-1.19,1.86-1.53c0.76-0.35,1.68-0.52,2.77-0.52c0.81,0,1.52,0.22,2.12,0.66
			c0.61,0.44,1.11,1.06,1.52,1.86L76.61,67.56z"/>
		<path class="st4" d="M85.88,65v0.85c-0.18-0.27-0.52-0.4-1.02-0.4h-1.84v15.58h-2.1V65.46h-1.99c-0.06,0-0.15,0.01-0.25,0.04
			c-0.1,0.03-0.2,0.06-0.3,0.09s-0.19,0.08-0.27,0.12c-0.08,0.04-0.12,0.09-0.13,0.14V65H85.88z"/>
		<path class="st4" d="M93.15,67.07c-0.29-0.45-0.6-0.82-0.94-1.09c-0.34-0.27-0.69-0.41-1.07-0.41c-0.39,0-0.74,0.07-1.05,0.22
			c-0.31,0.15-0.57,0.34-0.78,0.59c-0.21,0.25-0.37,0.54-0.48,0.87c-0.11,0.34-0.17,0.69-0.17,1.05c0,0.58,0.12,1.11,0.36,1.58
			c0.24,0.47,0.55,0.92,0.93,1.35c0.38,0.42,0.81,0.84,1.29,1.25c0.48,0.41,0.96,0.84,1.44,1.3c0.48,0.47,0.82,1.02,1.03,1.67
			c0.21,0.64,0.31,1.28,0.31,1.9c0,1.25-0.38,2.23-1.13,2.95c-0.75,0.71-1.8,1.07-3.14,1.07c-0.8,0-1.48-0.2-2.07-0.6
			c-0.58-0.4-1.02-0.98-1.31-1.73l0.76-0.47c0.08,0.27,0.19,0.52,0.35,0.77c0.16,0.25,0.35,0.46,0.58,0.65
			c0.23,0.19,0.48,0.34,0.76,0.46c0.28,0.11,0.57,0.17,0.87,0.17c0.29,0,0.57-0.07,0.84-0.22s0.51-0.36,0.71-0.64
			s0.36-0.63,0.48-1.05c0.12-0.42,0.18-0.89,0.18-1.42c0-0.53-0.1-1.06-0.31-1.59c-0.21-0.53-0.56-1.02-1.05-1.46
			c-0.48-0.43-0.94-0.84-1.39-1.24c-0.45-0.4-0.85-0.81-1.19-1.24c-0.35-0.43-0.63-0.89-0.83-1.38c-0.21-0.49-0.31-1.04-0.31-1.65
			c0-0.54,0.08-1.05,0.25-1.53c0.16-0.47,0.41-0.88,0.75-1.23c0.33-0.35,0.76-0.62,1.26-0.82c0.51-0.2,1.1-0.3,1.78-0.3
			c0.69,0,1.26,0.16,1.71,0.48c0.44,0.32,0.85,0.75,1.21,1.28L93.15,67.07z"/>
	</g>
	<g>
		<path class="st4" d="M15.74,84.01c0.18,0.24,0.27,0.56,0.27,0.95v0.43h-0.33v-0.45c0-0.3-0.06-0.53-0.19-0.71
			c-0.13-0.18-0.32-0.27-0.6-0.27c-0.27,0-0.47,0.09-0.6,0.27c-0.13,0.18-0.19,0.41-0.19,0.71v2.69c0,0.3,0.06,0.53,0.19,0.71
			c0.13,0.18,0.32,0.26,0.6,0.26c0.27,0,0.47-0.09,0.6-0.26c0.13-0.17,0.19-0.41,0.19-0.71v-0.61h0.33v0.59
			c0,0.39-0.09,0.71-0.27,0.95c-0.18,0.24-0.46,0.36-0.84,0.36c-0.38,0-0.66-0.12-0.84-0.36c-0.18-0.24-0.27-0.56-0.27-0.95v-2.65
			c0-0.39,0.09-0.71,0.27-0.95c0.18-0.24,0.46-0.36,0.84-0.36C15.28,83.65,15.56,83.77,15.74,84.01z"/>
		<path class="st4" d="M17.92,88.34c0.12,0.18,0.32,0.27,0.59,0.27c0.27,0,0.47-0.09,0.59-0.27c0.12-0.18,0.18-0.42,0.18-0.72v-3.93
			h0.32v3.92c0,0.39-0.09,0.71-0.27,0.95c-0.18,0.24-0.46,0.36-0.83,0.36c-0.38,0-0.65-0.12-0.84-0.36
			c-0.18-0.24-0.27-0.56-0.27-0.95v-3.92h0.34v3.93C17.73,87.92,17.79,88.16,17.92,88.34z"/>
		<path class="st4" d="M22.94,84c0.18,0.24,0.27,0.55,0.27,0.94v0.11h-0.33v-0.13c0-0.3-0.06-0.53-0.18-0.7
			c-0.12-0.17-0.32-0.26-0.58-0.26s-0.46,0.09-0.58,0.26c-0.12,0.17-0.18,0.4-0.18,0.7c0,0.19,0.04,0.35,0.12,0.5
			c0.08,0.15,0.18,0.27,0.29,0.38c0.12,0.11,0.28,0.23,0.48,0.38c0.21,0.15,0.38,0.29,0.52,0.41c0.13,0.12,0.24,0.26,0.33,0.44
			c0.09,0.17,0.13,0.38,0.13,0.61c0,0.39-0.09,0.71-0.27,0.94s-0.46,0.35-0.84,0.35c-0.38,0-0.66-0.12-0.84-0.35
			c-0.18-0.23-0.27-0.55-0.27-0.94v-0.27h0.33v0.29c0,0.3,0.06,0.53,0.19,0.7c0.13,0.17,0.32,0.26,0.6,0.26
			c0.27,0,0.47-0.09,0.6-0.26c0.13-0.17,0.19-0.4,0.19-0.7c0-0.19-0.04-0.35-0.12-0.5c-0.08-0.14-0.18-0.27-0.29-0.37
			c-0.12-0.11-0.27-0.23-0.47-0.37c-0.21-0.15-0.39-0.29-0.52-0.41c-0.13-0.12-0.25-0.27-0.34-0.44C21.05,85.37,21,85.17,21,84.93
			c0-0.4,0.09-0.71,0.27-0.94c0.18-0.23,0.46-0.34,0.83-0.35C22.48,83.65,22.76,83.76,22.94,84z"/>
		<path class="st4" d="M25.47,84h-1.05v-0.31h2.45V84h-1.06v4.87h-0.34V84z"/>
		<path class="st4" d="M28.39,84.01c0.19-0.24,0.47-0.36,0.85-0.36c0.38,0,0.67,0.12,0.86,0.36c0.19,0.24,0.28,0.56,0.28,0.95v2.65
			c0,0.4-0.09,0.72-0.28,0.95c-0.19,0.24-0.48,0.36-0.86,0.36c-0.38,0-0.66-0.12-0.85-0.36c-0.19-0.24-0.29-0.56-0.29-0.95v-2.65
			C28.11,84.56,28.2,84.25,28.39,84.01z M28.64,88.34c0.13,0.17,0.33,0.26,0.6,0.26c0.28,0,0.48-0.09,0.61-0.26
			c0.13-0.17,0.2-0.41,0.2-0.71v-2.69c0-0.3-0.07-0.54-0.2-0.71c-0.13-0.17-0.33-0.26-0.61-0.26c-0.27,0-0.47,0.09-0.6,0.26
			c-0.13,0.18-0.19,0.41-0.19,0.71v2.69C28.45,87.93,28.51,88.17,28.64,88.34z"/>
		<path class="st4" d="M33.18,88.86l-1.1-4.58v4.59h-0.3v-5.18h0.49l1.09,4.58l1.08-4.58h0.49v5.18H34.6v-4.6l-1.08,4.59H33.18z"/>
		<path class="st4" d="M36.7,88.87h-0.34v-5.18h0.34V88.87z"/>
		<path class="st4" d="M40.04,84c0.18,0.24,0.27,0.55,0.27,0.94v0.11h-0.33v-0.13c0-0.3-0.06-0.53-0.18-0.7
			c-0.12-0.17-0.32-0.26-0.58-0.26c-0.27,0-0.46,0.09-0.58,0.26c-0.12,0.17-0.18,0.4-0.18,0.7c0,0.19,0.04,0.35,0.12,0.5
			c0.08,0.15,0.18,0.27,0.29,0.38c0.12,0.11,0.28,0.23,0.48,0.38c0.21,0.15,0.38,0.29,0.52,0.41c0.13,0.12,0.24,0.26,0.33,0.44
			c0.09,0.17,0.13,0.38,0.13,0.61c0,0.39-0.09,0.71-0.27,0.94s-0.46,0.35-0.84,0.35c-0.38,0-0.66-0.12-0.84-0.35
			c-0.18-0.23-0.27-0.55-0.27-0.94v-0.27h0.33v0.29c0,0.3,0.06,0.53,0.19,0.7c0.13,0.17,0.32,0.26,0.6,0.26
			c0.27,0,0.47-0.09,0.6-0.26c0.13-0.17,0.19-0.4,0.19-0.7c0-0.19-0.04-0.35-0.12-0.5c-0.08-0.14-0.18-0.27-0.29-0.37
			c-0.12-0.11-0.27-0.23-0.47-0.37c-0.21-0.15-0.39-0.29-0.52-0.41s-0.25-0.27-0.34-0.44c-0.09-0.17-0.14-0.38-0.14-0.61
			c0-0.4,0.09-0.71,0.27-0.94c0.18-0.23,0.46-0.34,0.83-0.35C39.58,83.65,39.86,83.76,40.04,84z"/>
		<path class="st4" d="M41.94,88.87h-0.31l1.13-5.19h0.5l1.15,5.19h-0.34l-0.26-1.15h-1.61L41.94,88.87z M43.76,87.43l-0.76-3.35
			l-0.75,3.35H43.76z"/>
		<path class="st4" d="M46.35,84H45.3v-0.31h2.45V84h-1.06v4.87h-0.34V84z"/>
		<path class="st4" d="M49.35,88.87h-0.34v-5.18h0.34V88.87z"/>
		<path class="st4" d="M51.04,84.01c0.19-0.24,0.47-0.36,0.85-0.36c0.38,0,0.67,0.12,0.86,0.36c0.19,0.24,0.28,0.56,0.28,0.95v2.65
			c0,0.4-0.09,0.72-0.28,0.95c-0.19,0.24-0.48,0.36-0.86,0.36c-0.38,0-0.66-0.12-0.85-0.36c-0.19-0.24-0.29-0.56-0.29-0.95v-2.65
			C50.76,84.56,50.85,84.25,51.04,84.01z M51.29,88.34c0.13,0.17,0.33,0.26,0.6,0.26c0.28,0,0.48-0.09,0.61-0.26
			c0.13-0.17,0.2-0.41,0.2-0.71v-2.69c0-0.3-0.07-0.54-0.2-0.71c-0.13-0.17-0.33-0.26-0.61-0.26c-0.27,0-0.47,0.09-0.6,0.26
			c-0.13,0.18-0.19,0.41-0.19,0.71v2.69C51.1,87.93,51.16,88.17,51.29,88.34z"/>
		<path class="st4" d="M54.43,88.87v-5.18h0.44l1.55,4.37v-4.37h0.31v5.18h-0.38l-1.62-4.62v4.62H54.43z"/>
		<path class="st4" d="M62.06,84c0.18,0.24,0.27,0.55,0.27,0.94v0.11H62v-0.13c0-0.3-0.06-0.53-0.18-0.7
			c-0.12-0.17-0.32-0.26-0.58-0.26c-0.27,0-0.46,0.09-0.58,0.26c-0.12,0.17-0.18,0.4-0.18,0.7c0,0.19,0.04,0.35,0.12,0.5
			c0.08,0.15,0.18,0.27,0.29,0.38c0.12,0.11,0.28,0.23,0.48,0.38c0.21,0.15,0.38,0.29,0.52,0.41c0.13,0.12,0.24,0.26,0.33,0.44
			c0.09,0.17,0.13,0.38,0.13,0.61c0,0.39-0.09,0.71-0.27,0.94s-0.46,0.35-0.84,0.35c-0.38,0-0.66-0.12-0.84-0.35
			c-0.18-0.23-0.27-0.55-0.27-0.94v-0.27h0.33v0.29c0,0.3,0.06,0.53,0.19,0.7c0.13,0.17,0.32,0.26,0.6,0.26
			c0.27,0,0.47-0.09,0.6-0.26c0.13-0.17,0.19-0.4,0.19-0.7c0-0.19-0.04-0.35-0.12-0.5c-0.08-0.14-0.18-0.27-0.29-0.37
			c-0.12-0.11-0.27-0.23-0.47-0.37c-0.21-0.15-0.39-0.29-0.52-0.41c-0.13-0.12-0.25-0.27-0.34-0.44c-0.09-0.17-0.14-0.38-0.14-0.61
			c0-0.4,0.09-0.71,0.27-0.94c0.18-0.23,0.46-0.34,0.83-0.35C61.6,83.65,61.88,83.76,62.06,84z"/>
		<path class="st4" d="M64.23,88.34c0.12,0.18,0.32,0.27,0.59,0.27c0.27,0,0.47-0.09,0.59-0.27c0.12-0.18,0.18-0.42,0.18-0.72v-3.93
			h0.32v3.92c0,0.39-0.09,0.71-0.27,0.95c-0.18,0.24-0.46,0.36-0.83,0.36c-0.38,0-0.65-0.12-0.84-0.36
			c-0.18-0.24-0.27-0.56-0.27-0.95v-3.92h0.34v3.93C64.05,87.92,64.11,88.16,64.23,88.34z"/>
		<path class="st4" d="M69.53,84.86v0.45c0,0.31-0.06,0.55-0.18,0.72c-0.12,0.18-0.31,0.29-0.57,0.35c0.5,0.11,0.75,0.46,0.75,1.06
			v0.81c0,0.29,0.04,0.49,0.13,0.62H69.3c-0.04-0.07-0.07-0.16-0.09-0.26c-0.01-0.1-0.02-0.22-0.02-0.37v-0.81
			c0-0.33-0.08-0.55-0.24-0.68s-0.4-0.2-0.73-0.2h-0.54v2.32h-0.34v-5.18h1.08C69.16,83.69,69.53,84.08,69.53,84.86z M68.95,86.06
			c0.16-0.12,0.24-0.35,0.24-0.68v-0.49c0-0.29-0.06-0.51-0.18-0.66S68.68,84,68.41,84h-0.73v2.24h0.55
			C68.55,86.24,68.8,86.18,68.95,86.06z"/>
		<path class="st4" d="M74.41,88.86l-1.1-4.58v4.59h-0.3v-5.18h0.49l1.09,4.58l1.08-4.58h0.49v5.18h-0.33v-4.6l-1.08,4.59H74.41z"/>
		<path class="st4" d="M79.34,86.4h-1.41v2.16h1.7v0.31h-2.04v-5.18h2.04V84h-1.7v2.09h1.41V86.4z"/>
		<path class="st4" d="M82.94,84c0.18,0.24,0.27,0.55,0.27,0.94v0.11h-0.33v-0.13c0-0.3-0.06-0.53-0.18-0.7
			c-0.12-0.17-0.32-0.26-0.58-0.26c-0.27,0-0.46,0.09-0.58,0.26c-0.12,0.17-0.18,0.4-0.18,0.7c0,0.19,0.04,0.35,0.12,0.5
			c0.08,0.15,0.18,0.27,0.29,0.38c0.12,0.11,0.28,0.23,0.48,0.38c0.21,0.15,0.38,0.29,0.52,0.41c0.13,0.12,0.24,0.26,0.33,0.44
			c0.09,0.17,0.13,0.38,0.13,0.61c0,0.39-0.09,0.71-0.27,0.94s-0.46,0.35-0.84,0.35c-0.38,0-0.66-0.12-0.84-0.35
			c-0.18-0.23-0.27-0.55-0.27-0.94v-0.27h0.33v0.29c0,0.3,0.06,0.53,0.19,0.7c0.13,0.17,0.32,0.26,0.6,0.26
			c0.27,0,0.47-0.09,0.6-0.26c0.13-0.17,0.19-0.4,0.19-0.7c0-0.19-0.04-0.35-0.12-0.5c-0.08-0.14-0.18-0.27-0.29-0.37
			c-0.12-0.11-0.27-0.23-0.47-0.37c-0.21-0.15-0.39-0.29-0.52-0.41s-0.25-0.27-0.34-0.44C81.05,85.37,81,85.17,81,84.93
			c0-0.4,0.09-0.71,0.27-0.94c0.18-0.23,0.46-0.34,0.83-0.35C82.48,83.65,82.76,83.76,82.94,84z"/>
		<path class="st4" d="M85.11,88.34c0.12,0.18,0.32,0.27,0.59,0.27c0.27,0,0.47-0.09,0.59-0.27c0.12-0.18,0.18-0.42,0.18-0.72v-3.93
			h0.32v3.92c0,0.39-0.09,0.71-0.27,0.95c-0.18,0.24-0.46,0.36-0.83,0.36c-0.38,0-0.65-0.12-0.84-0.36
			c-0.18-0.24-0.27-0.56-0.27-0.95v-3.92h0.34v3.93C84.92,87.92,84.98,88.16,85.11,88.34z"/>
		<path class="st4" d="M90.41,84.86v0.45c0,0.31-0.06,0.55-0.18,0.72c-0.12,0.18-0.31,0.29-0.57,0.35c0.5,0.11,0.75,0.46,0.75,1.06
			v0.81c0,0.29,0.04,0.49,0.13,0.62h-0.36c-0.04-0.07-0.07-0.16-0.09-0.26c-0.01-0.1-0.02-0.22-0.02-0.37v-0.81
			c0-0.33-0.08-0.55-0.24-0.68s-0.4-0.2-0.73-0.2h-0.54v2.32h-0.34v-5.18h1.08C90.04,83.69,90.41,84.08,90.41,84.86z M89.83,86.06
			c0.16-0.12,0.24-0.35,0.24-0.68v-0.49c0-0.29-0.06-0.51-0.18-0.66C89.76,84.08,89.56,84,89.29,84h-0.73v2.24h0.55
			C89.43,86.24,89.67,86.18,89.83,86.06z"/>
		<path class="st4" d="M93.66,86.4h-1.41v2.16h1.7v0.31h-2.04v-5.18h2.04V84h-1.7v2.09h1.41V86.4z"/>
	</g>
	<g>
		<path class="st4" d="M66.4,195.97c-2.26,1.08-4.43,2.49-6.81,3.19c-14.44,4.27-28.33-7.88-25.78-22.84
			c2.31-13.53,5.27-26.96,7.94-40.43c0.26-1.33,0.58-2.65,0.84-3.98c1.56-7.94-3.28-13.91-11.4-14c-5.07-0.06-10.15-0.02-15.22-0.01
			c-5.12,0-7.09-1.95-7.09-7.05c0-5.07-0.01-10.15-0.01-15.22c0-0.52,0.04-1.04,0.05-1.4c29.97,0,59.56,0.01,89.96,0.01
			c-0.09,2.23,0.03,14.23-0.03,17.71c-0.07,3.65-2.21,5.86-5.85,5.92c-5.43,0.09-10.85,0.02-16.28,0.05
			c-8.31,0.05-13.19,6.06-11.51,14.2c2.46,11.89,4.96,23.78,7.39,35.68c0.62,3.06,1.12,6.15,1.51,9.25
			c0.67,5.25-0.54,10.06-3.63,14.39c-0.16,0.23-0.23,0.52-0.34,0.79C68.91,193.46,67.65,194.72,66.4,195.97z M48.25,173.51
			c-3.04,3.03-3.08,8.11-0.1,11.18c3.02,3.1,8.23,3.16,11.34,0.14c3.11-3.03,3.13-8.23,0.04-11.31
			C56.37,170.37,51.41,170.37,48.25,173.51z"/>
	</g>
	<g>
		<polygon class="st4" points="84.37,19.45 78.82,25.39 55.47,6.79 33.92,25.79 27.3,20.99 8.92,30.76 8.92,46.98 27.93,36.65 
			34.55,41.44 56.1,22.44 79.45,41.03 85,35.11 98.94,44.73 98.94,29.79 		"/>
		<polygon class="st4" points="85.3,37.81 79.54,43.33 56.15,24.57 34.54,43.4 27.75,38.16 9.03,48.93 8.92,56.55 27.93,46.22 
			34.55,51.01 56.1,32.01 79.45,50.6 85,44.68 98.94,54.29 98.94,46.65 		"/>
		<polygon class="st4" points="85.39,47.39 79.78,54.11 56.13,34.41 34.9,53.12 27.9,48.24 8.95,58.3 8.92,63.04 28.74,51.97 
			35.95,57.2 56.38,39.38 79.78,58.01 84.72,52.74 98.94,61.97 98.94,56.56 		"/>
	</g>
</g>
<g id="variation_logo">
</g>
<g id="admin">
</g>
<g id="recto_carte_visite">
</g>
<g id="verso_carte_visite">
</g>
<g id="Story_une">
</g>
<g id="RS">
</g>
</svg>
