<?xml version="1.0" encoding="utf-8"?>
<!-- Generator: Adobe Illustrator 27.0.1, SVG Export Plug-In . SVG Version: 6.00 Build 0)  -->
<svg version="1.1" xmlns="http://www.w3.org/2000/svg" xmlns:xlink="http://www.w3.org/1999/xlink" x="0px" y="0px"
	 viewBox="0 0 180 174.29" style="enable-background:new 0 0 180 174.29;" xml:space="preserve">
<style type="text/css">
	.st0{fill:#FFFFFF;stroke:#000000;stroke-miterlimit:10;}
	.st1{fill:#EBF6FA;}
	.st2{fill:#B4D8DC;}
	.st3{fill:#132D46;}
	.st4{fill:#FFFFFF;}
	.st5{fill:#F1EBF6;}
	.st6{fill:#C1B3D9;}
	.st7{fill:#321C45;}
</style>
<g id="Calque_13">
</g>
<g id="essais">
</g>
<g id="logo_complet">
</g>
<g id="logo_nom">
</g>
<g id="petit_logo">
</g>
<g id="logo_noir">
</g>
<g id="logo_blanc">
</g>
<g id="variation_logo">
</g>
<g id="admin">
</g>
<g id="recto_carte_visite">
</g>
<g id="verso_carte_visite">
</g>
<g id="Story_une">
</g>
<g id="RS">
	<g>
		<polygon class="st1" points="129.86,39.11 129.86,25.88 116.95,16.73 112.04,21.98 91.35,5.51 72.27,22.34 66.41,18.09 
			50.13,26.74 50.13,41.11 50.13,42.54 50.4,42.83 67.12,33.78 73.51,38.41 91.61,22.62 112.33,39.13 116.71,34.45 128.34,42.15 
			129.86,40.82 		"/>
		<polygon class="st2" points="129.86,39.11 117.51,30.59 112.6,35.84 91.91,19.37 72.83,36.2 66.96,31.96 50.13,41.11 50.13,42.54 
			50.13,49.58 50.13,50.22 50.96,51.12 67.68,42.07 74.07,46.69 92.16,30.91 112.89,47.42 117.27,42.74 128.9,50.44 129.86,49.59 
			129.86,47.58 129.86,40.82 		"/>
		<polygon class="st3" points="129.86,47.58 129.86,54.38 117.27,46.2 112.89,50.88 92.16,34.37 74.07,50.15 67.68,45.53 
			50.13,55.33 50.13,49.58 66.96,40.43 72.83,44.68 91.91,27.85 112.6,44.32 117.51,39.07 		"/>
		<g>
			<path class="st3" d="M58.57,56.47l2.74,14.41h-1.87l-0.68-3.32h-3.41l-0.68,3.32h-0.7l2.71-14.41H58.57z M55.47,67.15h3.1
				l-1.48-9.06L55.47,67.15z"/>
			<path class="st3" d="M66.7,56.47c0.41,0,0.79,0.1,1.13,0.3c0.34,0.2,0.63,0.47,0.88,0.82c0.24,0.35,0.44,0.75,0.58,1.22
				c0.14,0.46,0.21,0.96,0.21,1.48c0,0.83-0.16,1.55-0.49,2.18c-0.32,0.62-0.83,1.04-1.51,1.24c1.35,0.23,2.03,1.19,2.03,2.9v2.8
				c0,0.92,0.35,1.48,1.06,1.67c-0.17,0.05-0.36,0.07-0.58,0.07c-0.82,0-1.42-0.16-1.8-0.48c-0.38-0.32-0.57-0.74-0.57-1.26v-3.53
				c0-0.24-0.05-0.47-0.14-0.71c-0.09-0.23-0.21-0.45-0.37-0.64c-0.15-0.19-0.33-0.35-0.52-0.47c-0.19-0.12-0.39-0.18-0.58-0.18
				h-1.98v7h-1.89V56.47H66.7z M64.07,63.47h1.94c0.26,0,0.49-0.07,0.69-0.22c0.2-0.15,0.36-0.35,0.49-0.61
				c0.13-0.26,0.23-0.56,0.3-0.9c0.07-0.34,0.1-0.71,0.1-1.1c0-0.54-0.07-1.04-0.2-1.5c-0.13-0.46-0.31-0.85-0.54-1.19
				c-0.23-0.33-0.51-0.59-0.84-0.78c-0.33-0.19-0.7-0.28-1.11-0.28h-0.83V63.47z"/>
			<path class="st3" d="M78.12,56.47v0.77c-0.16-0.24-0.47-0.36-0.92-0.36h-1.65v14h-1.89v-14h-1.79c-0.06,0-0.13,0.01-0.22,0.03
				c-0.09,0.02-0.18,0.05-0.27,0.09c-0.09,0.03-0.17,0.07-0.24,0.11c-0.07,0.04-0.11,0.08-0.12,0.13v-0.77H78.12z"/>
			<path class="st3" d="M86.07,56.47v0.41h-5.33v6.56h3.08v0.41h-3.08v6.63h5.33v0.41h-7.22V56.47H86.07z"/>
			<path class="st3" d="M93.89,56.47v0.41h-5.33v6.76h3.76v0.41h-3.76v6.83h-1.89V56.47H93.89z"/>
			<path class="st3" d="M99.03,56.47l2.74,14.41H99.9l-0.68-3.32h-3.41l-0.68,3.32h-0.7l2.71-14.41H99.03z M95.93,67.15h3.1
				l-1.48-9.06L95.93,67.15z"/>
			<path class="st3" d="M110.41,58.77c-0.11-0.27-0.27-0.52-0.47-0.76c-0.2-0.23-0.43-0.44-0.68-0.61
				c-0.26-0.18-0.53-0.31-0.81-0.42c-0.28-0.1-0.57-0.15-0.85-0.15c-0.5,0-0.95,0.16-1.34,0.49c-0.39,0.33-0.72,0.79-0.99,1.39
				c-0.27,0.6-0.47,1.31-0.6,2.15c-0.14,0.84-0.2,1.76-0.2,2.79c0,1,0.07,1.93,0.2,2.78c0.14,0.85,0.33,1.59,0.59,2.22
				c0.26,0.63,0.56,1.12,0.93,1.48c0.36,0.36,0.78,0.54,1.24,0.54c0.26,0,0.52-0.05,0.79-0.16c0.27-0.11,0.52-0.25,0.77-0.43
				c0.24-0.18,0.48-0.39,0.7-0.62c0.22-0.23,0.42-0.47,0.59-0.72H111c-0.44,0.86-1.02,1.49-1.75,1.87
				c-0.72,0.39-1.54,0.58-2.46,0.58c-0.75,0-1.4-0.14-1.94-0.42s-0.99-0.72-1.34-1.34s-0.6-1.41-0.77-2.38
				c-0.16-0.97-0.25-2.15-0.25-3.53c0-1.17,0.1-2.2,0.29-3.09c0.19-0.89,0.5-1.64,0.94-2.25c0.43-0.61,0.99-1.07,1.67-1.38
				c0.68-0.31,1.51-0.47,2.49-0.47c0.73,0,1.36,0.2,1.91,0.6c0.55,0.4,1,0.95,1.36,1.67L110.41,58.77z"/>
			<path class="st3" d="M118.73,56.47v0.77c-0.16-0.24-0.47-0.36-0.92-0.36h-1.65v14h-1.89v-14h-1.79c-0.06,0-0.13,0.01-0.22,0.03
				c-0.09,0.02-0.18,0.05-0.27,0.09c-0.09,0.03-0.17,0.07-0.24,0.11c-0.07,0.04-0.11,0.08-0.12,0.13v-0.77H118.73z"/>
			<path class="st3" d="M125.27,58.32c-0.26-0.41-0.54-0.74-0.84-0.98c-0.3-0.24-0.62-0.37-0.96-0.37c-0.35,0-0.67,0.07-0.95,0.2
				c-0.28,0.13-0.51,0.31-0.7,0.53c-0.19,0.22-0.33,0.48-0.43,0.78c-0.1,0.3-0.15,0.62-0.15,0.95c0,0.52,0.11,1,0.32,1.42
				c0.22,0.43,0.49,0.83,0.83,1.21s0.73,0.76,1.16,1.12c0.43,0.37,0.86,0.76,1.29,1.17c0.43,0.42,0.74,0.92,0.93,1.5
				c0.19,0.58,0.28,1.15,0.28,1.7c0,1.12-0.34,2.01-1.01,2.65c-0.68,0.64-1.62,0.96-2.82,0.96c-0.72,0-1.33-0.18-1.86-0.54
				c-0.52-0.36-0.91-0.88-1.18-1.56l0.68-0.43c0.07,0.24,0.17,0.47,0.32,0.69c0.14,0.22,0.32,0.42,0.52,0.59
				c0.2,0.17,0.43,0.31,0.68,0.41c0.25,0.1,0.51,0.15,0.78,0.15c0.26,0,0.51-0.06,0.76-0.2c0.24-0.13,0.46-0.32,0.64-0.58
				c0.18-0.26,0.33-0.57,0.43-0.95c0.11-0.37,0.16-0.8,0.16-1.28c0-0.48-0.09-0.95-0.28-1.43c-0.19-0.48-0.5-0.91-0.95-1.31
				c-0.43-0.39-0.85-0.76-1.25-1.12c-0.4-0.36-0.76-0.73-1.07-1.12c-0.31-0.39-0.56-0.8-0.75-1.24c-0.19-0.44-0.28-0.94-0.28-1.48
				c0-0.49,0.07-0.95,0.22-1.37c0.15-0.43,0.37-0.79,0.67-1.11c0.3-0.31,0.68-0.56,1.13-0.74c0.45-0.18,0.99-0.27,1.6-0.27
				c0.62,0,1.14,0.14,1.53,0.43c0.4,0.29,0.76,0.67,1.09,1.15L125.27,58.32z"/>
		</g>
		<g>
			<path class="st3" d="M101.07,165.18c-2.01,0.96-3.93,2.2-6.03,2.83c-12.79,3.78-25.09-6.98-22.84-20.23
				c2.04-11.99,4.66-23.88,7.03-35.81c0.23-1.18,0.51-2.35,0.74-3.53c1.38-7.03-2.9-12.32-10.1-12.4
				c-4.49-0.05-8.99-0.01-13.48-0.01c-4.54,0-6.28-1.73-6.28-6.24c0-4.49-0.01-8.99-0.01-13.48c0-0.46,0.03-0.93,0.05-1.24
				c26.55,0,52.76,0.01,79.68,0.01c-0.08,1.98,0.03,12.6-0.03,15.68c-0.06,3.23-1.96,5.19-5.18,5.25
				c-4.81,0.08-9.61,0.01-14.42,0.04c-7.36,0.04-11.68,5.37-10.19,12.57c2.17,10.54,4.39,21.06,6.54,31.6
				c0.55,2.71,0.99,5.45,1.34,8.19c0.6,4.65-0.48,8.91-3.21,12.74c-0.14,0.2-0.2,0.46-0.3,0.7
				C103.29,162.96,102.18,164.07,101.07,165.18z M85,145.29c-2.69,2.69-2.73,7.18-0.09,9.9c2.68,2.75,7.29,2.8,10.04,0.12
				c2.76-2.68,2.77-7.29,0.03-10.02C92.19,142.51,87.79,142.51,85,145.29z"/>
		</g>
	</g>
</g>
</svg>
