<?xml version="1.0" encoding="utf-8"?>
<!-- Generator: Adobe Illustrator 27.0.1, SVG Export Plug-In . SVG Version: 6.00 Build 0)  -->
<svg version="1.1" xmlns="http://www.w3.org/2000/svg" xmlns:xlink="http://www.w3.org/1999/xlink" x="0px" y="0px"
	 viewBox="0 0 101.65 96.67" style="enable-background:new 0 0 101.65 96.67;" xml:space="preserve">
<style type="text/css">
	.st0{fill:#FFFFFF;stroke:#000000;stroke-miterlimit:10;}
	.st1{fill:#EBF6FA;}
	.st2{fill:#B4D8DC;}
	.st3{fill:#132D46;}
	.st4{fill:#FFFFFF;}
	.st5{fill:#F1EBF6;}
	.st6{fill:#C1B3D9;}
	.st7{fill:#321C45;}
</style>
<g id="Calque_13">
</g>
<g id="essais">
</g>
<g id="logo_complet">
</g>
<g id="logo_nom">
</g>
<g id="petit_logo">
</g>
<g id="logo_noir">
</g>
<g id="logo_blanc">
	<g>
		<path class="st4" d="M16.34,64.87l3.01,15.81h-2.05l-0.75-3.64h-3.74l-0.75,3.64H11.3l2.97-15.81H16.34z M12.94,76.58h3.4
			l-1.63-9.94L12.94,76.58z"/>
		<path class="st4" d="M25.26,64.87c0.45,0,0.86,0.11,1.24,0.33c0.37,0.22,0.7,0.52,0.96,0.9c0.27,0.38,0.48,0.82,0.64,1.33
			c0.16,0.51,0.23,1.05,0.23,1.62c0,0.91-0.18,1.7-0.53,2.39c-0.36,0.68-0.91,1.14-1.66,1.36c1.49,0.25,2.23,1.31,2.23,3.18v3.07
			c0,1.01,0.39,1.62,1.16,1.83c-0.19,0.05-0.4,0.07-0.64,0.07c-0.9,0-1.56-0.17-1.97-0.52c-0.41-0.35-0.62-0.81-0.62-1.38v-3.87
			c0-0.26-0.05-0.52-0.15-0.78c-0.1-0.25-0.23-0.49-0.4-0.7c-0.17-0.21-0.36-0.38-0.57-0.51c-0.21-0.13-0.42-0.2-0.64-0.2h-2.17
			v7.68H20.3V64.87H25.26z M22.37,72.54h2.13c0.29,0,0.54-0.08,0.76-0.24c0.22-0.16,0.4-0.39,0.54-0.67
			c0.14-0.29,0.25-0.61,0.33-0.99c0.07-0.37,0.11-0.78,0.11-1.21c0-0.6-0.07-1.15-0.21-1.65c-0.14-0.5-0.34-0.94-0.6-1.3
			c-0.26-0.37-0.56-0.65-0.92-0.86c-0.36-0.2-0.77-0.31-1.21-0.31h-0.92V72.54z"/>
		<path class="st4" d="M37.79,64.87v0.84c-0.17-0.26-0.51-0.39-1.01-0.39h-1.81v15.36h-2.07V65.31h-1.96
			c-0.06,0-0.14,0.01-0.24,0.04c-0.1,0.03-0.2,0.06-0.3,0.09s-0.19,0.08-0.26,0.12c-0.08,0.04-0.12,0.09-0.13,0.14v-0.84H37.79z"/>
		<path class="st4" d="M46.51,64.87v0.45h-5.85v7.19h3.38v0.45h-3.38v7.27h5.85v0.45h-7.92V64.87H46.51z"/>
		<path class="st4" d="M55.09,64.87v0.45h-5.85v7.42h4.13v0.45h-4.13v7.49h-2.07V64.87H55.09z"/>
		<path class="st4" d="M60.73,64.87l3.01,15.81h-2.05l-0.75-3.64H57.2l-0.75,3.64h-0.77l2.97-15.81H60.73z M57.33,76.58h3.4
			l-1.63-9.94L57.33,76.58z"/>
		<path class="st4" d="M73.21,67.39c-0.12-0.3-0.3-0.58-0.51-0.83c-0.22-0.26-0.47-0.48-0.75-0.67c-0.28-0.19-0.58-0.35-0.89-0.46
			c-0.31-0.11-0.62-0.17-0.93-0.17c-0.55,0-1.04,0.18-1.47,0.54c-0.43,0.36-0.79,0.87-1.08,1.52c-0.29,0.65-0.51,1.44-0.66,2.36
			c-0.15,0.92-0.22,1.94-0.22,3.06c0,1.1,0.08,2.11,0.22,3.05c0.15,0.94,0.36,1.75,0.64,2.43c0.28,0.69,0.62,1.23,1.02,1.62
			c0.4,0.39,0.85,0.59,1.36,0.59c0.29,0,0.58-0.06,0.87-0.18c0.29-0.12,0.57-0.28,0.84-0.48c0.27-0.2,0.52-0.43,0.77-0.68
			c0.24-0.26,0.46-0.52,0.64-0.79h0.8c-0.49,0.95-1.12,1.63-1.92,2.06c-0.79,0.42-1.69,0.63-2.7,0.63c-0.82,0-1.53-0.15-2.13-0.46
			s-1.09-0.79-1.47-1.47c-0.38-0.67-0.66-1.54-0.84-2.61c-0.18-1.06-0.27-2.36-0.27-3.88c0-1.28,0.11-2.41,0.32-3.39
			c0.21-0.98,0.55-1.8,1.03-2.47c0.47-0.67,1.08-1.17,1.83-1.51c0.75-0.34,1.66-0.51,2.73-0.51c0.8,0,1.49,0.22,2.09,0.65
			c0.6,0.44,1.1,1.05,1.49,1.83L73.21,67.39z"/>
		<path class="st4" d="M82.34,64.87v0.84c-0.17-0.26-0.51-0.39-1.01-0.39h-1.81v15.36h-2.07V65.31h-1.96
			c-0.06,0-0.14,0.01-0.24,0.04c-0.1,0.03-0.2,0.06-0.3,0.09c-0.1,0.04-0.19,0.08-0.26,0.12c-0.08,0.04-0.12,0.09-0.13,0.14v-0.84
			H82.34z"/>
		<path class="st4" d="M89.52,66.9c-0.29-0.45-0.59-0.81-0.92-1.07c-0.33-0.27-0.68-0.4-1.06-0.4c-0.39,0-0.73,0.07-1.04,0.21
			c-0.31,0.14-0.56,0.34-0.77,0.58c-0.21,0.24-0.36,0.53-0.48,0.86c-0.11,0.33-0.17,0.68-0.17,1.04c0,0.57,0.12,1.09,0.35,1.56
			c0.24,0.47,0.54,0.91,0.92,1.33c0.37,0.42,0.8,0.83,1.27,1.23c0.47,0.4,0.95,0.83,1.42,1.28c0.47,0.46,0.81,1.01,1.02,1.64
			c0.21,0.64,0.31,1.26,0.31,1.87c0,1.23-0.37,2.2-1.11,2.91c-0.74,0.7-1.77,1.06-3.09,1.06c-0.79,0-1.46-0.2-2.04-0.59
			c-0.57-0.39-1-0.96-1.29-1.71l0.75-0.47c0.07,0.26,0.19,0.51,0.35,0.76c0.16,0.24,0.34,0.46,0.57,0.64
			c0.22,0.19,0.47,0.34,0.75,0.45c0.27,0.11,0.56,0.17,0.86,0.17c0.29,0,0.56-0.07,0.83-0.21c0.27-0.14,0.5-0.36,0.7-0.64
			c0.2-0.28,0.36-0.63,0.48-1.04s0.18-0.88,0.18-1.4c0-0.52-0.1-1.05-0.31-1.57c-0.21-0.52-0.55-1-1.04-1.44
			c-0.47-0.42-0.93-0.83-1.37-1.22c-0.44-0.39-0.83-0.8-1.18-1.22c-0.34-0.42-0.62-0.88-0.82-1.36c-0.21-0.49-0.31-1.03-0.31-1.63
			c0-0.54,0.08-1.04,0.24-1.5c0.16-0.47,0.41-0.87,0.74-1.21c0.33-0.34,0.74-0.61,1.24-0.81c0.5-0.2,1.08-0.3,1.76-0.3
			c0.69,0,1.25,0.16,1.68,0.48c0.44,0.32,0.83,0.74,1.2,1.26L89.52,66.9z"/>
	</g>
	<g>
		<path class="st4" d="M13.21,83.6c0.18,0.24,0.27,0.55,0.27,0.94v0.42h-0.32v-0.44c0-0.29-0.06-0.53-0.19-0.7
			c-0.12-0.18-0.32-0.26-0.59-0.26c-0.27,0-0.46,0.09-0.59,0.26c-0.12,0.18-0.19,0.41-0.19,0.7v2.66c0,0.29,0.06,0.52,0.19,0.7
			c0.12,0.17,0.32,0.26,0.59,0.26c0.27,0,0.46-0.09,0.59-0.26c0.12-0.17,0.19-0.4,0.19-0.7v-0.61h0.32v0.58
			c0,0.39-0.09,0.7-0.27,0.94c-0.18,0.24-0.46,0.35-0.83,0.35c-0.37,0-0.65-0.12-0.83-0.35c-0.18-0.24-0.27-0.55-0.27-0.94v-2.61
			c0-0.39,0.09-0.7,0.27-0.94c0.18-0.24,0.46-0.35,0.83-0.35C12.75,83.25,13.03,83.36,13.21,83.6z"/>
		<path class="st4" d="M15.35,87.87c0.12,0.18,0.32,0.26,0.58,0.26c0.27,0,0.46-0.09,0.58-0.26c0.12-0.18,0.18-0.41,0.18-0.71v-3.87
			h0.31v3.86c0,0.39-0.09,0.7-0.27,0.94c-0.18,0.24-0.45,0.35-0.82,0.35c-0.37,0-0.64-0.12-0.82-0.35
			c-0.18-0.24-0.27-0.55-0.27-0.94v-3.86h0.34v3.87C15.17,87.46,15.23,87.7,15.35,87.87z"/>
		<path class="st4" d="M20.3,83.59c0.18,0.23,0.27,0.54,0.27,0.93v0.11h-0.32V84.5c0-0.29-0.06-0.52-0.18-0.69
			c-0.12-0.17-0.31-0.26-0.58-0.26s-0.45,0.09-0.58,0.26c-0.12,0.17-0.18,0.4-0.18,0.69c0,0.18,0.04,0.35,0.12,0.49
			c0.08,0.14,0.17,0.27,0.29,0.37c0.11,0.1,0.27,0.23,0.47,0.38c0.21,0.15,0.38,0.28,0.51,0.4s0.24,0.26,0.33,0.43
			s0.13,0.37,0.13,0.6c0,0.39-0.09,0.7-0.27,0.93c-0.18,0.23-0.46,0.35-0.83,0.35c-0.37,0-0.65-0.12-0.83-0.35
			c-0.18-0.23-0.27-0.54-0.27-0.93V86.9h0.32v0.28c0,0.29,0.06,0.52,0.19,0.69c0.12,0.17,0.32,0.25,0.59,0.25
			c0.27,0,0.46-0.08,0.59-0.25c0.12-0.17,0.19-0.4,0.19-0.69c0-0.18-0.04-0.35-0.12-0.49c-0.08-0.14-0.17-0.26-0.29-0.37
			c-0.11-0.1-0.27-0.23-0.46-0.37c-0.21-0.15-0.38-0.29-0.51-0.4c-0.13-0.12-0.24-0.27-0.33-0.44c-0.09-0.17-0.14-0.37-0.14-0.6
			c0-0.39,0.09-0.7,0.27-0.93c0.18-0.22,0.45-0.34,0.82-0.34C19.85,83.25,20.12,83.36,20.3,83.59z"/>
		<path class="st4" d="M22.8,83.6h-1.04v-0.31h2.41v0.31h-1.04v4.8H22.8V83.6z"/>
		<path class="st4" d="M25.68,83.6c0.19-0.24,0.47-0.35,0.84-0.35c0.38,0,0.66,0.12,0.85,0.35c0.19,0.23,0.28,0.55,0.28,0.94v2.61
			c0,0.39-0.09,0.71-0.28,0.94c-0.19,0.23-0.47,0.35-0.85,0.35c-0.37,0-0.65-0.12-0.84-0.35c-0.19-0.24-0.28-0.55-0.28-0.94v-2.61
			C25.4,84.15,25.49,83.84,25.68,83.6z M25.92,87.88c0.13,0.17,0.32,0.26,0.59,0.26c0.27,0,0.47-0.09,0.6-0.26
			c0.13-0.17,0.19-0.41,0.19-0.7v-2.66c0-0.3-0.06-0.53-0.19-0.7c-0.13-0.17-0.33-0.26-0.6-0.26c-0.27,0-0.46,0.09-0.59,0.26
			c-0.13,0.17-0.19,0.41-0.19,0.7v2.66C25.73,87.47,25.79,87.7,25.92,87.88z"/>
		<path class="st4" d="M30.4,88.39l-1.08-4.52v4.52h-0.3v-5.11h0.48l1.07,4.52l1.07-4.52h0.48v5.11H31.8v-4.54l-1.07,4.53H30.4z"/>
		<path class="st4" d="M33.86,88.4h-0.34v-5.11h0.34V88.4z"/>
		<path class="st4" d="M37.16,83.59c0.18,0.23,0.27,0.54,0.27,0.93v0.11H37.1V84.5c0-0.29-0.06-0.52-0.18-0.69s-0.31-0.26-0.58-0.26
			c-0.26,0-0.45,0.09-0.58,0.26c-0.12,0.17-0.18,0.4-0.18,0.69c0,0.18,0.04,0.35,0.12,0.49c0.08,0.14,0.17,0.27,0.29,0.37
			c0.11,0.1,0.27,0.23,0.47,0.38c0.21,0.15,0.38,0.28,0.51,0.4c0.13,0.12,0.24,0.26,0.33,0.43c0.09,0.17,0.13,0.37,0.13,0.6
			c0,0.39-0.09,0.7-0.27,0.93c-0.18,0.23-0.46,0.35-0.83,0.35c-0.37,0-0.65-0.12-0.83-0.35c-0.18-0.23-0.27-0.54-0.27-0.93V86.9
			h0.32v0.28c0,0.29,0.06,0.52,0.19,0.69c0.12,0.17,0.32,0.25,0.59,0.25c0.27,0,0.46-0.08,0.59-0.25c0.12-0.17,0.19-0.4,0.19-0.69
			c0-0.18-0.04-0.35-0.12-0.49c-0.08-0.14-0.17-0.26-0.29-0.37c-0.11-0.1-0.27-0.23-0.46-0.37c-0.21-0.15-0.38-0.29-0.51-0.4
			s-0.24-0.27-0.33-0.44c-0.09-0.17-0.14-0.37-0.14-0.6c0-0.39,0.09-0.7,0.27-0.93c0.18-0.22,0.45-0.34,0.82-0.34
			C36.71,83.25,36.98,83.36,37.16,83.59z"/>
		<path class="st4" d="M39.03,88.4h-0.31l1.12-5.11h0.49l1.14,5.11h-0.34l-0.26-1.13h-1.59L39.03,88.4z M40.82,86.97l-0.75-3.3
			l-0.74,3.3H40.82z"/>
		<path class="st4" d="M43.38,83.6h-1.04v-0.31h2.41v0.31h-1.04v4.8h-0.34V83.6z"/>
		<path class="st4" d="M46.34,88.4H46v-5.11h0.34V88.4z"/>
		<path class="st4" d="M48.01,83.6c0.19-0.24,0.47-0.35,0.84-0.35c0.38,0,0.66,0.12,0.85,0.35c0.19,0.23,0.28,0.55,0.28,0.94v2.61
			c0,0.39-0.09,0.71-0.28,0.94c-0.19,0.23-0.47,0.35-0.85,0.35c-0.37,0-0.65-0.12-0.84-0.35c-0.19-0.24-0.28-0.55-0.28-0.94v-2.61
			C47.72,84.15,47.82,83.84,48.01,83.6z M48.25,87.88c0.13,0.17,0.32,0.26,0.59,0.26c0.27,0,0.47-0.09,0.6-0.26
			c0.13-0.17,0.19-0.41,0.19-0.7v-2.66c0-0.3-0.06-0.53-0.19-0.7c-0.13-0.17-0.33-0.26-0.6-0.26c-0.27,0-0.46,0.09-0.59,0.26
			c-0.13,0.17-0.19,0.41-0.19,0.7v2.66C48.06,87.47,48.12,87.7,48.25,87.88z"/>
		<path class="st4" d="M51.35,88.4v-5.11h0.44l1.53,4.31v-4.31h0.31v5.11h-0.37l-1.6-4.55v4.55H51.35z"/>
		<path class="st4" d="M58.87,83.59c0.18,0.23,0.27,0.54,0.27,0.93v0.11h-0.32V84.5c0-0.29-0.06-0.52-0.18-0.69
			c-0.12-0.17-0.31-0.26-0.58-0.26c-0.26,0-0.45,0.09-0.58,0.26c-0.12,0.17-0.18,0.4-0.18,0.69c0,0.18,0.04,0.35,0.12,0.49
			c0.08,0.14,0.17,0.27,0.29,0.37c0.11,0.1,0.27,0.23,0.47,0.38c0.21,0.15,0.38,0.28,0.51,0.4c0.13,0.12,0.24,0.26,0.33,0.43
			s0.13,0.37,0.13,0.6c0,0.39-0.09,0.7-0.27,0.93c-0.18,0.23-0.46,0.35-0.83,0.35c-0.37,0-0.65-0.12-0.83-0.35
			c-0.18-0.23-0.27-0.54-0.27-0.93V86.9h0.32v0.28c0,0.29,0.06,0.52,0.19,0.69c0.12,0.17,0.32,0.25,0.59,0.25
			c0.27,0,0.46-0.08,0.59-0.25c0.12-0.17,0.19-0.4,0.19-0.69c0-0.18-0.04-0.35-0.12-0.49c-0.08-0.14-0.17-0.26-0.29-0.37
			c-0.11-0.1-0.27-0.23-0.46-0.37c-0.21-0.15-0.38-0.29-0.51-0.4s-0.24-0.27-0.33-0.44c-0.09-0.17-0.14-0.37-0.14-0.6
			c0-0.39,0.09-0.7,0.27-0.93c0.18-0.22,0.45-0.34,0.82-0.34C58.42,83.25,58.69,83.36,58.87,83.59z"/>
		<path class="st4" d="M61.01,87.87c0.12,0.18,0.32,0.26,0.58,0.26c0.27,0,0.46-0.09,0.58-0.26c0.12-0.18,0.18-0.41,0.18-0.71v-3.87
			h0.31v3.86c0,0.39-0.09,0.7-0.27,0.94c-0.18,0.24-0.45,0.35-0.82,0.35c-0.37,0-0.64-0.12-0.82-0.35
			c-0.18-0.24-0.27-0.55-0.27-0.94v-3.86h0.34v3.87C60.83,87.46,60.89,87.7,61.01,87.87z"/>
		<path class="st4" d="M66.23,84.44v0.44c0,0.3-0.06,0.54-0.18,0.71c-0.12,0.17-0.31,0.29-0.56,0.35c0.49,0.11,0.74,0.45,0.74,1.04
			v0.8c0,0.28,0.04,0.49,0.12,0.61h-0.35c-0.04-0.07-0.07-0.16-0.09-0.25c-0.01-0.09-0.02-0.21-0.02-0.36v-0.8
			c0-0.32-0.08-0.55-0.24-0.67c-0.16-0.13-0.4-0.19-0.71-0.19h-0.53v2.28h-0.34v-5.11h1.07C65.87,83.29,66.23,83.67,66.23,84.44z
			 M65.66,85.63c0.16-0.12,0.23-0.35,0.23-0.67v-0.48c0-0.29-0.06-0.5-0.18-0.65c-0.12-0.15-0.32-0.22-0.58-0.22h-0.72v2.21h0.54
			C65.27,85.81,65.51,85.75,65.66,85.63z"/>
		<path class="st4" d="M71.05,88.39l-1.08-4.52v4.52h-0.3v-5.11h0.48l1.07,4.52l1.07-4.52h0.48v5.11h-0.32v-4.54l-1.07,4.53H71.05z"
			/>
		<path class="st4" d="M75.9,85.96h-1.39v2.13h1.68v0.31h-2.01v-5.11h2.01v0.31h-1.68v2.06h1.39V85.96z"/>
		<path class="st4" d="M79.45,83.59c0.18,0.23,0.27,0.54,0.27,0.93v0.11h-0.32V84.5c0-0.29-0.06-0.52-0.18-0.69
			c-0.12-0.17-0.31-0.26-0.58-0.26c-0.26,0-0.45,0.09-0.58,0.26s-0.18,0.4-0.18,0.69c0,0.18,0.04,0.35,0.12,0.49
			c0.08,0.14,0.17,0.27,0.29,0.37c0.11,0.1,0.27,0.23,0.47,0.38c0.21,0.15,0.38,0.28,0.51,0.4s0.24,0.26,0.33,0.43
			s0.13,0.37,0.13,0.6c0,0.39-0.09,0.7-0.27,0.93c-0.18,0.23-0.46,0.35-0.83,0.35c-0.37,0-0.65-0.12-0.83-0.35
			c-0.18-0.23-0.27-0.54-0.27-0.93V86.9h0.32v0.28c0,0.29,0.06,0.52,0.19,0.69c0.12,0.17,0.32,0.25,0.59,0.25
			c0.27,0,0.46-0.08,0.59-0.25c0.12-0.17,0.19-0.4,0.19-0.69c0-0.18-0.04-0.35-0.12-0.49c-0.08-0.14-0.17-0.26-0.29-0.37
			c-0.11-0.1-0.27-0.23-0.46-0.37c-0.21-0.15-0.38-0.29-0.51-0.4s-0.24-0.27-0.33-0.44c-0.09-0.17-0.13-0.37-0.13-0.6
			c0-0.39,0.09-0.7,0.27-0.93c0.18-0.22,0.45-0.34,0.82-0.34C78.99,83.25,79.27,83.36,79.45,83.59z"/>
		<path class="st4" d="M81.59,87.87c0.12,0.18,0.32,0.26,0.58,0.26c0.27,0,0.46-0.09,0.58-0.26c0.12-0.18,0.18-0.41,0.18-0.71v-3.87
			h0.31v3.86c0,0.39-0.09,0.7-0.27,0.94c-0.18,0.24-0.45,0.35-0.82,0.35c-0.37,0-0.64-0.12-0.82-0.35
			c-0.18-0.24-0.27-0.55-0.27-0.94v-3.86h0.34v3.87C81.4,87.46,81.47,87.7,81.59,87.87z"/>
		<path class="st4" d="M86.81,84.44v0.44c0,0.3-0.06,0.54-0.18,0.71c-0.12,0.17-0.3,0.29-0.56,0.35c0.49,0.11,0.74,0.45,0.74,1.04
			v0.8c0,0.28,0.04,0.49,0.12,0.61h-0.35c-0.04-0.07-0.07-0.16-0.09-0.25c-0.01-0.09-0.02-0.21-0.02-0.36v-0.8
			c0-0.32-0.08-0.55-0.24-0.67c-0.16-0.13-0.4-0.19-0.71-0.19h-0.53v2.28h-0.34v-5.11h1.06C86.45,83.29,86.81,83.67,86.81,84.44z
			 M86.24,85.63c0.16-0.12,0.23-0.35,0.23-0.67v-0.48c0-0.29-0.06-0.5-0.18-0.65c-0.12-0.15-0.32-0.22-0.58-0.22h-0.72v2.21h0.54
			C85.85,85.81,86.09,85.75,86.24,85.63z"/>
		<path class="st4" d="M90.02,85.96h-1.39v2.13h1.68v0.31h-2.01v-5.11h2.01v0.31h-1.68v2.06h1.39V85.96z"/>
	</g>
	<g>
		<polygon class="st4" points="81.35,18.94 75.8,24.87 52.45,6.27 30.9,25.27 24.28,20.48 5.9,30.24 5.9,46.47 24.91,36.13 
			31.53,40.93 53.08,21.92 76.43,40.52 81.98,34.59 95.92,44.21 95.92,29.27 		"/>
		<polygon class="st4" points="82.28,37.29 76.52,42.82 53.13,24.06 31.52,42.89 24.73,37.64 6.01,48.41 5.9,56.03 24.91,45.7 
			31.53,50.49 53.08,31.49 76.43,50.09 81.98,44.16 95.92,53.77 95.92,46.13 		"/>
		<polygon class="st4" points="82.37,46.88 76.76,53.59 53.11,33.89 31.88,52.6 24.88,47.72 5.93,57.78 5.9,62.53 25.72,51.46 
			32.93,56.68 53.36,38.86 76.76,57.5 81.7,52.22 95.92,61.45 95.92,56.04 		"/>
	</g>
</g>
<g id="variation_logo">
</g>
<g id="admin">
</g>
<g id="recto_carte_visite">
</g>
<g id="verso_carte_visite">
</g>
<g id="Story_une">
</g>
<g id="RS">
</g>
</svg>
