<svg xmlns="http://www.w3.org/2000/svg" viewBox="0 0 180 174.29" style="enable-background:new 0 0 180 174.29" xml:space="preserve"><style>.st3{fill:#132d46}</style><g id="RS"><path style="fill:#ebf6fa" d="M129.86 39.11V25.88l-12.91-9.15-4.91 5.25L91.35 5.51 72.27 22.34l-5.86-4.25-16.28 8.65V42.54l.27.29 16.72-9.05 6.39 4.63 18.1-15.79 20.72 16.51 4.38-4.68 11.63 7.7 1.52-1.33z"/><path style="fill:#b4d8dc" d="m129.86 39.11-12.35-8.52-4.91 5.25-20.69-16.47L72.83 36.2l-5.87-4.24-16.83 9.15V50.22l.83.9 16.72-9.05 6.39 4.62 18.09-15.78 20.73 16.51 4.38-4.68 11.63 7.7.96-.85v-8.77z"/><path class="st3" d="M129.86 47.58v6.8l-12.59-8.18-4.38 4.68-20.73-16.51-18.09 15.78-6.39-4.62-17.55 9.8v-5.75l16.83-9.15 5.87 4.25 19.08-16.83 20.69 16.47 4.91-5.25zM58.57 56.47l2.74 14.41h-1.87l-.68-3.32h-3.41l-.68 3.32h-.7l2.71-14.41h1.89zm-3.1 10.68h3.1l-1.48-9.06-1.62 9.06zM66.7 56.47c.41 0 .79.1 1.13.3.34.2.63.47.88.82.24.35.44.75.58 1.22.14.46.21.96.21 1.48 0 .83-.16 1.55-.49 2.18-.32.62-.83 1.04-1.51 1.24 1.35.23 2.03 1.19 2.03 2.9v2.8c0 .92.35 1.48 1.06 1.67-.17.05-.36.07-.58.07-.82 0-1.42-.16-1.8-.48-.38-.32-.57-.74-.57-1.26v-3.53c0-.24-.05-.47-.14-.71-.09-.23-.21-.45-.37-.64-.15-.19-.33-.35-.52-.47s-.39-.18-.58-.18h-1.98v7h-1.89V56.47h4.54zm-2.63 7h1.94c.26 0 .49-.07.69-.22.2-.15.36-.35.49-.61s.23-.56.3-.9c.07-.34.1-.71.1-1.1 0-.54-.07-1.04-.2-1.5-.13-.46-.31-.85-.54-1.19-.23-.33-.51-.59-.84-.78-.33-.19-.7-.28-1.11-.28h-.83v6.58zM78.12 56.47v.77c-.16-.24-.47-.36-.92-.36h-1.65v14h-1.89v-14h-1.79c-.06 0-.13.01-.22.03-.09.02-.18.05-.27.09-.09.03-.17.07-.24.11-.07.04-.11.08-.12.13v-.77h7.1zM86.07 56.47v.41h-5.33v6.56h3.08v.41h-3.08v6.63h5.33v.41h-7.22V56.47h7.22zM93.89 56.47v.41h-5.33v6.76h3.76v.41h-3.76v6.83h-1.89V56.47h7.22zM99.03 56.47l2.74 14.41H99.9l-.68-3.32h-3.41l-.68 3.32h-.7l2.71-14.41h1.89zm-3.1 10.68h3.1l-1.48-9.06-1.62 9.06zM110.41 58.77c-.11-.27-.27-.52-.47-.76-.2-.23-.43-.44-.68-.61-.26-.18-.53-.31-.81-.42-.28-.1-.57-.15-.85-.15-.5 0-.95.16-1.34.49-.39.33-.72.79-.99 1.39-.27.6-.47 1.31-.6 2.15-.14.84-.2 1.76-.2 2.79 0 1 .07 1.93.2 2.78.14.85.33 1.59.59 2.22.26.63.56 1.12.93 1.48.36.36.78.54 1.24.54.26 0 .52-.05.79-.16s.52-.25.77-.43c.24-.18.48-.39.7-.62.22-.23.42-.47.59-.72h.72c-.44.86-1.02 1.49-1.75 1.87-.72.39-1.54.58-2.46.58-.75 0-1.4-.14-1.94-.42s-.99-.72-1.34-1.34-.6-1.41-.77-2.38c-.16-.97-.25-2.15-.25-3.53 0-1.17.1-2.2.29-3.09.19-.89.5-1.64.94-2.25.43-.61.99-1.07 1.67-1.38.68-.31 1.51-.47 2.49-.47.73 0 1.36.2 1.91.6.55.4 1 .95 1.36 1.67l-.74.17zM118.73 56.47v.77c-.16-.24-.47-.36-.92-.36h-1.65v14h-1.89v-14h-1.79c-.06 0-.13.01-.22.03-.09.02-.18.05-.27.09-.09.03-.17.07-.24.11-.07.04-.11.08-.12.13v-.77h7.1zM125.27 58.32c-.26-.41-.54-.74-.84-.98-.3-.24-.62-.37-.96-.37-.35 0-.67.07-.95.2-.28.13-.51.31-.7.53-.19.22-.33.48-.43.78-.1.3-.15.62-.15.95 0 .52.11 1 .32 1.42.22.43.49.83.83 1.21s.73.76 1.16 1.12c.43.37.86.76 1.29 1.17.43.42.74.92.93 1.5.19.58.28 1.15.28 1.7 0 1.12-.34 2.01-1.01 2.65-.68.64-1.62.96-2.82.96-.72 0-1.33-.18-1.86-.54-.52-.36-.91-.88-1.18-1.56l.68-.43c.07.24.17.47.32.69.14.22.32.42.52.59.2.17.43.31.68.41.25.1.51.15.78.15.26 0 .51-.06.76-.2.24-.13.46-.32.64-.58.18-.26.33-.57.43-.95.11-.37.16-.8.16-1.28s-.09-.95-.28-1.43c-.19-.48-.5-.91-.95-1.31-.43-.39-.85-.76-1.25-1.12-.4-.36-.76-.73-1.07-1.12-.31-.39-.56-.8-.75-1.24-.19-.44-.28-.94-.28-1.48 0-.49.07-.95.22-1.37.15-.43.37-.79.67-1.11.3-.31.68-.56 1.13-.74.45-.18.99-.27 1.6-.27.62 0 1.14.14 1.53.43.4.29.76.67 1.09 1.15l-.54.47zM101.07 165.18c-2.01.96-3.93 2.2-6.03 2.83-12.79 3.78-25.09-6.98-22.84-20.23 2.04-11.99 4.66-23.88 7.03-35.81.23-1.18.51-2.35.74-3.53 1.38-7.03-2.9-12.32-10.1-12.4-4.49-.05-8.99-.01-13.48-.01-4.54 0-6.28-1.73-6.28-6.24 0-4.49-.01-8.99-.01-13.48 0-.46.03-.93.05-1.24 26.55 0 52.76.01 79.68.01-.08 1.98.03 12.6-.03 15.68-.06 3.23-1.96 5.19-5.18 5.25-4.81.08-9.61.01-14.42.04-7.36.04-11.68 5.37-10.19 12.57 2.17 10.54 4.39 21.06 6.54 31.6.55 2.71.99 5.45 1.34 8.19.6 4.65-.48 8.91-3.21 12.74-.14.2-.2.46-.3.7-1.09 1.11-2.2 2.22-3.31 3.33zM85 145.29c-2.69 2.69-2.73 7.18-.09 9.9 2.68 2.75 7.29 2.8 10.04.12 2.76-2.68 2.77-7.29.03-10.02-2.79-2.78-7.19-2.78-9.98 0z"/></g></svg>