<svg xmlns="http://www.w3.org/2000/svg" viewBox="0 0 101.65 96.67" style="enable-background:new 0 0 101.65 96.67" xml:space="preserve"><style>.st3{fill:#132d46}</style><g id="petit_logo"><path style="fill:#ebf6fa" d="M95.83 44.52V29.59L81.26 19.25l-5.55 5.93L52.35 6.59l-21.54 19-6.62-4.8-18.38 9.77v17.83l.3.33L24.99 38.5l7.22 5.23 20.43-17.82 23.39 18.63 4.95-5.28 13.13 8.69 1.72-1.5z"/><path style="fill:#b4d8dc" d="M95.83 44.52 81.88 34.9l-5.54 5.93-23.36-18.59-21.54 19-6.62-4.8L5.81 46.78V57.06l.93 1.03 18.88-10.23 7.22 5.22 20.43-17.81L76.66 53.9l4.95-5.28 13.13 8.69 1.09-.95v-9.91z"/><path class="st3" d="M95.83 54.08v7.68l-14.22-9.23-4.95 5.28-23.39-18.64-20.43 17.82-7.22-5.22L5.81 62.84v-6.5l19.01-10.33 6.62 4.8 21.54-19L76.34 50.4l5.54-5.93zM14.92 64.38l3.13 16.46h-2.14l-.78-3.79h-3.89l-.78 3.79h-.8l3.09-16.46h2.17zm-3.55 12.2h3.54l-1.69-10.35-1.85 10.35zM24.21 64.38c.47 0 .9.11 1.29.34.39.23.72.54 1 .93s.5.86.66 1.39c.16.53.24 1.09.24 1.69 0 .95-.19 1.77-.56 2.49-.37.71-.95 1.19-1.73 1.42 1.55.26 2.32 1.36 2.32 3.31v3.19c0 1.05.4 1.69 1.21 1.91-.19.05-.42.08-.66.08-.94 0-1.62-.18-2.06-.54-.43-.36-.65-.84-.65-1.44v-4.03c0-.27-.05-.54-.16-.81-.1-.27-.24-.51-.42-.73-.18-.22-.37-.4-.59-.53-.22-.14-.44-.2-.66-.2H21.2v8h-2.16V64.38h5.17zm-3.01 8h2.22c.3 0 .56-.08.79-.25.23-.17.42-.4.56-.7.15-.3.26-.64.34-1.03.08-.39.12-.81.12-1.26 0-.62-.07-1.19-.22-1.72a4.73 4.73 0 0 0-.62-1.36 3 3 0 0 0-.96-.89c-.38-.21-.8-.32-1.26-.32h-.97v7.53zM37.25 64.38v.88c-.18-.27-.53-.41-1.05-.41h-1.89v15.99h-2.16V64.85h-2.04c-.06 0-.15.01-.25.04s-.21.06-.31.1-.19.08-.27.13c-.08.05-.12.09-.14.15v-.88h8.11zM46.33 64.38v.47h-6.09v7.49h3.52v.47h-3.52v7.57h6.09v.47h-8.25V64.38h8.25zM55.26 64.38v.47h-6.09v7.72h4.3v.47h-4.3v7.8h-2.16V64.38h8.25zM61.14 64.38l3.13 16.46h-2.14l-.78-3.79h-3.89l-.78 3.79h-.8l3.09-16.46h2.17zm-3.54 12.2h3.54l-1.69-10.35-1.85 10.35zM74.13 67.01c-.13-.31-.31-.6-.54-.87-.23-.27-.49-.5-.78-.7-.29-.2-.6-.36-.92-.48-.32-.12-.65-.17-.97-.17-.57 0-1.08.19-1.53.56-.45.38-.82.91-1.13 1.59-.31.68-.54 1.5-.69 2.45-.16.95-.23 2.02-.23 3.18 0 1.14.08 2.2.23 3.17.16.97.38 1.82.67 2.53.29.71.65 1.28 1.06 1.69.42.41.89.61 1.42.61.3 0 .6-.06.9-.18.3-.12.6-.29.88-.5.28-.21.55-.44.8-.71.25-.27.48-.54.67-.83h.84c-.51.99-1.17 1.7-1.99 2.14-.82.44-1.76.66-2.81.66-.86 0-1.59-.16-2.22-.48s-1.13-.83-1.53-1.53c-.4-.7-.69-1.61-.88-2.71-.19-1.11-.28-2.45-.28-4.04 0-1.34.11-2.51.33-3.53.22-1.02.58-1.87 1.07-2.57.49-.69 1.13-1.22 1.91-1.58.78-.36 1.72-.54 2.84-.54.83 0 1.56.23 2.18.68.62.45 1.14 1.09 1.56 1.91l-.86.25zM83.65 64.38v.88c-.18-.27-.53-.41-1.05-.41h-1.89v15.99h-2.16V64.85h-2.04c-.07 0-.15.01-.25.04s-.21.06-.31.1-.19.08-.27.13c-.08.05-.12.09-.14.15v-.88h8.11zM91.12 66.5c-.3-.47-.62-.84-.96-1.12s-.71-.42-1.1-.42c-.4 0-.76.08-1.08.22-.32.15-.58.35-.8.6-.21.25-.38.55-.5.89-.12.34-.18.7-.18 1.08 0 .6.12 1.14.37 1.62.25.49.56.95.95 1.38.39.43.83.86 1.32 1.28.49.42.99.87 1.48 1.33.49.48.85 1.05 1.06 1.71.21.66.32 1.31.32 1.95 0 1.28-.39 2.29-1.16 3.03-.77.73-1.84 1.1-3.22 1.1-.82 0-1.52-.2-2.12-.61-.6-.41-1.04-1-1.34-1.78l.78-.49c.08.27.2.54.36.79.16.25.36.48.59.67.23.19.49.35.78.47.29.12.58.18.89.18.3 0 .59-.07.87-.22s.52-.37.73-.66c.21-.29.37-.65.5-1.08.12-.43.18-.91.18-1.46 0-.55-.11-1.09-.32-1.63-.21-.55-.57-1.04-1.08-1.5-.49-.44-.97-.87-1.43-1.27-.46-.41-.87-.83-1.23-1.27-.36-.44-.64-.91-.86-1.42-.21-.51-.32-1.07-.32-1.69 0-.56.08-1.08.25-1.57.17-.49.42-.91.77-1.26.34-.36.77-.64 1.29-.85.52-.21 1.13-.31 1.83-.31.71 0 1.3.17 1.75.5s.87.77 1.25 1.31l-.62.5zM11.65 83.89c.19.25.28.57.28.98v.44h-.33v-.46c0-.3-.06-.55-.19-.73-.13-.18-.33-.27-.61-.27-.28 0-.48.09-.61.27s-.19.43-.19.73v2.76c0 .3.06.55.19.73.13.18.33.27.61.27.28 0 .48-.09.61-.27.13-.18.19-.42.19-.73v-.63h.33v.61c0 .41-.09.73-.28.98-.19.25-.48.37-.87.37s-.68-.12-.87-.37c-.19-.25-.28-.57-.28-.98v-2.72c0-.41.09-.73.28-.98.19-.25.48-.37.87-.37.4 0 .69.13.87.37zM13.89 88.34c.13.18.33.27.61.27.28 0 .48-.09.61-.27.13-.18.19-.43.19-.74v-4.03h.33v4.02c0 .41-.09.73-.28.98-.18.25-.47.37-.85.37-.39 0-.67-.12-.86-.37-.19-.25-.28-.57-.28-.98v-4.02h.35v4.03c-.01.31.05.56.18.74zM19.04 83.88c.18.24.28.56.28.97v.11h-.33v-.14c0-.3-.06-.54-.19-.72-.13-.18-.33-.27-.6-.27s-.47.09-.6.27c-.13.18-.19.42-.19.71 0 .19.04.36.12.51.08.15.18.28.3.39.12.11.28.24.49.39.22.16.39.3.53.42s.25.27.34.45c.09.18.14.39.14.62 0 .41-.09.73-.28.97-.19.24-.48.36-.87.36s-.68-.12-.87-.36c-.19-.24-.28-.56-.28-.97v-.27h.33v.3c0 .3.06.54.19.72.13.17.33.26.61.26.28 0 .48-.09.61-.26s.19-.41.19-.72c0-.19-.04-.36-.12-.51-.08-.15-.18-.27-.3-.38-.12-.11-.28-.24-.48-.38-.22-.16-.4-.3-.53-.42s-.25-.28-.35-.46c-.09-.18-.14-.39-.14-.63 0-.41.09-.73.28-.96.19-.23.47-.35.85-.36.4 0 .68.12.87.36zM21.64 83.89h-1.08v-.32h2.51v.32h-1.09v5h-.35v-5zM24.64 83.89c.19-.25.48-.37.87-.37s.69.12.88.36c.19.24.29.57.29.98v2.72c0 .41-.1.74-.29.98-.2.24-.49.36-.88.36s-.68-.12-.87-.37c-.2-.25-.29-.57-.29-.98v-2.72c0-.39.09-.71.29-.96zm.25 4.45c.13.18.34.27.62.27.28 0 .49-.09.63-.27.13-.18.2-.42.2-.73v-2.76c0-.31-.07-.55-.2-.73-.13-.18-.34-.27-.63-.27-.28 0-.48.09-.62.27-.13.18-.2.42-.2.73v2.76c0 .31.07.55.2.73zM29.56 88.88l-1.12-4.7v4.71h-.31v-5.32h.5l1.12 4.7 1.11-4.7h.5v5.32h-.33v-4.72l-1.11 4.72h-.36zM33.16 88.89h-.35v-5.32h.35v5.32zM36.59 83.88c.18.24.28.56.28.97v.11h-.33v-.14c0-.3-.06-.54-.19-.72-.13-.18-.33-.27-.6-.27s-.47.09-.6.27c-.13.18-.19.42-.19.71 0 .19.04.36.12.51.08.15.18.28.3.39s.28.24.49.39c.22.16.39.3.53.42s.25.27.34.45c.09.18.14.39.14.62 0 .41-.09.73-.28.97-.19.24-.48.36-.87.36s-.68-.12-.87-.36c-.19-.24-.28-.56-.28-.97v-.27h.33v.3c0 .3.06.54.19.72.13.17.33.26.61.26.28 0 .48-.09.61-.26s.19-.41.19-.72c0-.19-.04-.36-.12-.51s-.18-.27-.3-.38c-.12-.11-.28-.24-.48-.38-.22-.16-.4-.3-.53-.42-.14-.12-.25-.28-.35-.46-.09-.18-.14-.39-.14-.63 0-.41.09-.73.28-.96.19-.23.47-.35.85-.36.4 0 .69.12.87.36zM38.54 88.89h-.32l1.16-5.32h.51l1.19 5.32h-.35l-.27-1.18H38.8l-.26 1.18zm1.87-1.49-.78-3.44-.77 3.44h1.55zM43.08 83.89H42v-.32h2.51v.32h-1.09v5h-.35v-5zM46.15 88.89h-.35v-5.32h.35v5.32zM47.89 83.89c.19-.25.48-.37.87-.37s.69.12.88.36c.19.24.29.57.29.98v2.72c0 .41-.1.74-.29.98-.2.24-.49.36-.88.36s-.67-.12-.87-.37c-.2-.25-.29-.57-.29-.98v-2.72c0-.39.09-.71.29-.96zm.25 4.45c.13.18.34.27.62.27.28 0 .49-.09.63-.27.13-.18.2-.42.2-.73v-2.76c0-.31-.07-.55-.2-.73-.13-.18-.34-.27-.63-.27-.28 0-.48.09-.62.27-.13.18-.2.42-.2.73v2.76c.01.31.07.55.2.73zM51.37 88.89v-5.32h.46l1.6 4.49v-4.49h.32v5.32h-.39l-1.66-4.74v4.74h-.33zM59.2 83.88c.18.24.28.56.28.97v.11h-.33v-.14c0-.3-.06-.54-.19-.72-.13-.18-.33-.27-.6-.27s-.47.09-.6.27c-.13.18-.19.42-.19.71 0 .19.04.36.12.51.08.15.18.28.3.39.12.11.28.24.49.39.22.16.39.3.53.42s.25.27.34.45c.09.18.14.39.14.62 0 .41-.09.73-.28.97-.19.24-.48.36-.87.36s-.68-.12-.87-.36c-.19-.24-.28-.56-.28-.97v-.27h.33v.3c0 .3.06.54.19.72s.33.26.61.26c.28 0 .48-.09.61-.26s.19-.41.19-.72c0-.19-.04-.36-.12-.51-.08-.15-.18-.27-.3-.38-.12-.11-.28-.24-.48-.38-.22-.16-.4-.3-.53-.42-.14-.12-.25-.28-.35-.46-.09-.18-.14-.39-.14-.63 0-.41.09-.73.28-.96.19-.23.47-.35.85-.36.4 0 .68.12.87.36zM61.43 88.34c.13.18.33.27.61.27.28 0 .48-.09.61-.27.13-.18.19-.43.19-.74v-4.03h.33v4.02c0 .41-.09.73-.28.98-.18.25-.47.37-.85.37-.39 0-.67-.12-.86-.37-.19-.25-.28-.57-.28-.98v-4.02h.35v4.03c-.01.31.05.56.18.74zM66.87 84.77v.46c0 .31-.06.56-.19.74-.12.18-.32.3-.58.36.51.11.77.47.77 1.09v.83c0 .29.04.51.13.64h-.36c-.05-.08-.08-.16-.09-.26s-.02-.22-.02-.38v-.84c0-.33-.08-.57-.25-.7-.17-.13-.42-.2-.74-.2h-.55v2.38h-.35v-5.32h1.11c.74 0 1.12.4 1.12 1.2zM66.28 86c.16-.13.24-.36.24-.7v-.5c0-.3-.06-.53-.19-.68-.13-.15-.33-.23-.61-.23h-.75v2.3h.56c.34 0 .58-.06.75-.19zM71.88 88.88l-1.12-4.7v4.71h-.31v-5.32h.5l1.12 4.7 1.11-4.7h.5v5.32h-.33v-4.72l-1.11 4.72h-.36zM76.94 86.35h-1.45v2.22h1.75v.32h-2.1v-5.32h2.1v.32h-1.75v2.14h1.45v.32zM80.63 83.88c.18.24.28.56.28.97v.11h-.33v-.14c0-.3-.06-.54-.19-.72-.13-.18-.33-.27-.6-.27-.27 0-.47.09-.6.27-.13.18-.19.42-.19.71 0 .19.04.36.12.51.08.15.18.28.3.39.12.11.28.24.49.39.22.16.39.3.53.42s.25.27.34.45c.09.18.14.39.14.62 0 .41-.09.73-.28.97-.19.24-.48.36-.87.36s-.68-.12-.87-.36c-.19-.24-.28-.56-.28-.97v-.27h.33v.3c0 .3.06.54.19.72.13.17.33.26.61.26.28 0 .48-.09.61-.26s.19-.41.19-.72c0-.19-.04-.36-.12-.51-.08-.15-.18-.27-.3-.38-.12-.11-.28-.24-.48-.38-.22-.16-.39-.3-.53-.42s-.25-.28-.35-.46c-.09-.18-.14-.39-.14-.63 0-.41.09-.73.28-.96.19-.23.47-.35.85-.36.4 0 .68.12.87.36zM82.86 88.34c.13.18.33.27.61.27s.48-.09.61-.27c.13-.18.19-.43.19-.74v-4.03h.33v4.02c0 .41-.09.73-.28.98-.18.25-.47.37-.86.37-.38 0-.67-.12-.86-.37-.19-.25-.28-.57-.28-.98v-4.02h.35v4.03c0 .31.06.56.19.74zM88.3 84.77v.46c0 .31-.06.56-.19.74-.12.18-.32.3-.58.36.51.11.77.47.77 1.09v.83c0 .29.04.51.13.64h-.36c-.05-.08-.08-.16-.09-.26s-.02-.22-.02-.38v-.84c0-.33-.08-.57-.25-.7-.17-.13-.42-.2-.74-.2h-.57v2.38h-.35v-5.32h1.11c.76 0 1.14.4 1.14 1.2zM87.7 86c.16-.13.24-.36.24-.7v-.5c0-.3-.06-.53-.19-.68-.13-.15-.33-.23-.61-.23h-.74v2.3h.56c.33 0 .58-.06.74-.19zM91.64 86.35h-1.45v2.22h1.75v.32h-2.1v-5.32h2.1v.32h-1.75v2.14h1.45v.32z"/></g></svg>