<?xml version="1.0" encoding="utf-8"?>
<!-- Generator: Adobe Illustrator 27.0.1, SVG Export Plug-In . SVG Version: 6.00 Build 0)  -->
<svg version="1.1" xmlns="http://www.w3.org/2000/svg" xmlns:xlink="http://www.w3.org/1999/xlink" x="0px" y="0px"
	 viewBox="0 0 234.01 280.04" style="enable-background:new 0 0 234.01 280.04;" xml:space="preserve">
<style type="text/css">
	.st0{fill:#FFFFFF;stroke:#000000;stroke-miterlimit:10;}
	.st1{fill:#EBF6FA;}
	.st2{fill:#B4D8DC;}
	.st3{fill:#132D46;}
	.st4{fill:#FFFFFF;}
	.st5{fill:#F1EBF6;}
	.st6{fill:#C1B3D9;}
	.st7{fill:#321C45;}
</style>
<g id="Calque_13">
	<rect x="-233.59" y="-26.06" class="st0" width="475.27" height="508.19"/>
</g>
<g id="essais">
</g>
<g id="logo_complet">
</g>
<g id="logo_nom">
	<g>
		<polygon class="st1" points="162.01,85.79 162.01,70.86 147.44,60.52 141.89,66.46 118.54,47.86 96.99,66.86 90.37,62.06 
			71.99,71.83 71.99,88.05 71.99,89.66 72.3,90 91.18,79.77 98.39,85 118.82,67.18 142.21,85.81 147.16,80.53 160.29,89.22 
			162.01,87.72 		"/>
		<polygon class="st2" points="162.01,85.79 148.07,76.18 142.52,82.1 119.16,63.51 97.62,82.51 91,77.72 71.99,88.05 71.99,89.66 
			71.99,97.62 71.99,98.33 72.92,99.36 91.8,89.13 99.02,94.36 119.45,76.54 142.84,95.17 147.79,89.9 160.92,98.58 162.01,97.63 
			162.01,95.36 162.01,87.72 		"/>
		<polygon class="st3" points="162.01,95.36 162.01,103.03 147.79,93.8 142.84,99.08 119.45,80.45 99.02,98.26 91.8,93.04 
			71.99,104.11 71.99,97.62 91,87.29 97.62,92.08 119.16,73.08 142.52,91.67 148.07,85.74 		"/>
		<g>
			<path class="st3" d="M82.19,105.55l3.04,15.96h-2.08l-0.75-3.68h-3.77l-0.75,3.68h-0.77l3-15.96H82.19z M78.75,117.37h3.43
				l-1.64-10.04L78.75,117.37z"/>
			<path class="st3" d="M91.2,105.55c0.45,0,0.87,0.11,1.25,0.33c0.38,0.22,0.7,0.52,0.97,0.9c0.27,0.38,0.49,0.83,0.64,1.35
				c0.16,0.52,0.24,1.06,0.24,1.64c0,0.92-0.18,1.72-0.54,2.41c-0.36,0.69-0.92,1.15-1.67,1.38c1.5,0.25,2.25,1.32,2.25,3.21v3.1
				c0,1.02,0.39,1.64,1.17,1.85c-0.19,0.05-0.4,0.08-0.64,0.08c-0.91,0-1.58-0.18-1.99-0.53c-0.42-0.35-0.63-0.82-0.63-1.4v-3.9
				c0-0.26-0.05-0.53-0.15-0.78c-0.1-0.26-0.24-0.49-0.41-0.71c-0.17-0.21-0.36-0.39-0.58-0.52c-0.21-0.13-0.43-0.2-0.64-0.2h-2.19
				v7.75h-2.09v-15.96H91.2z M88.28,113.3h2.15c0.29,0,0.54-0.08,0.76-0.24c0.22-0.16,0.4-0.39,0.55-0.68
				c0.14-0.29,0.25-0.62,0.33-1c0.08-0.38,0.11-0.78,0.11-1.22c0-0.6-0.07-1.16-0.22-1.67c-0.14-0.51-0.35-0.95-0.6-1.32
				c-0.26-0.37-0.57-0.66-0.93-0.87c-0.36-0.21-0.77-0.31-1.23-0.31h-0.92V113.3z"/>
			<path class="st3" d="M103.84,105.55v0.85c-0.18-0.26-0.52-0.4-1.02-0.4h-1.83v15.51H98.9V106h-1.98c-0.06,0-0.14,0.01-0.25,0.04
				c-0.1,0.03-0.2,0.06-0.3,0.09s-0.19,0.08-0.26,0.12c-0.08,0.04-0.12,0.09-0.13,0.14v-0.85H103.84z"/>
			<path class="st3" d="M112.65,105.55V106h-5.9v7.26h3.41v0.45h-3.41v7.34h5.9v0.45h-8v-15.96H112.65z"/>
			<path class="st3" d="M121.31,105.55V106h-5.9v7.49h4.17v0.45h-4.17v7.56h-2.09v-15.96H121.31z"/>
			<path class="st3" d="M127.01,105.55l3.04,15.96h-2.08l-0.75-3.68h-3.77l-0.75,3.68h-0.77l3-15.96H127.01z M123.57,117.37h3.43
				l-1.64-10.04L123.57,117.37z"/>
			<path class="st3" d="M139.61,108.09c-0.13-0.3-0.3-0.58-0.52-0.84c-0.22-0.26-0.47-0.48-0.75-0.68c-0.28-0.19-0.58-0.35-0.9-0.46
				c-0.31-0.11-0.63-0.17-0.94-0.17c-0.55,0-1.05,0.18-1.48,0.55c-0.43,0.37-0.8,0.88-1.09,1.54c-0.3,0.66-0.52,1.45-0.67,2.38
				c-0.15,0.93-0.23,1.95-0.23,3.09c0,1.11,0.08,2.13,0.23,3.08c0.15,0.94,0.37,1.76,0.65,2.46c0.28,0.69,0.63,1.24,1.03,1.63
				c0.4,0.4,0.86,0.59,1.38,0.59c0.29,0,0.58-0.06,0.88-0.18c0.3-0.12,0.58-0.28,0.85-0.48c0.27-0.2,0.53-0.43,0.77-0.69
				c0.25-0.26,0.46-0.53,0.65-0.8h0.81c-0.49,0.96-1.13,1.65-1.93,2.08c-0.8,0.43-1.71,0.64-2.73,0.64c-0.83,0-1.55-0.15-2.15-0.46
				s-1.1-0.8-1.48-1.48c-0.38-0.68-0.67-1.56-0.85-2.63c-0.18-1.08-0.27-2.38-0.27-3.91c0-1.3,0.11-2.44,0.32-3.42
				c0.21-0.99,0.56-1.82,1.04-2.49c0.48-0.67,1.09-1.18,1.85-1.53c0.75-0.35,1.67-0.52,2.75-0.52c0.8,0,1.51,0.22,2.11,0.66
				c0.6,0.44,1.11,1.06,1.51,1.85L139.61,108.09z"/>
			<path class="st3" d="M148.83,105.55v0.85c-0.18-0.26-0.52-0.4-1.02-0.4h-1.83v15.51h-2.09V106h-1.98c-0.06,0-0.14,0.01-0.25,0.04
				c-0.1,0.03-0.2,0.06-0.3,0.09c-0.1,0.04-0.19,0.08-0.26,0.12c-0.08,0.04-0.12,0.09-0.13,0.14v-0.85H148.83z"/>
			<path class="st3" d="M156.08,107.6c-0.29-0.45-0.6-0.81-0.93-1.08c-0.33-0.27-0.69-0.41-1.07-0.41c-0.39,0-0.74,0.07-1.05,0.22
				c-0.31,0.14-0.57,0.34-0.77,0.58c-0.21,0.25-0.37,0.53-0.48,0.87c-0.11,0.33-0.17,0.68-0.17,1.05c0,0.58,0.12,1.1,0.36,1.58
				c0.24,0.47,0.55,0.92,0.92,1.34s0.8,0.84,1.28,1.25c0.48,0.41,0.96,0.84,1.43,1.29c0.48,0.47,0.82,1.02,1.03,1.66
				c0.21,0.64,0.31,1.27,0.31,1.89c0,1.25-0.37,2.22-1.12,2.93c-0.75,0.71-1.79,1.07-3.12,1.07c-0.79,0-1.48-0.2-2.06-0.59
				c-0.58-0.4-1.01-0.97-1.3-1.73l0.75-0.47c0.08,0.26,0.19,0.52,0.35,0.76c0.16,0.25,0.35,0.46,0.58,0.65
				c0.23,0.19,0.48,0.34,0.75,0.45c0.28,0.11,0.57,0.17,0.87,0.17c0.29,0,0.57-0.07,0.84-0.22c0.27-0.14,0.51-0.36,0.71-0.64
				c0.2-0.28,0.36-0.63,0.48-1.05c0.12-0.42,0.18-0.89,0.18-1.41c0-0.53-0.1-1.06-0.31-1.58c-0.21-0.53-0.56-1.01-1.05-1.45
				c-0.48-0.43-0.94-0.84-1.39-1.24c-0.45-0.4-0.84-0.81-1.19-1.24c-0.35-0.43-0.62-0.89-0.83-1.38c-0.21-0.49-0.31-1.04-0.31-1.64
				c0-0.54,0.08-1.05,0.25-1.52c0.16-0.47,0.41-0.88,0.75-1.23c0.33-0.35,0.75-0.62,1.25-0.82c0.5-0.2,1.09-0.3,1.77-0.3
				c0.69,0,1.26,0.16,1.7,0.48c0.44,0.32,0.84,0.75,1.21,1.27L156.08,107.6z"/>
		</g>
		<g>
			<path class="st3" d="M129.51,228.13c-2.26,1.08-4.43,2.49-6.81,3.19c-14.44,4.27-28.33-7.88-25.78-22.84
				c2.31-13.53,5.27-26.96,7.94-40.43c0.26-1.33,0.58-2.65,0.84-3.98c1.56-7.94-3.28-13.91-11.4-14
				c-5.07-0.06-10.15-0.02-15.22-0.01c-5.12,0-7.09-1.95-7.09-7.05c0-5.07-0.01-10.15-0.01-15.22c0-0.52,0.04-1.04,0.05-1.4
				c29.97,0,59.56,0.01,89.96,0.01c-0.09,2.23,0.03,14.23-0.03,17.71c-0.07,3.65-2.21,5.86-5.85,5.92
				c-5.43,0.09-10.85,0.02-16.28,0.05c-8.31,0.05-13.19,6.06-11.51,14.2c2.46,11.89,4.96,23.78,7.39,35.68
				c0.62,3.06,1.12,6.15,1.51,9.25c0.67,5.25-0.54,10.06-3.63,14.39c-0.16,0.23-0.23,0.52-0.34,0.79
				C132.01,225.62,130.76,226.88,129.51,228.13z M111.36,205.67c-3.04,3.03-3.08,8.11-0.1,11.18c3.02,3.1,8.23,3.16,11.34,0.14
				c3.11-3.03,3.13-8.23,0.04-11.31C119.48,202.53,114.51,202.53,111.36,205.67z"/>
		</g>
	</g>
</g>
<g id="petit_logo">
</g>
<g id="logo_noir">
</g>
<g id="logo_blanc">
</g>
<g id="variation_logo">
</g>
<g id="admin">
</g>
<g id="recto_carte_visite">
</g>
<g id="verso_carte_visite">
</g>
<g id="Story_une">
</g>
<g id="RS">
</g>
</svg>
