<?xml version="1.0" encoding="utf-8"?>
<!-- Generator: Adobe Illustrator 27.0.1, SVG Export Plug-In . SVG Version: 6.00 Build 0)  -->
<svg version="1.1" xmlns="http://www.w3.org/2000/svg" xmlns:xlink="http://www.w3.org/1999/xlink" x="0px" y="0px"
	 viewBox="0 0 231.42 83.22" style="enable-background:new 0 0 231.42 83.22;" xml:space="preserve">
<style type="text/css">
	.st0{fill:#FFFFFF;stroke:#000000;stroke-miterlimit:10;}
	.st1{fill:#EBF6FA;}
	.st2{fill:#B4D8DC;}
	.st3{fill:#132D46;}
	.st4{fill:#FFFFFF;}
	.st5{fill:#F1EBF6;}
	.st6{fill:#C1B3D9;}
	.st7{fill:#321C45;}
</style>
<g id="Calque_13">
</g>
<g id="essais">
</g>
<g id="logo_complet">
</g>
<g id="logo_nom">
</g>
<g id="petit_logo">
</g>
<g id="logo_noir">
</g>
<g id="logo_blanc">
</g>
<g id="variation_logo">
	<g>
		<path class="st3" d="M59.08,17.87l6.6,34.66h-4.51l-1.64-7.99h-8.19l-1.64,7.99h-1.68l6.51-34.66H59.08z M51.62,43.56h7.46
			l-3.56-21.79L51.62,43.56z"/>
		<path class="st3" d="M78.64,17.87c0.98,0,1.89,0.24,2.71,0.72c0.82,0.48,1.53,1.13,2.11,1.97c0.59,0.83,1.05,1.81,1.4,2.93
			c0.34,1.12,0.51,2.31,0.51,3.56c0,1.99-0.39,3.74-1.17,5.24c-0.78,1.5-1.99,2.5-3.63,2.99c3.26,0.55,4.89,2.87,4.89,6.97v6.73
			c0,2.22,0.85,3.55,2.54,4.02c-0.41,0.11-0.87,0.16-1.39,0.16c-1.98,0-3.42-0.38-4.33-1.15c-0.91-0.77-1.36-1.78-1.36-3.03v-8.48
			c0-0.57-0.11-1.14-0.33-1.7c-0.22-0.56-0.51-1.07-0.88-1.54c-0.37-0.46-0.79-0.84-1.25-1.13c-0.46-0.29-0.93-0.43-1.39-0.43h-4.75
			v16.84h-4.55V17.87H78.64z M72.31,34.71h4.67c0.63,0,1.18-0.18,1.66-0.53c0.48-0.35,0.87-0.84,1.19-1.47
			c0.31-0.63,0.55-1.35,0.72-2.17c0.16-0.82,0.25-1.7,0.25-2.66c0-1.31-0.16-2.51-0.47-3.62c-0.31-1.1-0.75-2.06-1.31-2.86
			c-0.56-0.8-1.24-1.43-2.03-1.88c-0.79-0.45-1.68-0.67-2.66-0.67h-2.01V34.71z"/>
		<path class="st3" d="M106.1,17.87v1.84c-0.38-0.57-1.12-0.86-2.21-0.86h-3.97v33.67h-4.55V18.86h-4.3c-0.14,0-0.31,0.03-0.53,0.08
			c-0.22,0.06-0.44,0.12-0.66,0.21c-0.22,0.08-0.41,0.17-0.57,0.27c-0.16,0.1-0.26,0.2-0.29,0.31v-1.84H106.1z"/>
		<path class="st3" d="M125.24,17.87v0.98h-12.82v15.77h7.41v0.98h-7.41v15.94h12.82v0.98h-17.37V17.87H125.24z"/>
		<path class="st3" d="M144.04,17.87v0.98h-12.82v16.26h9.05v0.98h-9.05v16.43h-4.55V17.87H144.04z"/>
		<path class="st3" d="M156.41,17.87l6.6,34.66h-4.51l-1.64-7.99h-8.19l-1.64,7.99h-1.68l6.51-34.66H156.41z M148.95,43.56h7.46
			l-3.56-21.79L148.95,43.56z"/>
		<path class="st3" d="M183.77,23.4c-0.27-0.66-0.65-1.26-1.13-1.82c-0.48-0.56-1.02-1.05-1.64-1.48c-0.61-0.42-1.26-0.76-1.95-1
			c-0.68-0.25-1.37-0.37-2.05-0.37c-1.2,0-2.27,0.4-3.22,1.19c-0.94,0.79-1.73,1.91-2.38,3.34c-0.64,1.44-1.13,3.16-1.45,5.17
			c-0.33,2.01-0.49,4.24-0.49,6.71c0,2.41,0.16,4.63,0.49,6.69c0.33,2.05,0.8,3.83,1.41,5.33c0.62,1.5,1.36,2.69,2.23,3.55
			c0.87,0.86,1.87,1.29,2.99,1.29c0.63,0,1.26-0.13,1.9-0.39c0.64-0.26,1.26-0.61,1.84-1.04c0.59-0.44,1.15-0.94,1.68-1.5
			c0.53-0.56,1-1.14,1.41-1.74h1.76c-1.06,2.08-2.46,3.58-4.2,4.51c-1.73,0.93-3.71,1.39-5.92,1.39c-1.8,0-3.36-0.33-4.67-1
			c-1.31-0.67-2.38-1.74-3.22-3.21c-0.83-1.48-1.45-3.38-1.84-5.71c-0.4-2.33-0.59-5.17-0.59-8.5c0-2.81,0.23-5.29,0.7-7.44
			c0.46-2.14,1.21-3.95,2.25-5.41c1.04-1.46,2.38-2.57,4.01-3.32c1.64-0.75,3.63-1.13,5.98-1.13c1.75,0,3.28,0.48,4.59,1.43
			c1.31,0.96,2.4,2.29,3.28,4.01L183.77,23.4z"/>
		<path class="st3" d="M203.81,17.87v1.84c-0.38-0.57-1.12-0.86-2.21-0.86h-3.97v33.67h-4.55V18.86h-4.3
			c-0.14,0-0.31,0.03-0.53,0.08c-0.22,0.06-0.44,0.12-0.66,0.21c-0.22,0.08-0.41,0.17-0.57,0.27c-0.16,0.1-0.26,0.2-0.29,0.31v-1.84
			H203.81z"/>
		<path class="st3" d="M219.54,22.34c-0.63-0.98-1.3-1.77-2.03-2.36c-0.72-0.59-1.5-0.88-2.32-0.88c-0.85,0-1.6,0.16-2.27,0.47
			c-0.67,0.31-1.23,0.74-1.68,1.27c-0.45,0.53-0.8,1.16-1.05,1.88c-0.25,0.72-0.37,1.48-0.37,2.27c0,1.26,0.26,2.4,0.78,3.42
			c0.52,1.02,1.19,1.99,2.01,2.91c0.82,0.92,1.75,1.82,2.79,2.7c1.04,0.89,2.08,1.82,3.11,2.81c1.04,1.01,1.78,2.21,2.23,3.6
			c0.45,1.39,0.68,2.76,0.68,4.1c0,2.7-0.81,4.83-2.44,6.37c-1.62,1.54-3.89,2.31-6.78,2.31c-1.72,0-3.21-0.43-4.47-1.29
			c-1.26-0.86-2.2-2.11-2.83-3.75l1.64-1.02c0.16,0.57,0.42,1.13,0.76,1.66c0.34,0.53,0.76,1,1.25,1.41
			c0.49,0.41,1.04,0.74,1.64,0.98c0.6,0.25,1.23,0.37,1.88,0.37c0.63,0,1.24-0.16,1.82-0.47c0.59-0.31,1.1-0.78,1.54-1.39
			c0.44-0.61,0.79-1.37,1.05-2.27c0.26-0.9,0.39-1.93,0.39-3.07c0-1.15-0.23-2.29-0.68-3.44c-0.45-1.15-1.21-2.2-2.27-3.15
			c-1.04-0.93-2.04-1.82-3.01-2.68c-0.97-0.86-1.83-1.75-2.58-2.68c-0.75-0.93-1.35-1.93-1.8-2.99c-0.45-1.07-0.68-2.25-0.68-3.56
			c0-1.17,0.18-2.27,0.53-3.3c0.35-1.02,0.89-1.91,1.62-2.66c0.72-0.75,1.63-1.35,2.72-1.78c1.09-0.44,2.38-0.65,3.85-0.65
			c1.5,0,2.73,0.35,3.69,1.04s1.83,1.62,2.62,2.77L219.54,22.34z"/>
	</g>
	<g>
		<path class="st3" d="M52.21,58.95c0.39,0.52,0.59,1.2,0.59,2.05v0.93h-0.7v-0.97c0-0.64-0.14-1.15-0.41-1.54
			c-0.27-0.38-0.7-0.58-1.29-0.58c-0.59,0-1.02,0.19-1.29,0.58c-0.27,0.38-0.41,0.9-0.41,1.54v5.82c0,0.64,0.14,1.15,0.41,1.53
			c0.27,0.38,0.7,0.57,1.29,0.57c0.59,0,1.02-0.19,1.29-0.57c0.27-0.38,0.41-0.89,0.41-1.53v-1.33h0.7v1.28
			c0,0.85-0.2,1.54-0.59,2.05c-0.39,0.52-1,0.78-1.82,0.78c-0.82,0-1.43-0.26-1.82-0.78c-0.39-0.52-0.59-1.2-0.59-2.05v-5.73
			c0-0.85,0.2-1.54,0.59-2.05c0.4-0.52,1-0.78,1.82-0.78C51.2,58.18,51.81,58.44,52.21,58.95z"/>
		<path class="st3" d="M56.91,68.32c0.27,0.38,0.69,0.58,1.28,0.58c0.59,0,1.01-0.19,1.28-0.58c0.27-0.38,0.4-0.9,0.4-1.55v-8.49
			h0.69v8.46c0,0.85-0.19,1.54-0.58,2.05c-0.39,0.52-0.99,0.78-1.8,0.78c-0.81,0-1.41-0.26-1.81-0.78c-0.39-0.52-0.59-1.2-0.59-2.05
			v-8.46h0.74v8.49C56.51,67.42,56.64,67.93,56.91,68.32z"/>
		<path class="st3" d="M67.76,58.94c0.39,0.51,0.58,1.19,0.58,2.04v0.24h-0.7v-0.29c0-0.64-0.13-1.15-0.4-1.52
			c-0.27-0.37-0.69-0.56-1.26-0.56c-0.58,0-1,0.19-1.26,0.56c-0.27,0.37-0.4,0.87-0.4,1.5c0,0.41,0.09,0.77,0.26,1.08
			c0.17,0.31,0.38,0.59,0.63,0.82c0.25,0.23,0.59,0.5,1.03,0.82c0.46,0.33,0.83,0.62,1.12,0.88c0.29,0.26,0.53,0.57,0.72,0.94
			c0.19,0.37,0.29,0.81,0.29,1.31c0,0.85-0.2,1.53-0.59,2.04c-0.39,0.51-1,0.76-1.82,0.76c-0.82,0-1.43-0.25-1.82-0.76
			c-0.39-0.51-0.59-1.19-0.59-2.04v-0.58h0.7v0.62c0,0.64,0.14,1.14,0.41,1.51c0.27,0.37,0.7,0.55,1.29,0.55
			c0.59,0,1.02-0.18,1.29-0.55c0.27-0.37,0.41-0.87,0.41-1.51c0-0.4-0.09-0.76-0.26-1.07c-0.17-0.31-0.38-0.58-0.63-0.81
			c-0.25-0.23-0.59-0.5-1.02-0.81c-0.46-0.33-0.83-0.63-1.12-0.89c-0.29-0.26-0.53-0.58-0.73-0.96c-0.2-0.38-0.3-0.82-0.3-1.32
			c0-0.86,0.2-1.54,0.59-2.03c0.4-0.49,0.99-0.74,1.79-0.75C66.77,58.18,67.37,58.43,67.76,58.94z"/>
		<path class="st3" d="M73.24,58.94h-2.27v-0.67h5.29v0.67h-2.29v10.53h-0.74V58.94z"/>
		<path class="st3" d="M79.55,58.95c0.41-0.52,1.02-0.78,1.83-0.78c0.83,0,1.45,0.26,1.86,0.77c0.41,0.51,0.62,1.2,0.62,2.06v5.73
			c0,0.86-0.21,1.55-0.62,2.06c-0.41,0.51-1.03,0.77-1.86,0.77c-0.81,0-1.42-0.26-1.83-0.78c-0.41-0.52-0.62-1.2-0.62-2.05v-5.73
			C78.93,60.16,79.14,59.47,79.55,58.95z M80.09,68.33c0.28,0.38,0.71,0.57,1.3,0.57c0.6,0,1.04-0.19,1.32-0.57
			c0.28-0.38,0.42-0.89,0.42-1.54v-5.82c0-0.65-0.14-1.16-0.42-1.54c-0.28-0.38-0.72-0.57-1.32-0.57c-0.59,0-1.02,0.19-1.3,0.57
			c-0.28,0.38-0.42,0.89-0.42,1.54v5.82C79.67,67.43,79.81,67.95,80.09,68.33z"/>
		<path class="st3" d="M89.91,69.45l-2.37-9.9v9.92h-0.66v-11.2h1.06l2.35,9.9l2.34-9.9h1.06v11.2h-0.7v-9.95l-2.34,9.93H89.91z"/>
		<path class="st3" d="M97.51,69.47h-0.74v-11.2h0.74V69.47z"/>
		<path class="st3" d="M104.73,58.94c0.39,0.51,0.58,1.19,0.58,2.04v0.24h-0.7v-0.29c0-0.64-0.13-1.15-0.4-1.52
			c-0.27-0.37-0.69-0.56-1.26-0.56c-0.58,0-1,0.19-1.26,0.56c-0.27,0.37-0.4,0.87-0.4,1.5c0,0.41,0.09,0.77,0.26,1.08
			c0.17,0.31,0.38,0.59,0.63,0.82c0.25,0.23,0.59,0.5,1.03,0.82c0.46,0.33,0.83,0.62,1.12,0.88c0.29,0.26,0.53,0.57,0.72,0.94
			c0.19,0.37,0.29,0.81,0.29,1.31c0,0.85-0.2,1.53-0.59,2.04c-0.39,0.51-1,0.76-1.82,0.76c-0.82,0-1.43-0.25-1.82-0.76
			c-0.39-0.51-0.59-1.19-0.59-2.04v-0.58h0.7v0.62c0,0.64,0.14,1.14,0.41,1.51c0.27,0.37,0.7,0.55,1.29,0.55
			c0.59,0,1.02-0.18,1.29-0.55c0.27-0.37,0.41-0.87,0.41-1.51c0-0.4-0.09-0.76-0.26-1.07c-0.17-0.31-0.38-0.58-0.63-0.81
			c-0.25-0.23-0.59-0.5-1.02-0.81c-0.46-0.33-0.83-0.63-1.12-0.89c-0.29-0.26-0.53-0.58-0.73-0.96c-0.2-0.38-0.3-0.82-0.3-1.32
			c0-0.86,0.2-1.54,0.59-2.03c0.4-0.49,0.99-0.74,1.79-0.75C103.74,58.18,104.34,58.43,104.73,58.94z"/>
		<path class="st3" d="M108.83,69.47h-0.67l2.45-11.21h1.07l2.5,11.21h-0.74l-0.56-2.48h-3.49L108.83,69.47z M112.76,66.35
			l-1.65-7.25l-1.62,7.25H112.76z"/>
		<path class="st3" d="M118.38,58.94h-2.27v-0.67h5.29v0.67h-2.29v10.53h-0.74V58.94z"/>
		<path class="st3" d="M124.86,69.47h-0.74v-11.2h0.74V69.47z"/>
		<path class="st3" d="M128.51,58.95c0.41-0.52,1.02-0.78,1.83-0.78c0.83,0,1.45,0.26,1.86,0.77c0.41,0.51,0.62,1.2,0.62,2.06v5.73
			c0,0.86-0.21,1.55-0.62,2.06c-0.41,0.51-1.03,0.77-1.86,0.77c-0.81,0-1.42-0.26-1.83-0.78c-0.41-0.52-0.62-1.2-0.62-2.05v-5.73
			C127.9,60.16,128.1,59.47,128.51,58.95z M129.05,68.33c0.28,0.38,0.71,0.57,1.3,0.57c0.6,0,1.04-0.19,1.32-0.57
			c0.28-0.38,0.42-0.89,0.42-1.54v-5.82c0-0.65-0.14-1.16-0.42-1.54c-0.28-0.38-0.72-0.57-1.32-0.57c-0.59,0-1.02,0.19-1.3,0.57
			c-0.28,0.38-0.42,0.89-0.42,1.54v5.82C128.63,67.43,128.77,67.95,129.05,68.33z"/>
		<path class="st3" d="M135.85,69.47v-11.2h0.96l3.36,9.45v-9.45h0.67v11.2h-0.82l-3.5-9.98v9.98H135.85z"/>
		<path class="st3" d="M152.33,58.94c0.39,0.51,0.58,1.19,0.58,2.04v0.24h-0.7v-0.29c0-0.64-0.13-1.15-0.4-1.52
			c-0.27-0.37-0.69-0.56-1.26-0.56c-0.58,0-1,0.19-1.26,0.56c-0.27,0.37-0.4,0.87-0.4,1.5c0,0.41,0.09,0.77,0.26,1.08
			c0.17,0.31,0.38,0.59,0.63,0.82c0.25,0.23,0.59,0.5,1.03,0.82c0.46,0.33,0.83,0.62,1.12,0.88c0.29,0.26,0.53,0.57,0.72,0.94
			c0.19,0.37,0.29,0.81,0.29,1.31c0,0.85-0.2,1.53-0.59,2.04s-1,0.76-1.82,0.76c-0.82,0-1.43-0.25-1.82-0.76
			c-0.39-0.51-0.59-1.19-0.59-2.04v-0.58h0.7v0.62c0,0.64,0.14,1.14,0.41,1.51c0.27,0.37,0.7,0.55,1.29,0.55
			c0.59,0,1.02-0.18,1.29-0.55c0.27-0.37,0.41-0.87,0.41-1.51c0-0.4-0.09-0.76-0.26-1.07c-0.17-0.31-0.38-0.58-0.63-0.81
			c-0.25-0.23-0.59-0.5-1.02-0.81c-0.46-0.33-0.83-0.63-1.12-0.89c-0.29-0.26-0.53-0.58-0.73-0.96c-0.2-0.38-0.3-0.82-0.3-1.32
			c0-0.86,0.2-1.54,0.59-2.03c0.4-0.49,0.99-0.74,1.79-0.75C151.34,58.18,151.94,58.43,152.33,58.94z"/>
		<path class="st3" d="M157.02,68.32c0.27,0.38,0.69,0.58,1.28,0.58c0.59,0,1.01-0.19,1.28-0.58c0.27-0.38,0.4-0.9,0.4-1.55v-8.49
			h0.69v8.46c0,0.85-0.19,1.54-0.58,2.05c-0.39,0.52-0.99,0.78-1.8,0.78c-0.81,0-1.41-0.26-1.81-0.78c-0.39-0.52-0.59-1.2-0.59-2.05
			v-8.46h0.74v8.49C156.62,67.42,156.76,67.93,157.02,68.32z"/>
		<path class="st3" d="M168.48,60.8v0.97c0,0.66-0.13,1.18-0.39,1.56c-0.26,0.38-0.67,0.63-1.22,0.76c1.08,0.24,1.62,1,1.62,2.29
			v1.74c0,0.62,0.09,1.06,0.27,1.34h-0.77c-0.1-0.16-0.16-0.34-0.19-0.55c-0.03-0.21-0.05-0.47-0.05-0.79v-1.76
			c0-0.7-0.18-1.2-0.53-1.48c-0.35-0.28-0.87-0.42-1.57-0.42h-1.17v5.01h-0.74v-11.2h2.34C167.68,58.27,168.48,59.11,168.48,60.8z
			 M167.23,63.39c0.34-0.27,0.51-0.76,0.51-1.47v-1.06c0-0.63-0.13-1.11-0.4-1.43c-0.27-0.33-0.69-0.49-1.28-0.49h-1.58v4.85h1.18
			C166.37,63.79,166.89,63.66,167.23,63.39z"/>
		<path class="st3" d="M179.03,69.45l-2.37-9.9v9.92h-0.66v-11.2h1.06l2.35,9.9l2.34-9.9h1.06v11.2h-0.7v-9.95l-2.34,9.93H179.03z"
			/>
		<path class="st3" d="M189.69,64.13h-3.06v4.67h3.68v0.67h-4.41v-11.2h4.41v0.67h-3.68v4.51h3.06V64.13z"/>
		<path class="st3" d="M197.45,58.94c0.39,0.51,0.58,1.19,0.58,2.04v0.24h-0.7v-0.29c0-0.64-0.13-1.15-0.4-1.52
			c-0.27-0.37-0.69-0.56-1.26-0.56c-0.58,0-1,0.19-1.26,0.56c-0.27,0.37-0.4,0.87-0.4,1.5c0,0.41,0.09,0.77,0.26,1.08
			c0.17,0.31,0.38,0.59,0.63,0.82s0.59,0.5,1.03,0.82c0.46,0.33,0.83,0.62,1.12,0.88c0.29,0.26,0.53,0.57,0.72,0.94
			c0.19,0.37,0.29,0.81,0.29,1.31c0,0.85-0.2,1.53-0.59,2.04c-0.39,0.51-1,0.76-1.82,0.76c-0.82,0-1.43-0.25-1.82-0.76
			c-0.39-0.51-0.59-1.19-0.59-2.04v-0.58h0.7v0.62c0,0.64,0.14,1.14,0.41,1.51c0.27,0.37,0.7,0.55,1.29,0.55
			c0.59,0,1.02-0.18,1.29-0.55c0.27-0.37,0.41-0.87,0.41-1.51c0-0.4-0.09-0.76-0.26-1.07c-0.17-0.31-0.38-0.58-0.63-0.81
			c-0.25-0.23-0.59-0.5-1.02-0.81c-0.46-0.33-0.83-0.63-1.12-0.89c-0.29-0.26-0.53-0.58-0.73-0.96c-0.2-0.38-0.3-0.82-0.3-1.32
			c0-0.86,0.2-1.54,0.59-2.03c0.4-0.49,0.99-0.74,1.79-0.75C196.46,58.18,197.06,58.43,197.45,58.94z"/>
		<path class="st3" d="M202.15,68.32c0.27,0.38,0.69,0.58,1.28,0.58c0.59,0,1.01-0.19,1.28-0.58c0.27-0.38,0.4-0.9,0.4-1.55v-8.49
			h0.69v8.46c0,0.85-0.19,1.54-0.58,2.05c-0.39,0.52-0.99,0.78-1.8,0.78c-0.81,0-1.41-0.26-1.81-0.78c-0.39-0.52-0.59-1.2-0.59-2.05
			v-8.46h0.74v8.49C201.75,67.42,201.88,67.93,202.15,68.32z"/>
		<path class="st3" d="M213.6,60.8v0.97c0,0.66-0.13,1.18-0.39,1.56c-0.26,0.38-0.67,0.63-1.22,0.76c1.08,0.24,1.62,1,1.62,2.29
			v1.74c0,0.62,0.09,1.06,0.27,1.34h-0.77c-0.1-0.16-0.16-0.34-0.19-0.55c-0.03-0.21-0.05-0.47-0.05-0.79v-1.76
			c0-0.7-0.18-1.2-0.53-1.48c-0.35-0.28-0.87-0.42-1.57-0.42h-1.17v5.01h-0.74v-11.2h2.34C212.8,58.27,213.6,59.11,213.6,60.8z
			 M212.35,63.39c0.34-0.27,0.51-0.76,0.51-1.47v-1.06c0-0.63-0.13-1.11-0.4-1.43c-0.27-0.33-0.69-0.49-1.28-0.49h-1.58v4.85h1.18
			C211.49,63.79,212.01,63.66,212.35,63.39z"/>
		<path class="st3" d="M220.64,64.13h-3.06v4.67h3.68v0.67h-4.41v-11.2h4.41v0.67h-3.68v4.51h3.06V64.13z"/>
	</g>
	<g>
		<polygon class="st1" points="40.94,28.62 40.94,24.05 36.47,20.88 34.78,22.7 27.62,17 21.02,22.82 19,21.35 13.37,24.35 
			13.37,29.32 13.37,29.81 13.46,29.91 19.24,26.78 21.45,28.38 27.71,22.92 34.88,28.63 36.39,27.01 40.41,29.67 40.94,29.21 		"/>
		<polygon class="st2" points="40.94,28.62 36.67,25.68 34.97,27.49 27.81,21.8 21.21,27.62 19.19,26.15 13.37,29.32 13.37,29.81 
			13.37,32.24 13.37,32.46 13.65,32.78 19.43,29.65 21.64,31.25 27.9,25.79 35.07,31.5 36.58,29.88 40.6,32.54 40.94,32.25 
			40.94,31.55 40.94,29.21 		"/>
		<polygon class="st3" points="40.94,31.55 40.94,33.9 36.58,31.08 35.07,32.69 27.9,26.99 21.64,32.44 19.43,30.84 13.37,34.23 
			13.37,32.24 19.19,29.08 21.21,30.55 27.81,24.73 34.97,30.42 36.67,28.61 		"/>
		<g>
			<path class="st3" d="M30.98,67.32c-0.69,0.33-1.36,0.76-2.09,0.98c-4.42,1.31-8.68-2.41-7.9-7c0.71-4.15,1.61-8.26,2.43-12.38
				c0.08-0.41,0.18-0.81,0.26-1.22c0.48-2.43-1-4.26-3.49-4.29c-1.55-0.02-3.11,0-4.66,0c-1.57,0-2.17-0.6-2.17-2.16
				c0-1.55,0-3.11,0-4.66c0-0.16,0.01-0.32,0.02-0.43c9.18,0,18.24,0,27.56,0c-0.03,0.68,0.01,4.36-0.01,5.42
				c-0.02,1.12-0.68,1.8-1.79,1.81c-1.66,0.03-3.32,0-4.99,0.01c-2.54,0.02-4.04,1.86-3.52,4.35c0.75,3.64,1.52,7.28,2.26,10.93
				c0.19,0.94,0.34,1.88,0.46,2.83c0.21,1.61-0.17,3.08-1.11,4.41c-0.05,0.07-0.07,0.16-0.1,0.24
				C31.75,66.56,31.37,66.94,30.98,67.32z M25.42,60.45c-0.93,0.93-0.94,2.48-0.03,3.42c0.93,0.95,2.52,0.97,3.47,0.04
				c0.95-0.93,0.96-2.52,0.01-3.46C27.91,59.48,26.39,59.48,25.42,60.45z"/>
		</g>
	</g>
</g>
<g id="admin">
</g>
<g id="recto_carte_visite">
</g>
<g id="verso_carte_visite">
</g>
<g id="Story_une">
</g>
<g id="RS">
</g>
</svg>
