<?xml version="1.0" encoding="utf-8"?>
<!-- Generator: Adobe Illustrator 27.0.1, SVG Export Plug-In . SVG Version: 6.00 Build 0)  -->
<svg version="1.1" xmlns="http://www.w3.org/2000/svg" xmlns:xlink="http://www.w3.org/1999/xlink" x="0px" y="0px"
	 viewBox="0 0 107.8 206.91" style="enable-background:new 0 0 107.8 206.91;" xml:space="preserve">
<style type="text/css">
	.st0{fill:#FFFFFF;stroke:#000000;stroke-miterlimit:10;}
	.st1{fill:#EBF6FA;}
	.st2{fill:#B4D8DC;}
	.st3{fill:#132D46;}
	.st4{fill:#FFFFFF;}
	.st5{fill:#F1EBF6;}
	.st6{fill:#C1B3D9;}
	.st7{fill:#321C45;}
</style>
<g id="Calque_13">
</g>
<g id="essais">
</g>
<g id="logo_complet">
	<g>
		<polygon class="st1" points="98.9,44.83 98.9,29.89 84.33,19.55 78.78,25.49 55.43,6.89 33.88,25.89 27.26,21.1 8.89,30.86 
			8.89,47.08 8.89,48.69 9.19,49.03 28.07,38.81 35.29,44.03 55.71,26.21 79.11,44.84 84.05,39.57 97.18,48.25 98.9,46.75 		"/>
		<polygon class="st2" points="98.9,44.83 84.96,35.21 79.41,41.13 56.06,22.54 34.51,41.54 27.89,36.75 8.89,47.08 8.89,48.69 
			8.89,56.65 8.89,57.36 9.82,58.39 28.7,48.17 35.92,53.39 56.34,35.57 79.74,54.21 84.68,48.93 97.81,57.62 98.9,56.66 
			98.9,54.39 98.9,46.75 		"/>
		<polygon class="st3" points="98.9,54.39 98.9,62.07 84.68,52.83 79.74,58.11 56.34,39.48 35.92,57.29 28.7,52.07 8.89,63.14 
			8.89,56.65 27.89,46.32 34.51,51.11 56.06,32.11 79.41,50.7 84.96,44.78 		"/>
		<g>
			<path class="st3" d="M19.32,65.14l3.02,15.85h-2.06l-0.75-3.65h-3.75l-0.75,3.65h-0.77l2.98-15.85H19.32z M15.91,76.88h3.41
				l-1.63-9.97L15.91,76.88z"/>
			<path class="st3" d="M28.26,65.14c0.45,0,0.86,0.11,1.24,0.33c0.38,0.22,0.7,0.52,0.97,0.9c0.27,0.38,0.48,0.83,0.64,1.34
				c0.16,0.51,0.23,1.05,0.23,1.63c0,0.91-0.18,1.71-0.54,2.4c-0.36,0.69-0.91,1.14-1.66,1.37c1.49,0.25,2.24,1.31,2.24,3.19v3.08
				c0,1.01,0.39,1.63,1.16,1.84c-0.19,0.05-0.4,0.07-0.64,0.07c-0.9,0-1.56-0.17-1.98-0.52c-0.42-0.35-0.62-0.81-0.62-1.39v-3.88
				c0-0.26-0.05-0.52-0.15-0.78c-0.1-0.26-0.23-0.49-0.4-0.7c-0.17-0.21-0.36-0.38-0.57-0.52c-0.21-0.13-0.43-0.2-0.64-0.2h-2.17
				v7.7h-2.08V65.14H28.26z M25.37,72.84h2.14c0.29,0,0.54-0.08,0.76-0.24c0.22-0.16,0.4-0.39,0.54-0.67
				c0.14-0.29,0.25-0.62,0.33-0.99c0.07-0.37,0.11-0.78,0.11-1.21c0-0.6-0.07-1.15-0.22-1.65c-0.14-0.5-0.34-0.94-0.6-1.31
				c-0.26-0.37-0.57-0.65-0.93-0.86c-0.36-0.21-0.77-0.31-1.22-0.31h-0.92V72.84z"/>
			<path class="st3" d="M40.83,65.14v0.84c-0.18-0.26-0.51-0.39-1.01-0.39H38v15.4h-2.08v-15.4h-1.97c-0.06,0-0.14,0.01-0.24,0.04
				c-0.1,0.03-0.2,0.06-0.3,0.09c-0.1,0.04-0.19,0.08-0.26,0.12c-0.08,0.04-0.12,0.09-0.13,0.14v-0.84H40.83z"/>
			<path class="st3" d="M49.58,65.14v0.45h-5.86v7.21h3.39v0.45h-3.39v7.29h5.86v0.45h-7.94V65.14H49.58z"/>
			<path class="st3" d="M58.18,65.14v0.45h-5.86v7.44h4.14v0.45h-4.14v7.51h-2.08V65.14H58.18z"/>
			<path class="st3" d="M63.83,65.14l3.02,15.85h-2.06l-0.75-3.65h-3.75l-0.75,3.65h-0.77l2.98-15.85H63.83z M60.42,76.88h3.41
				l-1.63-9.97L60.42,76.88z"/>
			<path class="st3" d="M76.35,67.67c-0.13-0.3-0.3-0.58-0.52-0.83c-0.22-0.26-0.47-0.48-0.75-0.67c-0.28-0.19-0.58-0.35-0.89-0.46
				c-0.31-0.11-0.62-0.17-0.94-0.17c-0.55,0-1.04,0.18-1.47,0.54c-0.43,0.36-0.79,0.87-1.09,1.53c-0.29,0.66-0.52,1.44-0.67,2.36
				c-0.15,0.92-0.23,1.94-0.23,3.07c0,1.1,0.08,2.12,0.23,3.06c0.15,0.94,0.37,1.75,0.65,2.44c0.28,0.69,0.62,1.23,1.02,1.62
				c0.4,0.39,0.86,0.59,1.37,0.59c0.29,0,0.58-0.06,0.87-0.18c0.29-0.12,0.57-0.28,0.84-0.48s0.52-0.43,0.77-0.68
				c0.24-0.26,0.46-0.52,0.65-0.8h0.81c-0.49,0.95-1.13,1.64-1.92,2.06c-0.79,0.42-1.7,0.64-2.71,0.64c-0.82,0-1.54-0.15-2.14-0.46
				c-0.6-0.31-1.09-0.8-1.47-1.47c-0.38-0.67-0.66-1.55-0.84-2.61c-0.18-1.07-0.27-2.36-0.27-3.89c0-1.29,0.11-2.42,0.32-3.4
				c0.21-0.98,0.56-1.8,1.03-2.47c0.47-0.67,1.09-1.17,1.84-1.52c0.75-0.34,1.66-0.52,2.74-0.52c0.8,0,1.5,0.22,2.1,0.66
				c0.6,0.44,1.1,1.05,1.5,1.84L76.35,67.67z"/>
			<path class="st3" d="M85.51,65.14v0.84c-0.18-0.26-0.51-0.39-1.01-0.39h-1.82v15.4H80.6v-15.4h-1.97c-0.06,0-0.14,0.01-0.24,0.04
				c-0.1,0.03-0.2,0.06-0.3,0.09c-0.1,0.04-0.19,0.08-0.26,0.12c-0.08,0.04-0.12,0.09-0.13,0.14v-0.84H85.51z"/>
			<path class="st3" d="M92.71,67.18c-0.29-0.45-0.6-0.81-0.93-1.08c-0.33-0.27-0.68-0.4-1.06-0.4c-0.39,0-0.73,0.07-1.04,0.22
				c-0.31,0.14-0.56,0.34-0.77,0.58c-0.21,0.24-0.37,0.53-0.48,0.86c-0.11,0.33-0.17,0.68-0.17,1.04c0,0.57,0.12,1.1,0.36,1.56
				c0.24,0.47,0.54,0.91,0.92,1.33c0.37,0.42,0.8,0.83,1.27,1.24c0.47,0.41,0.95,0.83,1.42,1.28c0.47,0.46,0.81,1.01,1.02,1.65
				c0.21,0.64,0.31,1.26,0.31,1.87c0,1.24-0.37,2.21-1.11,2.91c-0.74,0.71-1.78,1.06-3.1,1.06c-0.79,0-1.47-0.2-2.04-0.59
				S86.3,79.75,86.02,79l0.75-0.47c0.08,0.26,0.19,0.52,0.35,0.76s0.35,0.46,0.57,0.65c0.23,0.19,0.47,0.34,0.75,0.45
				c0.27,0.11,0.56,0.17,0.86,0.17c0.29,0,0.57-0.07,0.83-0.22s0.5-0.36,0.7-0.64c0.2-0.28,0.36-0.63,0.48-1.04
				c0.12-0.41,0.18-0.88,0.18-1.41c0-0.52-0.1-1.05-0.31-1.57c-0.21-0.52-0.55-1.01-1.04-1.44c-0.47-0.42-0.93-0.83-1.38-1.23
				c-0.44-0.39-0.84-0.8-1.18-1.23c-0.34-0.42-0.62-0.88-0.82-1.37c-0.21-0.49-0.31-1.03-0.31-1.63c0-0.54,0.08-1.04,0.24-1.51
				c0.16-0.47,0.41-0.87,0.74-1.22c0.33-0.34,0.75-0.62,1.25-0.82c0.5-0.2,1.09-0.3,1.76-0.3c0.69,0,1.25,0.16,1.69,0.48
				c0.44,0.32,0.84,0.74,1.2,1.26L92.71,67.18z"/>
		</g>
		<g>
			<path class="st3" d="M16.17,83.92c0.18,0.24,0.27,0.55,0.27,0.94v0.42h-0.32v-0.45c0-0.29-0.06-0.53-0.19-0.7
				c-0.12-0.18-0.32-0.26-0.59-0.26c-0.27,0-0.46,0.09-0.59,0.26c-0.12,0.18-0.19,0.41-0.19,0.7v2.66c0,0.29,0.06,0.53,0.19,0.7
				c0.12,0.17,0.32,0.26,0.59,0.26c0.27,0,0.46-0.09,0.59-0.26c0.12-0.17,0.19-0.41,0.19-0.7V86.9h0.32v0.59
				c0,0.39-0.09,0.7-0.27,0.94c-0.18,0.24-0.46,0.36-0.83,0.36c-0.38,0-0.65-0.12-0.83-0.36c-0.18-0.24-0.27-0.55-0.27-0.94v-2.62
				c0-0.39,0.09-0.7,0.27-0.94c0.18-0.24,0.46-0.36,0.83-0.36C15.72,83.57,15.99,83.69,16.17,83.92z"/>
			<path class="st3" d="M18.32,88.21c0.12,0.18,0.32,0.26,0.59,0.26c0.27,0,0.46-0.09,0.59-0.26c0.12-0.18,0.18-0.41,0.18-0.71
				v-3.89h0.31v3.87c0,0.39-0.09,0.7-0.27,0.94c-0.18,0.24-0.45,0.36-0.82,0.36c-0.37,0-0.65-0.12-0.83-0.36
				c-0.18-0.24-0.27-0.55-0.27-0.94v-3.87h0.34v3.89C18.14,87.8,18.2,88.03,18.32,88.21z"/>
			<path class="st3" d="M23.29,83.92c0.18,0.23,0.27,0.54,0.27,0.93v0.11h-0.32v-0.13c0-0.29-0.06-0.52-0.18-0.7
				c-0.12-0.17-0.31-0.26-0.58-0.26c-0.26,0-0.46,0.09-0.58,0.26c-0.12,0.17-0.18,0.4-0.18,0.69c0,0.19,0.04,0.35,0.12,0.49
				c0.08,0.14,0.17,0.27,0.29,0.37c0.11,0.1,0.27,0.23,0.47,0.38c0.21,0.15,0.38,0.28,0.51,0.4c0.13,0.12,0.24,0.26,0.33,0.43
				c0.09,0.17,0.13,0.37,0.13,0.6c0,0.39-0.09,0.7-0.27,0.93c-0.18,0.23-0.46,0.35-0.83,0.35c-0.38,0-0.65-0.12-0.83-0.35
				c-0.18-0.23-0.27-0.54-0.27-0.93v-0.26h0.32v0.28c0,0.29,0.06,0.52,0.19,0.69c0.12,0.17,0.32,0.25,0.59,0.25
				c0.27,0,0.46-0.08,0.59-0.25c0.12-0.17,0.19-0.4,0.19-0.69c0-0.19-0.04-0.35-0.12-0.49c-0.08-0.14-0.17-0.27-0.29-0.37
				c-0.11-0.1-0.27-0.23-0.46-0.37c-0.21-0.15-0.38-0.29-0.51-0.41c-0.13-0.12-0.24-0.27-0.33-0.44c-0.09-0.17-0.14-0.37-0.14-0.6
				c0-0.39,0.09-0.7,0.27-0.93c0.18-0.22,0.45-0.34,0.82-0.34C22.84,83.57,23.11,83.69,23.29,83.92z"/>
			<path class="st3" d="M25.79,83.92h-1.04v-0.31h2.42v0.31h-1.05v4.81h-0.34V83.92z"/>
			<path class="st3" d="M28.68,83.92c0.19-0.24,0.47-0.36,0.84-0.36c0.38,0,0.66,0.12,0.85,0.35c0.19,0.23,0.28,0.55,0.28,0.94v2.62
				c0,0.39-0.09,0.71-0.28,0.94c-0.19,0.23-0.47,0.35-0.85,0.35c-0.37,0-0.65-0.12-0.84-0.36c-0.19-0.24-0.28-0.55-0.28-0.94v-2.62
				C28.4,84.47,28.49,84.16,28.68,83.92z M28.93,88.21c0.13,0.17,0.32,0.26,0.59,0.26c0.27,0,0.47-0.09,0.6-0.26
				c0.13-0.17,0.19-0.41,0.19-0.71v-2.66c0-0.3-0.06-0.53-0.19-0.71c-0.13-0.17-0.33-0.26-0.6-0.26c-0.27,0-0.47,0.09-0.59,0.26
				c-0.13,0.17-0.19,0.41-0.19,0.71v2.66C28.74,87.8,28.8,88.04,28.93,88.21z"/>
			<path class="st3" d="M33.42,88.73l-1.08-4.53v4.54h-0.3v-5.12h0.48l1.08,4.53l1.07-4.53h0.48v5.12h-0.32v-4.55l-1.07,4.54H33.42z
				"/>
			<path class="st3" d="M36.89,88.74h-0.34v-5.12h0.34V88.74z"/>
			<path class="st3" d="M40.2,83.92c0.18,0.23,0.27,0.54,0.27,0.93v0.11h-0.32v-0.13c0-0.29-0.06-0.52-0.18-0.7
				c-0.12-0.17-0.31-0.26-0.58-0.26c-0.26,0-0.46,0.09-0.58,0.26c-0.12,0.17-0.18,0.4-0.18,0.69c0,0.19,0.04,0.35,0.12,0.49
				c0.08,0.14,0.17,0.27,0.29,0.37c0.11,0.1,0.27,0.23,0.47,0.38c0.21,0.15,0.38,0.28,0.51,0.4c0.13,0.12,0.24,0.26,0.33,0.43
				c0.09,0.17,0.13,0.37,0.13,0.6c0,0.39-0.09,0.7-0.27,0.93c-0.18,0.23-0.46,0.35-0.83,0.35c-0.38,0-0.65-0.12-0.83-0.35
				c-0.18-0.23-0.27-0.54-0.27-0.93v-0.26h0.32v0.28c0,0.29,0.06,0.52,0.19,0.69c0.12,0.17,0.32,0.25,0.59,0.25
				c0.27,0,0.46-0.08,0.59-0.25c0.12-0.17,0.19-0.4,0.19-0.69c0-0.19-0.04-0.35-0.12-0.49c-0.08-0.14-0.17-0.27-0.29-0.37
				c-0.11-0.1-0.27-0.23-0.46-0.37c-0.21-0.15-0.38-0.29-0.51-0.41c-0.13-0.12-0.24-0.27-0.33-0.44c-0.09-0.17-0.14-0.37-0.14-0.6
				c0-0.39,0.09-0.7,0.27-0.93c0.18-0.22,0.45-0.34,0.82-0.34C39.74,83.57,40.02,83.69,40.2,83.92z"/>
			<path class="st3" d="M42.07,88.74h-0.31l1.12-5.13h0.49l1.14,5.13h-0.34l-0.26-1.13h-1.59L42.07,88.74z M43.87,87.31l-0.75-3.31
				l-0.74,3.31H43.87z"/>
			<path class="st3" d="M46.44,83.92H45.4v-0.31h2.42v0.31h-1.05v4.81h-0.34V83.92z"/>
			<path class="st3" d="M49.4,88.74h-0.34v-5.12h0.34V88.74z"/>
			<path class="st3" d="M51.07,83.92c0.19-0.24,0.47-0.36,0.84-0.36c0.38,0,0.66,0.12,0.85,0.35c0.19,0.23,0.28,0.55,0.28,0.94v2.62
				c0,0.39-0.09,0.71-0.28,0.94c-0.19,0.23-0.47,0.35-0.85,0.35c-0.37,0-0.65-0.12-0.84-0.36c-0.19-0.24-0.28-0.55-0.28-0.94v-2.62
				C50.79,84.47,50.89,84.16,51.07,83.92z M51.32,88.21c0.13,0.17,0.32,0.26,0.59,0.26c0.27,0,0.47-0.09,0.6-0.26
				c0.13-0.17,0.19-0.41,0.19-0.71v-2.66c0-0.3-0.06-0.53-0.19-0.71c-0.13-0.17-0.33-0.26-0.6-0.26c-0.27,0-0.47,0.09-0.59,0.26
				c-0.13,0.17-0.19,0.41-0.19,0.71v2.66C51.13,87.8,51.19,88.04,51.32,88.21z"/>
			<path class="st3" d="M54.43,88.74v-5.12h0.44l1.54,4.32v-4.32h0.31v5.12h-0.37l-1.6-4.56v4.56H54.43z"/>
			<path class="st3" d="M61.97,83.92c0.18,0.23,0.27,0.54,0.27,0.93v0.11h-0.32v-0.13c0-0.29-0.06-0.52-0.18-0.7
				c-0.12-0.17-0.31-0.26-0.58-0.26c-0.26,0-0.46,0.09-0.58,0.26c-0.12,0.17-0.18,0.4-0.18,0.69c0,0.19,0.04,0.35,0.12,0.49
				c0.08,0.14,0.17,0.27,0.29,0.37c0.11,0.1,0.27,0.23,0.47,0.38c0.21,0.15,0.38,0.28,0.51,0.4c0.13,0.12,0.24,0.26,0.33,0.43
				c0.09,0.17,0.13,0.37,0.13,0.6c0,0.39-0.09,0.7-0.27,0.93c-0.18,0.23-0.46,0.35-0.83,0.35c-0.38,0-0.65-0.12-0.83-0.35
				c-0.18-0.23-0.27-0.54-0.27-0.93v-0.26h0.32v0.28c0,0.29,0.06,0.52,0.19,0.69c0.12,0.17,0.32,0.25,0.59,0.25
				c0.27,0,0.46-0.08,0.59-0.25c0.12-0.17,0.19-0.4,0.19-0.69c0-0.19-0.04-0.35-0.12-0.49c-0.08-0.14-0.17-0.27-0.29-0.37
				c-0.11-0.1-0.27-0.23-0.46-0.37c-0.21-0.15-0.38-0.29-0.51-0.41c-0.13-0.12-0.24-0.27-0.33-0.44c-0.09-0.17-0.14-0.37-0.14-0.6
				c0-0.39,0.09-0.7,0.27-0.93c0.18-0.22,0.45-0.34,0.82-0.34C61.51,83.57,61.79,83.69,61.97,83.92z"/>
			<path class="st3" d="M64.11,88.21c0.12,0.18,0.32,0.26,0.59,0.26c0.27,0,0.46-0.09,0.59-0.26c0.12-0.18,0.18-0.41,0.18-0.71
				v-3.89h0.31v3.87c0,0.39-0.09,0.7-0.27,0.94c-0.18,0.24-0.45,0.36-0.82,0.36c-0.37,0-0.65-0.12-0.83-0.36
				c-0.18-0.24-0.27-0.55-0.27-0.94v-3.87h0.34v3.89C63.93,87.8,63.99,88.03,64.11,88.21z"/>
			<path class="st3" d="M69.35,84.77v0.45c0,0.3-0.06,0.54-0.18,0.71c-0.12,0.17-0.31,0.29-0.56,0.35c0.49,0.11,0.74,0.46,0.74,1.05
				v0.8c0,0.28,0.04,0.49,0.12,0.61h-0.35c-0.04-0.07-0.07-0.16-0.09-0.25c-0.01-0.09-0.02-0.22-0.02-0.36v-0.81
				c0-0.32-0.08-0.55-0.24-0.68c-0.16-0.13-0.4-0.19-0.72-0.19h-0.53v2.29h-0.34v-5.12h1.07C68.99,83.61,69.35,84,69.35,84.77z
				 M68.78,85.95c0.16-0.12,0.23-0.35,0.23-0.67V84.8c0-0.29-0.06-0.51-0.18-0.65c-0.12-0.15-0.32-0.22-0.59-0.22h-0.72v2.22h0.54
				C68.39,86.14,68.63,86.08,68.78,85.95z"/>
			<path class="st3" d="M74.18,88.73L73.1,84.2v4.54h-0.3v-5.12h0.48l1.08,4.53l1.07-4.53h0.48v5.12h-0.32v-4.55l-1.07,4.54H74.18z"
				/>
			<path class="st3" d="M79.05,86.29h-1.4v2.14h1.68v0.31h-2.02v-5.12h2.02v0.31h-1.68v2.06h1.4V86.29z"/>
			<path class="st3" d="M82.61,83.92c0.18,0.23,0.27,0.54,0.27,0.93v0.11h-0.32v-0.13c0-0.29-0.06-0.52-0.18-0.7
				c-0.12-0.17-0.31-0.26-0.58-0.26s-0.46,0.09-0.58,0.26c-0.12,0.17-0.18,0.4-0.18,0.69c0,0.19,0.04,0.35,0.12,0.49
				c0.08,0.14,0.17,0.27,0.29,0.37c0.11,0.1,0.27,0.23,0.47,0.38c0.21,0.15,0.38,0.28,0.51,0.4c0.13,0.12,0.24,0.26,0.33,0.43
				c0.09,0.17,0.13,0.37,0.13,0.6c0,0.39-0.09,0.7-0.27,0.93c-0.18,0.23-0.46,0.35-0.83,0.35c-0.38,0-0.65-0.12-0.83-0.35
				c-0.18-0.23-0.27-0.54-0.27-0.93v-0.26h0.32v0.28c0,0.29,0.06,0.52,0.19,0.69c0.12,0.17,0.32,0.25,0.59,0.25
				c0.27,0,0.46-0.08,0.59-0.25c0.12-0.17,0.19-0.4,0.19-0.69c0-0.19-0.04-0.35-0.12-0.49c-0.08-0.14-0.17-0.27-0.29-0.37
				c-0.11-0.1-0.27-0.23-0.46-0.37c-0.21-0.15-0.38-0.29-0.51-0.41c-0.13-0.12-0.24-0.27-0.33-0.44c-0.09-0.17-0.14-0.37-0.14-0.6
				c0-0.39,0.09-0.7,0.27-0.93c0.18-0.22,0.45-0.34,0.82-0.34C82.15,83.57,82.43,83.69,82.61,83.92z"/>
			<path class="st3" d="M84.75,88.21c0.12,0.18,0.32,0.26,0.59,0.26c0.27,0,0.46-0.09,0.59-0.26c0.12-0.18,0.18-0.41,0.18-0.71
				v-3.89h0.31v3.87c0,0.39-0.09,0.7-0.27,0.94c-0.18,0.24-0.45,0.36-0.82,0.36c-0.37,0-0.65-0.12-0.83-0.36
				c-0.18-0.24-0.27-0.55-0.27-0.94v-3.87h0.34v3.89C84.57,87.8,84.63,88.03,84.75,88.21z"/>
			<path class="st3" d="M89.99,84.77v0.45c0,0.3-0.06,0.54-0.18,0.71c-0.12,0.17-0.31,0.29-0.56,0.35c0.49,0.11,0.74,0.46,0.74,1.05
				v0.8c0,0.28,0.04,0.49,0.12,0.61h-0.35c-0.04-0.07-0.07-0.16-0.09-0.25c-0.01-0.09-0.02-0.22-0.02-0.36v-0.81
				c0-0.32-0.08-0.55-0.24-0.68s-0.4-0.19-0.72-0.19h-0.53v2.29h-0.34v-5.12h1.07C89.62,83.61,89.99,84,89.99,84.77z M89.42,85.95
				c0.16-0.12,0.23-0.35,0.23-0.67V84.8c0-0.29-0.06-0.51-0.18-0.65c-0.12-0.15-0.32-0.22-0.59-0.22h-0.72v2.22h0.54
				C89.02,86.14,89.26,86.08,89.42,85.95z"/>
			<path class="st3" d="M93.21,86.29h-1.4v2.14h1.68v0.31h-2.02v-5.12h2.02v0.31h-1.68v2.06h1.4V86.29z"/>
		</g>
		<g>
			<path class="st3" d="M66.4,195.97c-2.26,1.08-4.43,2.49-6.81,3.19c-14.44,4.27-28.33-7.88-25.78-22.84
				c2.31-13.53,5.27-26.96,7.94-40.43c0.26-1.33,0.58-2.65,0.84-3.98c1.56-7.94-3.28-13.91-11.4-14
				c-5.07-0.06-10.15-0.02-15.22-0.01c-5.12,0-7.09-1.95-7.09-7.05c0-5.07-0.01-10.15-0.01-15.22c0-0.52,0.04-1.04,0.05-1.4
				c29.97,0,59.56,0.01,89.96,0.01c-0.09,2.23,0.03,14.23-0.03,17.71c-0.07,3.65-2.21,5.86-5.85,5.92
				c-5.43,0.09-10.85,0.02-16.28,0.05c-8.31,0.05-13.19,6.06-11.51,14.2c2.46,11.89,4.96,23.78,7.39,35.68
				c0.62,3.06,1.12,6.15,1.51,9.25c0.67,5.25-0.54,10.06-3.63,14.39c-0.16,0.23-0.23,0.52-0.34,0.79
				C68.91,193.46,67.65,194.72,66.4,195.97z M48.25,173.51c-3.04,3.03-3.08,8.11-0.1,11.18c3.02,3.1,8.23,3.16,11.34,0.14
				c3.11-3.03,3.13-8.23,0.04-11.31C56.37,170.37,51.41,170.37,48.25,173.51z"/>
		</g>
	</g>
</g>
<g id="logo_nom">
</g>
<g id="petit_logo">
</g>
<g id="logo_noir">
</g>
<g id="logo_blanc">
</g>
<g id="variation_logo">
</g>
<g id="admin">
</g>
<g id="recto_carte_visite">
</g>
<g id="verso_carte_visite">
</g>
<g id="Story_une">
</g>
<g id="RS">
</g>
</svg>
