<?xml version="1.0" encoding="utf-8"?>
<!-- Generator: Adobe Illustrator 27.0.1, SVG Export Plug-In . SVG Version: 6.00 Build 0)  -->
<svg version="1.1" xmlns="http://www.w3.org/2000/svg" xmlns:xlink="http://www.w3.org/1999/xlink" x="0px" y="0px"
	 viewBox="0 0 110.95 172.09" style="enable-background:new 0 0 110.95 172.09;" xml:space="preserve">
<style type="text/css">
	.st1{fill:#EBF6FA;}
	.st2{fill:#B4D8DC;}
	.st3{fill:#132D46;}
</style>
	<polygon class="st1" points="96.86,42.18 96.86,28.95 83.95,19.8 79.04,25.05 58.35,8.58 39.27,25.41 33.41,21.16 17.13,29.81 
		17.13,44.18 17.13,45.61 17.4,45.9 34.12,36.85 40.51,41.48 58.6,25.69 79.33,42.2 83.71,37.52 95.34,45.22 96.86,43.89 		"/>
	<polygon class="st2" points="96.86,42.18 84.51,33.66 79.59,38.91 58.91,22.44 39.82,39.27 33.96,35.03 17.13,44.18 17.13,45.61 
		17.13,52.65 17.13,53.29 17.95,54.19 34.68,45.14 41.07,49.76 59.16,33.98 79.88,50.49 84.26,45.81 95.89,53.51 96.86,52.66 
		96.86,50.65 96.86,43.89 		"/>
	<polygon class="st3" points="96.86,50.65 96.86,57.45 84.26,49.27 79.88,53.95 59.16,37.44 41.07,53.23 34.68,48.6 17.13,58.4 
		17.13,52.65 33.96,43.5 39.82,47.75 58.91,30.92 79.59,47.39 84.51,42.14 		"/>
</svg>
