<?xml version="1.0" encoding="utf-8"?>
<!-- Generator: Adobe Illustrator 27.0.1, SVG Export Plug-In . SVG Version: 6.00 Build 0)  -->
<svg version="1.1" xmlns="http://www.w3.org/2000/svg" xmlns:xlink="http://www.w3.org/1999/xlink" x="0px" y="0px"
	 viewBox="0 0 107.8 206.91" style="enable-background:new 0 0 107.8 206.91;" xml:space="preserve">
<style type="text/css">
	.st0{fill:#FFFFFF;stroke:#000000;stroke-miterlimit:10;}
	.st1{fill:#EBF6FA;}
	.st2{fill:#B4D8DC;}
	.st3{fill:#132D46;}
	.st4{fill:#FFFFFF;}
	.st5{fill:#F1EBF6;}
	.st6{fill:#C1B3D9;}
	.st7{fill:#321C45;}
</style>
<g id="Calque_13">
</g>
<g id="essais">
</g>
<g id="logo_complet">
</g>
<g id="logo_nom">
</g>
<g id="petit_logo">
</g>
<g id="logo_noir">
	<g>
		<path d="M19.64,65.24l2.99,15.7h-2.04l-0.74-3.62h-3.71l-0.74,3.62h-0.76l2.95-15.7H19.64z M16.26,76.88h3.38l-1.62-9.88
			L16.26,76.88z"/>
		<path d="M28.5,65.24c0.45,0,0.86,0.11,1.23,0.32c0.37,0.22,0.69,0.51,0.96,0.89c0.27,0.38,0.48,0.82,0.63,1.33
			c0.15,0.51,0.23,1.04,0.23,1.61c0,0.9-0.18,1.69-0.53,2.37c-0.35,0.68-0.9,1.13-1.65,1.35c1.48,0.25,2.21,1.3,2.21,3.16v3.05
			c0,1,0.38,1.61,1.15,1.82c-0.19,0.05-0.4,0.07-0.63,0.07c-0.9,0-1.55-0.17-1.96-0.52c-0.41-0.35-0.62-0.8-0.62-1.37v-3.84
			c0-0.26-0.05-0.52-0.15-0.77c-0.1-0.25-0.23-0.49-0.4-0.7c-0.17-0.21-0.36-0.38-0.57-0.51c-0.21-0.13-0.42-0.19-0.63-0.19h-2.15
			v7.63h-2.06v-15.7H28.5z M25.63,72.87h2.12c0.28,0,0.53-0.08,0.75-0.24c0.22-0.16,0.4-0.38,0.54-0.67
			c0.14-0.28,0.25-0.61,0.32-0.98c0.07-0.37,0.11-0.77,0.11-1.2c0-0.59-0.07-1.14-0.21-1.64c-0.14-0.5-0.34-0.93-0.59-1.3
			c-0.25-0.36-0.56-0.65-0.92-0.85c-0.36-0.2-0.76-0.31-1.21-0.31h-0.91V72.87z"/>
		<path d="M40.95,65.24v0.84c-0.17-0.26-0.51-0.39-1-0.39h-1.8v15.26h-2.06V65.69h-1.95c-0.06,0-0.14,0.01-0.24,0.04
			c-0.1,0.03-0.2,0.06-0.3,0.09c-0.1,0.04-0.19,0.08-0.26,0.12c-0.07,0.04-0.12,0.09-0.13,0.14v-0.84H40.95z"/>
		<path d="M49.62,65.24v0.45h-5.81v7.15h3.36v0.45h-3.36v7.22h5.81v0.45h-7.87v-15.7H49.62z"/>
		<path d="M58.14,65.24v0.45h-5.81v7.37h4.1v0.45h-4.1v7.44h-2.06v-15.7H58.14z"/>
		<path d="M63.74,65.24l2.99,15.7h-2.04l-0.74-3.62h-3.71l-0.74,3.62h-0.76l2.95-15.7H63.74z M60.36,76.88h3.38l-1.62-9.88
			L60.36,76.88z"/>
		<path d="M76.14,67.75c-0.12-0.3-0.29-0.57-0.51-0.83c-0.22-0.25-0.46-0.48-0.74-0.67c-0.28-0.19-0.57-0.34-0.88-0.45
			c-0.31-0.11-0.62-0.17-0.93-0.17c-0.54,0-1.03,0.18-1.46,0.54c-0.43,0.36-0.79,0.86-1.08,1.51c-0.29,0.65-0.51,1.43-0.66,2.34
			c-0.15,0.91-0.22,1.92-0.22,3.04c0,1.09,0.07,2.1,0.22,3.03c0.15,0.93,0.36,1.73,0.64,2.42c0.28,0.68,0.62,1.22,1.01,1.61
			c0.4,0.39,0.85,0.59,1.36,0.59c0.28,0,0.57-0.06,0.86-0.18c0.29-0.12,0.57-0.28,0.84-0.47c0.27-0.2,0.52-0.42,0.76-0.68
			c0.24-0.25,0.45-0.52,0.64-0.79h0.8c-0.48,0.94-1.12,1.62-1.9,2.04c-0.79,0.42-1.68,0.63-2.68,0.63c-0.82,0-1.52-0.15-2.12-0.46
			c-0.59-0.3-1.08-0.79-1.46-1.46c-0.38-0.67-0.66-1.53-0.84-2.59c-0.18-1.06-0.27-2.34-0.27-3.85c0-1.27,0.11-2.4,0.32-3.37
			c0.21-0.97,0.55-1.79,1.02-2.45c0.47-0.66,1.08-1.16,1.82-1.5c0.74-0.34,1.65-0.51,2.71-0.51c0.79,0,1.48,0.22,2.08,0.65
			c0.59,0.43,1.09,1.04,1.49,1.82L76.14,67.75z"/>
		<path d="M85.22,65.24v0.84c-0.17-0.26-0.51-0.39-1-0.39h-1.8v15.26h-2.06V65.69h-1.95c-0.06,0-0.14,0.01-0.24,0.04
			c-0.1,0.03-0.2,0.06-0.3,0.09c-0.1,0.04-0.19,0.08-0.26,0.12c-0.07,0.04-0.12,0.09-0.13,0.14v-0.84H85.22z"/>
		<path d="M92.35,67.27c-0.28-0.45-0.59-0.8-0.92-1.07c-0.33-0.27-0.68-0.4-1.05-0.4c-0.38,0-0.73,0.07-1.03,0.21
			c-0.3,0.14-0.56,0.33-0.76,0.58c-0.2,0.24-0.36,0.53-0.47,0.85c-0.11,0.33-0.17,0.67-0.17,1.03c0,0.57,0.12,1.09,0.35,1.55
			c0.23,0.46,0.54,0.9,0.91,1.32c0.37,0.41,0.79,0.82,1.26,1.23c0.47,0.4,0.94,0.83,1.41,1.27c0.47,0.46,0.81,1,1.01,1.63
			c0.2,0.63,0.31,1.25,0.31,1.86c0,1.23-0.37,2.19-1.1,2.89c-0.74,0.7-1.76,1.05-3.07,1.05c-0.78,0-1.45-0.2-2.02-0.58
			c-0.57-0.39-1-0.96-1.28-1.7l0.74-0.46c0.07,0.26,0.19,0.51,0.34,0.75c0.15,0.24,0.34,0.45,0.57,0.64
			c0.22,0.19,0.47,0.33,0.74,0.45c0.27,0.11,0.56,0.17,0.85,0.17c0.28,0,0.56-0.07,0.83-0.21s0.5-0.35,0.7-0.63
			c0.2-0.28,0.36-0.62,0.47-1.03c0.12-0.41,0.18-0.87,0.18-1.39c0-0.52-0.1-1.04-0.31-1.56c-0.2-0.52-0.55-1-1.03-1.43
			c-0.47-0.42-0.93-0.83-1.36-1.22c-0.44-0.39-0.83-0.79-1.17-1.22c-0.34-0.42-0.61-0.87-0.82-1.36c-0.2-0.48-0.31-1.02-0.31-1.62
			c0-0.53,0.08-1.03,0.24-1.49c0.16-0.46,0.41-0.87,0.73-1.21c0.33-0.34,0.74-0.61,1.23-0.81c0.49-0.2,1.08-0.3,1.75-0.3
			c0.68,0,1.24,0.16,1.67,0.47c0.43,0.32,0.83,0.73,1.19,1.25L92.35,67.27z"/>
	</g>
	<g>
		<path d="M16.52,83.86c0.18,0.23,0.27,0.54,0.27,0.93v0.42h-0.32v-0.44c0-0.29-0.06-0.52-0.18-0.7c-0.12-0.17-0.32-0.26-0.58-0.26
			c-0.27,0-0.46,0.09-0.58,0.26c-0.12,0.17-0.19,0.41-0.19,0.7v2.64c0,0.29,0.06,0.52,0.19,0.69c0.12,0.17,0.32,0.26,0.58,0.26
			c0.27,0,0.46-0.09,0.58-0.26c0.12-0.17,0.18-0.4,0.18-0.69v-0.6h0.32v0.58c0,0.39-0.09,0.7-0.27,0.93
			c-0.18,0.23-0.45,0.35-0.83,0.35c-0.37,0-0.65-0.12-0.83-0.35c-0.18-0.23-0.27-0.54-0.27-0.93v-2.6c0-0.39,0.09-0.7,0.27-0.93
			c0.18-0.23,0.45-0.35,0.83-0.35C16.07,83.51,16.34,83.63,16.52,83.86z"/>
		<path d="M18.65,88.1c0.12,0.17,0.31,0.26,0.58,0.26c0.27,0,0.46-0.09,0.58-0.26S20,87.7,20,87.4v-3.85h0.31v3.83
			c0,0.39-0.09,0.7-0.26,0.93c-0.18,0.23-0.45,0.35-0.82,0.35c-0.37,0-0.64-0.12-0.82-0.35c-0.18-0.23-0.27-0.54-0.27-0.93v-3.83
			h0.33v3.85C18.47,87.7,18.53,87.93,18.65,88.1z"/>
		<path d="M23.57,83.85c0.18,0.23,0.26,0.54,0.26,0.92v0.11h-0.32v-0.13c0-0.29-0.06-0.52-0.18-0.69c-0.12-0.17-0.31-0.25-0.57-0.25
			c-0.26,0-0.45,0.09-0.57,0.25c-0.12,0.17-0.18,0.4-0.18,0.68c0,0.18,0.04,0.35,0.12,0.49c0.08,0.14,0.17,0.27,0.29,0.37
			c0.11,0.1,0.27,0.23,0.47,0.37c0.21,0.15,0.38,0.28,0.51,0.4s0.24,0.26,0.33,0.43c0.09,0.17,0.13,0.37,0.13,0.59
			c0,0.39-0.09,0.69-0.27,0.92s-0.45,0.34-0.83,0.34c-0.37,0-0.65-0.12-0.83-0.34c-0.18-0.23-0.27-0.54-0.27-0.92v-0.26h0.32v0.28
			c0,0.29,0.06,0.52,0.18,0.69c0.12,0.17,0.32,0.25,0.58,0.25c0.27,0,0.46-0.08,0.58-0.25c0.12-0.17,0.18-0.39,0.18-0.69
			c0-0.18-0.04-0.35-0.12-0.49c-0.08-0.14-0.17-0.26-0.29-0.37c-0.11-0.1-0.27-0.23-0.46-0.37c-0.21-0.15-0.38-0.28-0.51-0.4
			c-0.13-0.12-0.24-0.26-0.33-0.43c-0.09-0.17-0.13-0.37-0.13-0.6c0-0.39,0.09-0.7,0.27-0.92c0.18-0.22,0.45-0.34,0.81-0.34
			C23.12,83.51,23.4,83.62,23.57,83.85z"/>
		<path d="M26.05,83.86h-1.03v-0.3h2.4v0.3h-1.04v4.77h-0.33V83.86z"/>
		<path d="M28.91,83.86c0.19-0.23,0.46-0.35,0.83-0.35c0.38,0,0.66,0.12,0.84,0.35c0.19,0.23,0.28,0.54,0.28,0.94v2.6
			c0,0.39-0.09,0.7-0.28,0.94c-0.19,0.23-0.47,0.35-0.84,0.35c-0.37,0-0.64-0.12-0.83-0.35c-0.19-0.23-0.28-0.54-0.28-0.93v-2.6
			C28.63,84.4,28.73,84.09,28.91,83.86z M29.16,88.11c0.13,0.17,0.32,0.26,0.59,0.26c0.27,0,0.47-0.09,0.6-0.26
			c0.13-0.17,0.19-0.4,0.19-0.7v-2.64c0-0.29-0.06-0.53-0.19-0.7c-0.13-0.17-0.33-0.26-0.6-0.26c-0.27,0-0.46,0.09-0.59,0.26
			c-0.13,0.17-0.19,0.4-0.19,0.7v2.64C28.97,87.7,29.03,87.94,29.16,88.11z"/>
		<path d="M33.61,88.62l-1.07-4.49v4.49h-0.3v-5.07h0.48l1.07,4.49l1.06-4.49h0.48v5.07H35v-4.51l-1.06,4.5H33.61z"/>
		<path d="M37.05,88.63h-0.33v-5.07h0.33V88.63z"/>
		<path d="M40.32,83.85c0.18,0.23,0.26,0.54,0.26,0.92v0.11h-0.32v-0.13c0-0.29-0.06-0.52-0.18-0.69c-0.12-0.17-0.31-0.25-0.57-0.25
			s-0.45,0.09-0.57,0.25c-0.12,0.17-0.18,0.4-0.18,0.68c0,0.18,0.04,0.35,0.12,0.49c0.08,0.14,0.17,0.27,0.29,0.37
			c0.11,0.1,0.27,0.23,0.47,0.37c0.21,0.15,0.38,0.28,0.51,0.4s0.24,0.26,0.33,0.43c0.09,0.17,0.13,0.37,0.13,0.59
			c0,0.39-0.09,0.69-0.27,0.92c-0.18,0.23-0.45,0.34-0.83,0.34c-0.37,0-0.65-0.12-0.83-0.34c-0.18-0.23-0.27-0.54-0.27-0.92v-0.26
			h0.32v0.28c0,0.29,0.06,0.52,0.19,0.69c0.12,0.17,0.32,0.25,0.58,0.25c0.27,0,0.46-0.08,0.58-0.25c0.12-0.17,0.18-0.39,0.18-0.69
			c0-0.18-0.04-0.35-0.12-0.49c-0.08-0.14-0.17-0.26-0.29-0.37c-0.11-0.1-0.27-0.23-0.46-0.37c-0.21-0.15-0.38-0.28-0.51-0.4
			c-0.13-0.12-0.24-0.26-0.33-0.43c-0.09-0.17-0.13-0.37-0.13-0.6c0-0.39,0.09-0.7,0.27-0.92c0.18-0.22,0.45-0.34,0.81-0.34
			C39.87,83.51,40.15,83.62,40.32,83.85z"/>
		<path d="M42.18,88.63h-0.3l1.11-5.08h0.49l1.13,5.08h-0.33l-0.25-1.12h-1.58L42.18,88.63z M43.96,87.21l-0.75-3.28l-0.73,3.28
			H43.96z"/>
		<path d="M46.51,83.86h-1.03v-0.3h2.4v0.3h-1.04v4.77h-0.33V83.86z"/>
		<path d="M49.44,88.63h-0.33v-5.07h0.33V88.63z"/>
		<path d="M51.1,83.86c0.19-0.23,0.46-0.35,0.83-0.35c0.38,0,0.66,0.12,0.84,0.35c0.19,0.23,0.28,0.54,0.28,0.94v2.6
			c0,0.39-0.09,0.7-0.28,0.94c-0.19,0.23-0.47,0.35-0.84,0.35c-0.37,0-0.64-0.12-0.83-0.35c-0.19-0.23-0.28-0.54-0.28-0.93v-2.6
			C50.82,84.4,50.91,84.09,51.1,83.86z M51.34,88.11c0.13,0.17,0.32,0.26,0.59,0.26c0.27,0,0.47-0.09,0.6-0.26
			c0.13-0.17,0.19-0.4,0.19-0.7v-2.64c0-0.29-0.06-0.53-0.19-0.7c-0.13-0.17-0.33-0.26-0.6-0.26c-0.27,0-0.46,0.09-0.59,0.26
			c-0.13,0.17-0.19,0.4-0.19,0.7v2.64C51.15,87.7,51.22,87.94,51.34,88.11z"/>
		<path d="M54.42,88.63v-5.07h0.43l1.52,4.28v-4.28h0.3v5.07h-0.37l-1.59-4.52v4.52H54.42z"/>
		<path d="M61.89,83.85c0.18,0.23,0.26,0.54,0.26,0.92v0.11h-0.32v-0.13c0-0.29-0.06-0.52-0.18-0.69c-0.12-0.17-0.31-0.25-0.57-0.25
			s-0.45,0.09-0.57,0.25c-0.12,0.17-0.18,0.4-0.18,0.68c0,0.18,0.04,0.35,0.12,0.49c0.08,0.14,0.17,0.27,0.29,0.37
			c0.11,0.1,0.27,0.23,0.47,0.37c0.21,0.15,0.38,0.28,0.51,0.4c0.13,0.12,0.24,0.26,0.33,0.43c0.09,0.17,0.13,0.37,0.13,0.59
			c0,0.39-0.09,0.69-0.27,0.92c-0.18,0.23-0.45,0.34-0.83,0.34c-0.37,0-0.65-0.12-0.83-0.34c-0.18-0.23-0.27-0.54-0.27-0.92v-0.26
			h0.32v0.28c0,0.29,0.06,0.52,0.19,0.69c0.12,0.17,0.32,0.25,0.58,0.25c0.27,0,0.46-0.08,0.58-0.25c0.12-0.17,0.18-0.39,0.18-0.69
			c0-0.18-0.04-0.35-0.12-0.49c-0.08-0.14-0.17-0.26-0.29-0.37c-0.11-0.1-0.27-0.23-0.46-0.37c-0.21-0.15-0.38-0.28-0.51-0.4
			c-0.13-0.12-0.24-0.26-0.33-0.43C60.04,85.2,60,85,60,84.77c0-0.39,0.09-0.7,0.27-0.92c0.18-0.22,0.45-0.34,0.81-0.34
			C61.44,83.51,61.72,83.62,61.89,83.85z"/>
		<path d="M64.02,88.1c0.12,0.17,0.31,0.26,0.58,0.26c0.27,0,0.46-0.09,0.58-0.26c0.12-0.17,0.18-0.41,0.18-0.7v-3.85h0.31v3.83
			c0,0.39-0.09,0.7-0.26,0.93c-0.18,0.23-0.45,0.35-0.82,0.35c-0.37,0-0.64-0.12-0.82-0.35c-0.18-0.23-0.27-0.54-0.27-0.93v-3.83
			h0.33v3.85C63.84,87.7,63.9,87.93,64.02,88.1z"/>
		<path d="M69.21,84.7v0.44c0,0.3-0.06,0.54-0.18,0.71c-0.12,0.17-0.3,0.29-0.55,0.34c0.49,0.11,0.73,0.45,0.73,1.04v0.79
			c0,0.28,0.04,0.48,0.12,0.61h-0.35c-0.04-0.07-0.07-0.16-0.09-0.25c-0.01-0.09-0.02-0.21-0.02-0.36v-0.8
			c0-0.32-0.08-0.54-0.24-0.67c-0.16-0.13-0.4-0.19-0.71-0.19H67.4v2.27h-0.33v-5.07h1.06C68.85,83.55,69.21,83.93,69.21,84.7z
			 M68.64,85.87c0.15-0.12,0.23-0.34,0.23-0.67v-0.48c0-0.29-0.06-0.5-0.18-0.65c-0.12-0.15-0.31-0.22-0.58-0.22H67.4v2.2h0.54
			C68.25,86.05,68.49,85.99,68.64,85.87z"/>
		<path d="M73.99,88.62l-1.07-4.49v4.49h-0.3v-5.07h0.48l1.07,4.49l1.06-4.49h0.48v5.07h-0.32v-4.51l-1.06,4.5H73.99z"/>
		<path d="M78.82,86.2h-1.38v2.12h1.67v0.3h-2v-5.07h2v0.3h-1.67v2.04h1.38V86.2z"/>
		<path d="M82.34,83.85c0.18,0.23,0.26,0.54,0.26,0.92v0.11h-0.32v-0.13c0-0.29-0.06-0.52-0.18-0.69c-0.12-0.17-0.31-0.25-0.57-0.25
			c-0.26,0-0.45,0.09-0.57,0.25c-0.12,0.17-0.18,0.4-0.18,0.68c0,0.18,0.04,0.35,0.12,0.49c0.08,0.14,0.17,0.27,0.29,0.37
			c0.11,0.1,0.27,0.23,0.47,0.37c0.21,0.15,0.38,0.28,0.51,0.4c0.13,0.12,0.24,0.26,0.33,0.43c0.09,0.17,0.13,0.37,0.13,0.59
			c0,0.39-0.09,0.69-0.27,0.92c-0.18,0.23-0.45,0.34-0.83,0.34c-0.37,0-0.65-0.12-0.83-0.34c-0.18-0.23-0.27-0.54-0.27-0.92v-0.26
			h0.32v0.28c0,0.29,0.06,0.52,0.18,0.69c0.12,0.17,0.32,0.25,0.58,0.25c0.27,0,0.46-0.08,0.58-0.25c0.12-0.17,0.18-0.39,0.18-0.69
			c0-0.18-0.04-0.35-0.12-0.49c-0.08-0.14-0.17-0.26-0.29-0.37c-0.11-0.1-0.27-0.23-0.46-0.37c-0.21-0.15-0.38-0.28-0.51-0.4
			c-0.13-0.12-0.24-0.26-0.33-0.43c-0.09-0.17-0.13-0.37-0.13-0.6c0-0.39,0.09-0.7,0.27-0.92c0.18-0.22,0.45-0.34,0.81-0.34
			C81.89,83.51,82.16,83.62,82.34,83.85z"/>
		<path d="M84.47,88.1c0.12,0.17,0.31,0.26,0.58,0.26c0.27,0,0.46-0.09,0.58-0.26c0.12-0.17,0.18-0.41,0.18-0.7v-3.85h0.31v3.83
			c0,0.39-0.09,0.7-0.26,0.93c-0.18,0.23-0.45,0.35-0.82,0.35c-0.37,0-0.64-0.12-0.82-0.35c-0.18-0.23-0.27-0.54-0.27-0.93v-3.83
			h0.33v3.85C84.29,87.7,84.35,87.93,84.47,88.1z"/>
		<path d="M89.66,84.7v0.44c0,0.3-0.06,0.54-0.18,0.71c-0.12,0.17-0.3,0.29-0.55,0.34c0.49,0.11,0.73,0.45,0.73,1.04v0.79
			c0,0.28,0.04,0.48,0.12,0.61h-0.35c-0.04-0.07-0.07-0.16-0.09-0.25c-0.01-0.09-0.02-0.21-0.02-0.36v-0.8
			c0-0.32-0.08-0.54-0.24-0.67c-0.16-0.13-0.4-0.19-0.71-0.19h-0.53v2.27h-0.33v-5.07h1.06C89.29,83.55,89.66,83.93,89.66,84.7z
			 M89.09,85.87c0.15-0.12,0.23-0.34,0.23-0.67v-0.48c0-0.29-0.06-0.5-0.18-0.65c-0.12-0.15-0.31-0.22-0.58-0.22h-0.72v2.2h0.54
			C88.7,86.05,88.94,85.99,89.09,85.87z"/>
		<path d="M92.85,86.2h-1.38v2.12h1.67v0.3h-2v-5.07h2v0.3h-1.67v2.04h1.38V86.2z"/>
	</g>
	<g>
		<path d="M66.4,195.97c-2.26,1.08-4.43,2.49-6.81,3.19c-14.44,4.27-28.33-7.88-25.78-22.84c2.31-13.53,5.27-26.96,7.94-40.43
			c0.26-1.33,0.58-2.65,0.84-3.98c1.56-7.94-3.28-13.91-11.4-14c-5.07-0.06-10.15-0.02-15.22-0.01c-5.12,0-7.09-1.95-7.09-7.05
			c0-5.07-0.01-10.15-0.01-15.22c0-0.52,0.04-1.04,0.05-1.4c29.97,0,59.56,0.01,89.96,0.01c-0.09,2.23,0.03,14.23-0.03,17.71
			c-0.07,3.65-2.21,5.86-5.85,5.92c-5.43,0.09-10.85,0.02-16.28,0.05c-8.31,0.05-13.19,6.06-11.51,14.2
			c2.46,11.89,4.96,23.78,7.39,35.68c0.62,3.06,1.12,6.15,1.51,9.25c0.67,5.25-0.54,10.06-3.63,14.39
			c-0.16,0.23-0.23,0.52-0.34,0.79C68.91,193.46,67.65,194.72,66.4,195.97z M48.25,173.51c-3.04,3.03-3.08,8.11-0.1,11.18
			c3.02,3.1,8.23,3.16,11.34,0.14c3.11-3.03,3.13-8.23,0.04-11.31C56.37,170.37,51.41,170.37,48.25,173.51z"/>
	</g>
	<g>
		<polygon points="84.37,19.45 78.82,25.39 55.47,6.79 33.92,25.79 27.3,20.99 8.92,30.76 8.92,46.98 27.93,36.65 34.55,41.44 
			56.1,22.44 79.45,41.03 85,35.11 98.94,44.73 98.94,29.79 		"/>
		<polygon points="85.3,37.81 79.54,43.33 56.15,24.57 34.54,43.4 27.75,38.16 9.03,48.93 8.92,56.55 27.93,46.22 34.55,51.01 
			56.1,32.01 79.45,50.6 85,44.68 98.94,54.29 98.94,46.65 		"/>
		<polygon points="85.39,47.39 79.78,54.11 56.13,34.41 34.9,53.12 27.9,48.24 8.95,58.3 8.92,63.04 28.74,51.97 35.95,57.2 
			56.38,39.38 79.78,58.01 84.72,52.74 98.94,61.97 98.94,56.56 		"/>
	</g>
</g>
<g id="logo_blanc">
</g>
<g id="variation_logo">
</g>
<g id="admin">
</g>
<g id="recto_carte_visite">
</g>
<g id="verso_carte_visite">
</g>
<g id="Story_une">
</g>
<g id="RS">
</g>
</svg>
