<?xml version="1.0" encoding="utf-8"?>
<!-- Generator: Adobe Illustrator 27.0.1, SVG Export Plug-In . SVG Version: 6.00 Build 0)  -->
<svg version="1.1" xmlns="http://www.w3.org/2000/svg" xmlns:xlink="http://www.w3.org/1999/xlink" x="0px" y="0px"
	 viewBox="0 0 107.8 198.43" style="enable-background:new 0 0 107.8 198.43;" xml:space="preserve">
<style type="text/css">
	.st0{fill:#FFFFFF;stroke:#000000;stroke-miterlimit:10;}
	.st1{fill:#EBF6FA;}
	.st2{fill:#B4D8DC;}
	.st3{fill:#132D46;}
	.st4{fill:#FFFFFF;}
	.st5{fill:#F1EBF6;}
	.st6{fill:#C1B3D9;}
	.st7{fill:#321C45;}
</style>
<g id="Calque_13">
</g>
<g id="essais">
</g>
<g id="logo_complet">
</g>
<g id="logo_nom">
</g>
<g id="petit_logo">
</g>
<g id="logo_noir">
</g>
<g id="logo_blanc">
	<g>
		<path class="st4" d="M19.67,64.88l2.99,15.69h-2.04l-0.74-3.62h-3.71l-0.74,3.62h-0.76l2.95-15.69H19.67z M16.29,76.51h3.38
			l-1.61-9.87L16.29,76.51z"/>
		<path class="st4" d="M28.53,64.88c0.45,0,0.86,0.11,1.23,0.32c0.37,0.22,0.69,0.51,0.96,0.89c0.27,0.38,0.48,0.82,0.63,1.32
			c0.15,0.51,0.23,1.04,0.23,1.61c0,0.9-0.18,1.69-0.53,2.37c-0.35,0.68-0.9,1.13-1.65,1.35c1.47,0.25,2.21,1.3,2.21,3.16v3.04
			c0,1,0.38,1.61,1.15,1.82c-0.19,0.05-0.4,0.07-0.63,0.07c-0.9,0-1.55-0.17-1.96-0.52c-0.41-0.35-0.62-0.8-0.62-1.37v-3.84
			c0-0.26-0.05-0.52-0.15-0.77c-0.1-0.25-0.23-0.49-0.4-0.7c-0.17-0.21-0.36-0.38-0.57-0.51c-0.21-0.13-0.42-0.19-0.63-0.19h-2.15
			v7.62H23.6V64.88H28.53z M25.66,72.5h2.11c0.28,0,0.53-0.08,0.75-0.24c0.22-0.16,0.4-0.38,0.54-0.67
			c0.14-0.28,0.25-0.61,0.32-0.98c0.07-0.37,0.11-0.77,0.11-1.2c0-0.59-0.07-1.14-0.21-1.64c-0.14-0.5-0.34-0.93-0.59-1.29
			c-0.25-0.36-0.56-0.65-0.92-0.85c-0.36-0.2-0.76-0.31-1.21-0.31h-0.91V72.5z"/>
		<path class="st4" d="M40.96,64.88v0.83c-0.17-0.26-0.51-0.39-1-0.39h-1.8v15.25H36.1V65.32h-1.95c-0.06,0-0.14,0.01-0.24,0.04
			c-0.1,0.03-0.2,0.06-0.3,0.09c-0.1,0.04-0.19,0.08-0.26,0.12c-0.07,0.04-0.12,0.09-0.13,0.14v-0.83H40.96z"/>
		<path class="st4" d="M49.62,64.88v0.45h-5.81v7.14h3.36v0.45h-3.36v7.21h5.81v0.45h-7.86V64.88H49.62z"/>
		<path class="st4" d="M58.13,64.88v0.45h-5.81v7.36h4.1v0.45h-4.1v7.44h-2.06V64.88H58.13z"/>
		<path class="st4" d="M63.73,64.88l2.99,15.69h-2.04l-0.74-3.62h-3.71l-0.74,3.62h-0.76l2.95-15.69H63.73z M60.36,76.51h3.38
			l-1.61-9.87L60.36,76.51z"/>
		<path class="st4" d="M76.12,67.38c-0.12-0.3-0.29-0.57-0.51-0.83c-0.22-0.25-0.46-0.48-0.74-0.67c-0.28-0.19-0.57-0.34-0.88-0.45
			c-0.31-0.11-0.62-0.17-0.93-0.17c-0.54,0-1.03,0.18-1.46,0.54c-0.43,0.36-0.79,0.86-1.08,1.51c-0.29,0.65-0.51,1.43-0.66,2.34
			c-0.15,0.91-0.22,1.92-0.22,3.04c0,1.09,0.07,2.1,0.22,3.03c0.15,0.93,0.36,1.73,0.64,2.41c0.28,0.68,0.61,1.22,1.01,1.61
			c0.4,0.39,0.85,0.58,1.35,0.58c0.28,0,0.57-0.06,0.86-0.18c0.29-0.12,0.57-0.28,0.83-0.47c0.27-0.2,0.52-0.42,0.76-0.68
			c0.24-0.25,0.45-0.52,0.64-0.79h0.8c-0.48,0.94-1.12,1.62-1.9,2.04c-0.79,0.42-1.68,0.63-2.68,0.63c-0.82,0-1.52-0.15-2.11-0.45
			c-0.59-0.3-1.08-0.79-1.46-1.46s-0.66-1.53-0.83-2.59c-0.18-1.06-0.27-2.34-0.27-3.85c0-1.27,0.11-2.4,0.32-3.37
			c0.21-0.97,0.55-1.79,1.02-2.45c0.47-0.66,1.08-1.16,1.82-1.5c0.74-0.34,1.64-0.51,2.71-0.51c0.79,0,1.48,0.22,2.08,0.65
			c0.59,0.43,1.09,1.04,1.48,1.82L76.12,67.38z"/>
		<path class="st4" d="M85.19,64.88v0.83c-0.17-0.26-0.51-0.39-1-0.39h-1.8v15.25h-2.06V65.32h-1.95c-0.06,0-0.14,0.01-0.24,0.04
			c-0.1,0.03-0.2,0.06-0.3,0.09c-0.1,0.04-0.19,0.08-0.26,0.12c-0.07,0.04-0.12,0.09-0.13,0.14v-0.83H85.19z"/>
		<path class="st4" d="M92.31,66.9c-0.28-0.45-0.59-0.8-0.92-1.07c-0.33-0.27-0.68-0.4-1.05-0.4c-0.38,0-0.73,0.07-1.03,0.21
			c-0.3,0.14-0.56,0.33-0.76,0.57c-0.2,0.24-0.36,0.53-0.47,0.85c-0.11,0.33-0.17,0.67-0.17,1.03c0,0.57,0.12,1.09,0.35,1.55
			c0.23,0.46,0.54,0.9,0.91,1.32c0.37,0.41,0.79,0.82,1.26,1.22c0.47,0.4,0.94,0.83,1.41,1.27c0.47,0.46,0.81,1,1.01,1.63
			c0.2,0.63,0.31,1.25,0.31,1.85c0,1.22-0.37,2.19-1.1,2.88c-0.74,0.7-1.76,1.05-3.07,1.05c-0.78,0-1.45-0.19-2.02-0.58
			c-0.57-0.39-1-0.96-1.28-1.7l0.74-0.46c0.07,0.26,0.19,0.51,0.34,0.75c0.15,0.24,0.34,0.45,0.57,0.64
			c0.22,0.19,0.47,0.33,0.74,0.45c0.27,0.11,0.56,0.17,0.85,0.17c0.28,0,0.56-0.07,0.83-0.21s0.5-0.35,0.7-0.63
			c0.2-0.28,0.36-0.62,0.47-1.03c0.12-0.41,0.18-0.87,0.18-1.39c0-0.52-0.1-1.04-0.31-1.56c-0.2-0.52-0.55-1-1.03-1.43
			c-0.47-0.42-0.92-0.83-1.36-1.22c-0.44-0.39-0.83-0.79-1.17-1.21c-0.34-0.42-0.61-0.87-0.82-1.35c-0.2-0.48-0.31-1.02-0.31-1.61
			c0-0.53,0.08-1.03,0.24-1.49c0.16-0.46,0.41-0.87,0.73-1.21c0.33-0.34,0.74-0.61,1.23-0.81c0.49-0.2,1.08-0.3,1.74-0.3
			c0.68,0,1.24,0.16,1.67,0.47c0.43,0.32,0.83,0.73,1.19,1.25L92.31,66.9z"/>
	</g>
	<g>
		<path class="st4" d="M66.4,187.32c-2.26,1.08-4.43,2.49-6.81,3.19c-14.44,4.27-28.33-7.88-25.78-22.84
			c2.31-13.53,5.27-26.96,7.94-40.43c0.26-1.33,0.58-2.65,0.84-3.98c1.56-7.94-3.28-13.91-11.4-14c-5.07-0.06-10.15-0.02-15.22-0.01
			c-5.12,0-7.09-1.95-7.09-7.05c0-5.07-0.01-10.15-0.01-15.22c0-0.52,0.04-1.04,0.05-1.4c29.97,0,59.56,0.01,89.96,0.01
			c-0.09,2.23,0.03,14.23-0.03,17.71c-0.07,3.65-2.21,5.86-5.85,5.92c-5.43,0.09-10.85,0.02-16.28,0.05
			c-8.31,0.05-13.19,6.06-11.51,14.2c2.46,11.89,4.96,23.78,7.39,35.68c0.62,3.06,1.12,6.15,1.51,9.25
			c0.67,5.25-0.54,10.06-3.63,14.39c-0.16,0.23-0.23,0.52-0.34,0.79C68.91,184.82,67.65,186.07,66.4,187.32z M48.25,164.87
			c-3.04,3.03-3.08,8.11-0.1,11.18c3.02,3.1,8.23,3.16,11.34,0.14c3.11-3.03,3.13-8.23,0.04-11.31
			C56.37,161.72,51.41,161.72,48.25,164.87z"/>
	</g>
	<g>
		<polygon class="st4" points="84.35,19.7 78.8,25.63 55.44,7.03 33.89,26.03 27.28,21.24 8.9,31 8.9,47.23 27.9,36.89 34.52,41.69 
			56.07,22.69 79.43,41.28 84.98,35.35 98.92,44.97 98.92,30.03 		"/>
		<polygon class="st4" points="85.28,38.06 79.51,43.58 56.13,24.82 34.51,43.65 27.73,38.4 9,49.17 8.9,56.79 27.9,46.46 
			34.52,51.26 56.07,32.26 79.43,50.85 84.98,44.92 98.92,54.53 98.92,46.9 		"/>
		<polygon class="st4" points="85.36,47.64 79.75,54.35 56.11,34.65 34.87,53.37 27.88,48.48 8.93,58.54 8.9,63.29 28.71,52.22 
			35.93,57.44 56.36,39.62 79.75,58.26 84.7,52.98 98.92,62.21 98.92,56.8 		"/>
	</g>
</g>
<g id="variation_logo">
</g>
<g id="admin">
</g>
<g id="recto_carte_visite">
</g>
<g id="verso_carte_visite">
</g>
<g id="Story_une">
</g>
<g id="RS">
</g>
</svg>
