<?xml version="1.0" encoding="utf-8"?>
<!-- Generator: Adobe Illustrator 27.0.1, SVG Export Plug-In . SVG Version: 6.00 Build 0)  -->
<svg version="1.1" xmlns="http://www.w3.org/2000/svg" xmlns:xlink="http://www.w3.org/1999/xlink" x="0px" y="0px"
	 viewBox="0 0 101.65 96.67" style="enable-background:new 0 0 101.65 96.67;" xml:space="preserve">
<style type="text/css">
	.st0{fill:#FFFFFF;stroke:#000000;stroke-miterlimit:10;}
	.st1{fill:#EBF6FA;}
	.st2{fill:#B4D8DC;}
	.st3{fill:#132D46;}
	.st4{fill:#FFFFFF;}
	.st5{fill:#F1EBF6;}
	.st6{fill:#C1B3D9;}
	.st7{fill:#321C45;}
</style>
<g id="Calque_13">
</g>
<g id="essais">
</g>
<g id="logo_complet">
</g>
<g id="logo_nom">
</g>
<g id="petit_logo">
</g>
<g id="logo_noir">
	<g>
		<path d="M15.45,64.56l3.09,16.21h-2.11l-0.77-3.74h-3.83l-0.77,3.74h-0.79l3.05-16.21H15.45z M11.96,76.58h3.49l-1.67-10.2
			L11.96,76.58z"/>
		<path d="M24.6,64.56c0.46,0,0.88,0.11,1.27,0.33c0.38,0.22,0.71,0.53,0.99,0.92c0.28,0.39,0.49,0.85,0.65,1.37
			c0.16,0.52,0.24,1.08,0.24,1.67c0,0.93-0.18,1.75-0.55,2.45c-0.37,0.7-0.93,1.17-1.7,1.4c1.52,0.26,2.29,1.34,2.29,3.26v3.15
			c0,1.04,0.4,1.66,1.19,1.88c-0.19,0.05-0.41,0.08-0.65,0.08c-0.93,0-1.6-0.18-2.03-0.54c-0.43-0.36-0.64-0.83-0.64-1.42v-3.97
			c0-0.27-0.05-0.53-0.15-0.8c-0.1-0.26-0.24-0.5-0.41-0.72c-0.17-0.22-0.37-0.39-0.58-0.53c-0.22-0.13-0.43-0.2-0.65-0.2h-2.22
			v7.88h-2.13V64.56H24.6z M21.64,72.44h2.18c0.29,0,0.55-0.08,0.78-0.25c0.22-0.17,0.41-0.4,0.56-0.69
			c0.15-0.29,0.26-0.63,0.34-1.01c0.08-0.38,0.11-0.8,0.11-1.24c0-0.61-0.07-1.18-0.22-1.69c-0.15-0.52-0.35-0.96-0.61-1.34
			c-0.26-0.38-0.58-0.67-0.95-0.88c-0.37-0.21-0.79-0.32-1.25-0.32h-0.94V72.44z"/>
		<path d="M37.45,64.56v0.86c-0.18-0.27-0.52-0.4-1.04-0.4h-1.86v15.75h-2.13V65.02h-2.01c-0.06,0-0.15,0.01-0.25,0.04
			c-0.1,0.03-0.2,0.06-0.31,0.1c-0.1,0.04-0.19,0.08-0.27,0.12c-0.08,0.04-0.12,0.09-0.13,0.14v-0.86H37.45z"/>
		<path d="M46.4,64.56v0.46h-6v7.38h3.47v0.46H40.4v7.46h6v0.46h-8.13V64.56H46.4z"/>
		<path d="M55.2,64.56v0.46h-6v7.61h4.24v0.46H49.2v7.69h-2.13V64.56H55.2z"/>
		<path d="M60.99,64.56l3.09,16.21h-2.11l-0.77-3.74h-3.83l-0.77,3.74h-0.79l3.05-16.21H60.99z M57.5,76.58h3.49l-1.67-10.2
			L57.5,76.58z"/>
		<path d="M73.79,67.15c-0.13-0.31-0.3-0.59-0.53-0.85c-0.22-0.26-0.48-0.49-0.77-0.69c-0.29-0.2-0.59-0.35-0.91-0.47
			c-0.32-0.11-0.64-0.17-0.96-0.17c-0.56,0-1.06,0.19-1.5,0.56c-0.44,0.37-0.81,0.89-1.11,1.56c-0.3,0.67-0.53,1.48-0.68,2.42
			c-0.15,0.94-0.23,1.99-0.23,3.14c0,1.13,0.08,2.17,0.23,3.13c0.15,0.96,0.37,1.79,0.66,2.49c0.29,0.7,0.64,1.26,1.04,1.66
			c0.41,0.4,0.87,0.6,1.4,0.6c0.29,0,0.59-0.06,0.89-0.18c0.3-0.12,0.59-0.28,0.86-0.49s0.54-0.44,0.79-0.7
			c0.25-0.26,0.47-0.53,0.66-0.81h0.82c-0.5,0.97-1.15,1.67-1.96,2.11c-0.81,0.43-1.73,0.65-2.77,0.65c-0.84,0-1.57-0.16-2.18-0.47
			c-0.61-0.31-1.11-0.81-1.5-1.5c-0.39-0.69-0.68-1.58-0.86-2.67c-0.19-1.09-0.28-2.42-0.28-3.98c0-1.32,0.11-2.48,0.33-3.48
			c0.22-1,0.57-1.85,1.05-2.53c0.49-0.68,1.11-1.2,1.88-1.55c0.77-0.35,1.7-0.53,2.8-0.53c0.82,0,1.53,0.22,2.15,0.67
			c0.61,0.45,1.12,1.07,1.53,1.88L73.79,67.15z"/>
		<path d="M83.16,64.56v0.86c-0.18-0.27-0.52-0.4-1.04-0.4h-1.86v15.75h-2.13V65.02h-2.01c-0.06,0-0.15,0.01-0.25,0.04
			c-0.1,0.03-0.21,0.06-0.31,0.1c-0.1,0.04-0.19,0.08-0.27,0.12c-0.08,0.04-0.12,0.09-0.13,0.14v-0.86H83.16z"/>
		<path d="M90.52,66.65c-0.29-0.46-0.61-0.83-0.95-1.1c-0.34-0.27-0.7-0.41-1.08-0.41c-0.4,0-0.75,0.07-1.06,0.22
			c-0.31,0.15-0.58,0.35-0.79,0.59c-0.21,0.25-0.37,0.54-0.49,0.88c-0.12,0.34-0.17,0.69-0.17,1.06c0,0.59,0.12,1.12,0.36,1.6
			c0.24,0.48,0.56,0.93,0.94,1.36c0.38,0.43,0.82,0.85,1.3,1.26c0.49,0.42,0.97,0.85,1.46,1.31c0.49,0.47,0.83,1.04,1.04,1.69
			c0.21,0.65,0.32,1.29,0.32,1.92c0,1.26-0.38,2.26-1.14,2.98c-0.76,0.72-1.82,1.08-3.17,1.08c-0.81,0-1.5-0.2-2.09-0.6
			c-0.59-0.4-1.03-0.99-1.32-1.75l0.77-0.48c0.08,0.27,0.19,0.53,0.35,0.78c0.16,0.25,0.35,0.47,0.58,0.66
			c0.23,0.19,0.49,0.35,0.77,0.46c0.28,0.12,0.57,0.17,0.88,0.17c0.29,0,0.58-0.07,0.85-0.22c0.27-0.15,0.51-0.36,0.72-0.65
			c0.2-0.29,0.37-0.64,0.49-1.06c0.12-0.42,0.18-0.9,0.18-1.44c0-0.54-0.11-1.07-0.32-1.61c-0.21-0.54-0.57-1.03-1.06-1.48
			c-0.49-0.43-0.96-0.85-1.41-1.26c-0.45-0.4-0.86-0.82-1.21-1.26c-0.35-0.43-0.63-0.9-0.84-1.4c-0.21-0.5-0.32-1.05-0.32-1.67
			c0-0.55,0.08-1.06,0.25-1.54c0.17-0.48,0.42-0.89,0.76-1.25c0.34-0.35,0.76-0.63,1.27-0.83c0.51-0.2,1.11-0.31,1.8-0.31
			c0.7,0,1.28,0.16,1.73,0.49c0.45,0.33,0.86,0.76,1.23,1.29L90.52,66.65z"/>
	</g>
	<g>
		<path d="M12.23,83.78c0.18,0.24,0.28,0.56,0.28,0.96v0.43h-0.33v-0.46c0-0.3-0.06-0.54-0.19-0.72c-0.13-0.18-0.33-0.27-0.6-0.27
			c-0.27,0-0.48,0.09-0.6,0.27s-0.19,0.42-0.19,0.72v2.72c0,0.3,0.06,0.54,0.19,0.71c0.13,0.18,0.33,0.27,0.6,0.27
			c0.27,0,0.47-0.09,0.6-0.27c0.13-0.18,0.19-0.42,0.19-0.71v-0.62h0.33v0.6c0,0.4-0.09,0.72-0.28,0.96
			c-0.18,0.24-0.47,0.36-0.85,0.36c-0.38,0-0.67-0.12-0.85-0.36c-0.18-0.24-0.28-0.56-0.28-0.96v-2.68c0-0.4,0.09-0.72,0.28-0.96
			c0.18-0.24,0.47-0.36,0.85-0.36C11.76,83.42,12.05,83.54,12.23,83.78z"/>
		<path d="M14.43,88.16c0.12,0.18,0.32,0.27,0.6,0.27c0.27,0,0.47-0.09,0.6-0.27c0.12-0.18,0.19-0.42,0.19-0.73v-3.97h0.32v3.96
			c0,0.4-0.09,0.72-0.27,0.96c-0.18,0.24-0.46,0.36-0.84,0.36c-0.38,0-0.66-0.12-0.85-0.36c-0.18-0.24-0.28-0.56-0.28-0.96v-3.96
			h0.34v3.97C14.25,87.74,14.31,87.99,14.43,88.16z"/>
		<path d="M19.51,83.78c0.18,0.24,0.27,0.55,0.27,0.95v0.11h-0.33v-0.13c0-0.3-0.06-0.54-0.19-0.71c-0.12-0.17-0.32-0.26-0.59-0.26
			c-0.27,0-0.47,0.09-0.59,0.26c-0.12,0.17-0.19,0.41-0.19,0.7c0,0.19,0.04,0.36,0.12,0.51c0.08,0.15,0.18,0.27,0.3,0.38
			c0.12,0.11,0.28,0.24,0.48,0.39c0.21,0.15,0.39,0.29,0.52,0.41c0.13,0.12,0.25,0.27,0.34,0.44c0.09,0.17,0.13,0.38,0.13,0.61
			c0,0.4-0.09,0.72-0.28,0.95c-0.18,0.24-0.47,0.36-0.85,0.36c-0.38,0-0.67-0.12-0.85-0.36c-0.18-0.24-0.28-0.55-0.28-0.95v-0.27
			h0.33v0.29c0,0.3,0.06,0.54,0.19,0.71c0.13,0.17,0.33,0.26,0.6,0.26c0.27,0,0.47-0.09,0.6-0.26c0.13-0.17,0.19-0.41,0.19-0.71
			c0-0.19-0.04-0.36-0.12-0.5c-0.08-0.14-0.18-0.27-0.3-0.38c-0.12-0.11-0.28-0.23-0.47-0.38c-0.21-0.15-0.39-0.29-0.52-0.42
			c-0.13-0.12-0.25-0.27-0.34-0.45c-0.09-0.18-0.14-0.38-0.14-0.62c0-0.4,0.09-0.72,0.28-0.95c0.18-0.23,0.46-0.35,0.84-0.35
			C19.05,83.42,19.33,83.54,19.51,83.78z"/>
		<path d="M22.07,83.78h-1.06v-0.31h2.48v0.31h-1.07v4.92h-0.34V83.78z"/>
		<path d="M25.03,83.78c0.19-0.24,0.48-0.36,0.86-0.36c0.39,0,0.68,0.12,0.87,0.36c0.19,0.24,0.29,0.56,0.29,0.97v2.68
			c0,0.4-0.1,0.73-0.29,0.97c-0.19,0.24-0.48,0.36-0.87,0.36c-0.38,0-0.67-0.12-0.86-0.36c-0.19-0.24-0.29-0.56-0.29-0.96v-2.68
			C24.74,84.35,24.83,84.02,25.03,83.78z M25.28,88.17c0.13,0.18,0.33,0.27,0.61,0.27c0.28,0,0.49-0.09,0.62-0.27
			c0.13-0.18,0.2-0.42,0.2-0.72v-2.72c0-0.3-0.07-0.54-0.2-0.72c-0.13-0.18-0.34-0.27-0.62-0.27c-0.27,0-0.48,0.09-0.61,0.27
			c-0.13,0.18-0.19,0.42-0.19,0.72v2.72C25.08,87.75,25.15,87.99,25.28,88.17z"/>
		<path d="M29.87,88.7l-1.11-4.63v4.64h-0.31v-5.24h0.49l1.1,4.63l1.09-4.63h0.49v5.24h-0.33v-4.65l-1.09,4.65H29.87z"/>
		<path d="M33.43,88.7h-0.34v-5.24h0.34V88.7z"/>
		<path d="M36.8,83.78c0.18,0.24,0.27,0.55,0.27,0.95v0.11h-0.33v-0.13c0-0.3-0.06-0.54-0.19-0.71c-0.12-0.17-0.32-0.26-0.59-0.26
			c-0.27,0-0.47,0.09-0.59,0.26c-0.12,0.17-0.19,0.41-0.19,0.7c0,0.19,0.04,0.36,0.12,0.51c0.08,0.15,0.18,0.27,0.3,0.38
			c0.12,0.11,0.28,0.24,0.48,0.39c0.21,0.15,0.39,0.29,0.52,0.41c0.13,0.12,0.25,0.27,0.34,0.44c0.09,0.17,0.13,0.38,0.13,0.61
			c0,0.4-0.09,0.72-0.28,0.95c-0.18,0.24-0.47,0.36-0.85,0.36c-0.38,0-0.67-0.12-0.85-0.36c-0.18-0.24-0.28-0.55-0.28-0.95v-0.27
			h0.33v0.29c0,0.3,0.06,0.54,0.19,0.71c0.13,0.17,0.33,0.26,0.6,0.26c0.27,0,0.47-0.09,0.6-0.26c0.13-0.17,0.19-0.41,0.19-0.71
			c0-0.19-0.04-0.36-0.12-0.5s-0.18-0.27-0.3-0.38c-0.12-0.11-0.28-0.23-0.47-0.38c-0.21-0.15-0.39-0.29-0.52-0.42
			c-0.13-0.12-0.25-0.27-0.34-0.45c-0.09-0.18-0.14-0.38-0.14-0.62c0-0.4,0.09-0.72,0.28-0.95c0.18-0.23,0.46-0.35,0.84-0.35
			C36.34,83.42,36.62,83.54,36.8,83.78z"/>
		<path d="M38.72,88.7h-0.31l1.15-5.25h0.5l1.17,5.25h-0.34l-0.26-1.16h-1.63L38.72,88.7z M40.56,87.24l-0.77-3.39l-0.76,3.39H40.56
			z"/>
		<path d="M43.19,83.78h-1.06v-0.31h2.48v0.31h-1.07v4.92h-0.34V83.78z"/>
		<path d="M46.22,88.7h-0.34v-5.24h0.34V88.7z"/>
		<path d="M47.93,83.78c0.19-0.24,0.48-0.36,0.86-0.36c0.39,0,0.68,0.12,0.87,0.36c0.19,0.24,0.29,0.56,0.29,0.97v2.68
			c0,0.4-0.1,0.73-0.29,0.97c-0.19,0.24-0.48,0.36-0.87,0.36c-0.38,0-0.67-0.12-0.86-0.36c-0.19-0.24-0.29-0.56-0.29-0.96v-2.68
			C47.64,84.35,47.74,84.02,47.93,83.78z M48.18,88.17c0.13,0.18,0.33,0.27,0.61,0.27c0.28,0,0.49-0.09,0.62-0.27
			c0.13-0.18,0.2-0.42,0.2-0.72v-2.72c0-0.3-0.07-0.54-0.2-0.72c-0.13-0.18-0.34-0.27-0.62-0.27c-0.27,0-0.48,0.09-0.61,0.27
			c-0.13,0.18-0.19,0.42-0.19,0.72v2.72C47.99,87.75,48.05,87.99,48.18,88.17z"/>
		<path d="M51.36,88.7v-5.24h0.45l1.57,4.42v-4.42h0.31v5.24h-0.38l-1.64-4.67v4.67H51.36z"/>
		<path d="M59.08,83.78c0.18,0.24,0.27,0.55,0.27,0.95v0.11h-0.33v-0.13c0-0.3-0.06-0.54-0.19-0.71c-0.12-0.17-0.32-0.26-0.59-0.26
			s-0.47,0.09-0.59,0.26c-0.12,0.17-0.19,0.41-0.19,0.7c0,0.19,0.04,0.36,0.12,0.51c0.08,0.15,0.18,0.27,0.3,0.38
			c0.12,0.11,0.28,0.24,0.48,0.39c0.21,0.15,0.39,0.29,0.52,0.41c0.13,0.12,0.25,0.27,0.34,0.44c0.09,0.17,0.13,0.38,0.13,0.61
			c0,0.4-0.09,0.72-0.28,0.95c-0.18,0.24-0.47,0.36-0.85,0.36c-0.38,0-0.67-0.12-0.85-0.36c-0.18-0.24-0.28-0.55-0.28-0.95v-0.27
			h0.33v0.29c0,0.3,0.06,0.54,0.19,0.71c0.13,0.17,0.33,0.26,0.6,0.26c0.27,0,0.47-0.09,0.6-0.26c0.13-0.17,0.19-0.41,0.19-0.71
			c0-0.19-0.04-0.36-0.12-0.5s-0.18-0.27-0.3-0.38c-0.12-0.11-0.28-0.23-0.47-0.38c-0.21-0.15-0.39-0.29-0.52-0.42
			c-0.13-0.12-0.25-0.27-0.34-0.45c-0.09-0.18-0.14-0.38-0.14-0.62c0-0.4,0.09-0.72,0.28-0.95c0.18-0.23,0.46-0.35,0.84-0.35
			C58.61,83.42,58.89,83.54,59.08,83.78z"/>
		<path d="M61.27,88.16c0.12,0.18,0.32,0.27,0.6,0.27c0.27,0,0.47-0.09,0.6-0.27c0.12-0.18,0.19-0.42,0.19-0.73v-3.97h0.32v3.96
			c0,0.4-0.09,0.72-0.27,0.96c-0.18,0.24-0.46,0.36-0.84,0.36c-0.38,0-0.66-0.12-0.85-0.36c-0.18-0.24-0.28-0.56-0.28-0.96v-3.96
			h0.34v3.97C61.08,87.74,61.15,87.99,61.27,88.16z"/>
		<path d="M66.63,84.65v0.46c0,0.31-0.06,0.55-0.18,0.73c-0.12,0.18-0.31,0.3-0.57,0.36c0.5,0.11,0.76,0.47,0.76,1.07v0.82
			c0,0.29,0.04,0.5,0.13,0.63H66.4c-0.04-0.07-0.07-0.16-0.09-0.26c-0.01-0.1-0.02-0.22-0.02-0.37v-0.82c0-0.33-0.08-0.56-0.25-0.69
			c-0.16-0.13-0.41-0.2-0.73-0.2h-0.55v2.34h-0.34v-5.24h1.09C66.26,83.46,66.63,83.86,66.63,84.65z M66.05,85.86
			c0.16-0.12,0.24-0.35,0.24-0.69v-0.49c0-0.29-0.06-0.52-0.19-0.67c-0.12-0.15-0.32-0.23-0.6-0.23h-0.74v2.27h0.55
			C65.64,86.05,65.89,85.98,66.05,85.86z"/>
		<path d="M71.57,88.7l-1.11-4.63v4.64h-0.31v-5.24h0.49l1.1,4.63l1.09-4.63h0.49v5.24h-0.33v-4.65l-1.09,4.65H71.57z"/>
		<path d="M76.55,86.2h-1.43v2.19h1.72v0.31h-2.07v-5.24h2.07v0.31h-1.72v2.11h1.43V86.2z"/>
		<path d="M80.19,83.78c0.18,0.24,0.27,0.55,0.27,0.95v0.11h-0.33v-0.13c0-0.3-0.06-0.54-0.19-0.71c-0.12-0.17-0.32-0.26-0.59-0.26
			c-0.27,0-0.47,0.09-0.59,0.26c-0.12,0.17-0.19,0.41-0.19,0.7c0,0.19,0.04,0.36,0.12,0.51c0.08,0.15,0.18,0.27,0.3,0.38
			c0.12,0.11,0.28,0.24,0.48,0.39c0.21,0.15,0.39,0.29,0.52,0.41c0.13,0.12,0.25,0.27,0.34,0.44c0.09,0.17,0.13,0.38,0.13,0.61
			c0,0.4-0.09,0.72-0.28,0.95c-0.18,0.24-0.47,0.36-0.85,0.36c-0.38,0-0.67-0.12-0.85-0.36c-0.18-0.24-0.28-0.55-0.28-0.95v-0.27
			h0.33v0.29c0,0.3,0.06,0.54,0.19,0.71c0.13,0.17,0.33,0.26,0.6,0.26c0.27,0,0.48-0.09,0.6-0.26c0.13-0.17,0.19-0.41,0.19-0.71
			c0-0.19-0.04-0.36-0.12-0.5c-0.08-0.14-0.18-0.27-0.3-0.38c-0.12-0.11-0.28-0.23-0.48-0.38c-0.21-0.15-0.39-0.29-0.52-0.42
			s-0.25-0.27-0.34-0.45s-0.14-0.38-0.14-0.62c0-0.4,0.09-0.72,0.28-0.95c0.18-0.23,0.46-0.35,0.84-0.35
			C79.72,83.42,80,83.54,80.19,83.78z"/>
		<path d="M82.38,88.16c0.12,0.18,0.32,0.27,0.6,0.27s0.47-0.09,0.6-0.27c0.12-0.18,0.19-0.42,0.19-0.73v-3.97h0.32v3.96
			c0,0.4-0.09,0.72-0.27,0.96c-0.18,0.24-0.46,0.36-0.84,0.36c-0.38,0-0.66-0.12-0.85-0.36c-0.18-0.24-0.28-0.56-0.28-0.96v-3.96
			h0.34v3.97C82.2,87.74,82.26,87.99,82.38,88.16z"/>
		<path d="M87.74,84.65v0.46c0,0.31-0.06,0.55-0.18,0.73c-0.12,0.18-0.31,0.3-0.57,0.36c0.5,0.11,0.76,0.47,0.76,1.07v0.82
			c0,0.29,0.04,0.5,0.13,0.63h-0.36c-0.04-0.07-0.07-0.16-0.09-0.26c-0.01-0.1-0.02-0.22-0.02-0.37v-0.82
			c0-0.33-0.08-0.56-0.25-0.69c-0.16-0.13-0.41-0.2-0.73-0.2h-0.55v2.34h-0.34v-5.24h1.09C87.37,83.46,87.74,83.86,87.74,84.65z
			 M87.16,85.86c0.16-0.12,0.24-0.35,0.24-0.69v-0.49c0-0.29-0.06-0.52-0.19-0.67c-0.12-0.15-0.32-0.23-0.6-0.23h-0.74v2.27h0.55
			C86.75,86.05,87,85.98,87.16,85.86z"/>
		<path d="M91.03,86.2H89.6v2.19h1.72v0.31h-2.07v-5.24h2.07v0.31H89.6v2.11h1.43V86.2z"/>
	</g>
	<g>
		<polygon points="81.35,18.94 75.8,24.87 52.45,6.27 30.9,25.27 24.28,20.48 5.9,30.24 5.9,46.47 24.91,36.13 31.53,40.93 
			53.08,21.92 76.43,40.52 81.98,34.59 95.92,44.21 95.92,29.27 		"/>
		<polygon points="82.28,37.29 76.52,42.82 53.13,24.06 31.52,42.89 24.73,37.64 6.01,48.41 5.9,56.03 24.91,45.7 31.53,50.49 
			53.08,31.49 76.43,50.09 81.98,44.16 95.92,53.77 95.92,46.13 		"/>
		<polygon points="82.37,46.88 76.76,53.59 53.11,33.89 31.88,52.6 24.88,47.72 5.93,57.78 5.9,62.53 25.72,51.46 32.93,56.68 
			53.36,38.86 76.76,57.5 81.7,52.22 95.92,61.45 95.92,56.04 		"/>
	</g>
</g>
<g id="logo_blanc">
</g>
<g id="variation_logo">
</g>
<g id="admin">
</g>
<g id="recto_carte_visite">
</g>
<g id="verso_carte_visite">
</g>
<g id="Story_une">
</g>
<g id="RS">
</g>
</svg>
