<?xml version="1.0" encoding="utf-8"?>
<!-- Generator: Adobe Illustrator 27.0.1, SVG Export Plug-In . SVG Version: 6.00 Build 0)  -->
<svg version="1.1" xmlns="http://www.w3.org/2000/svg" xmlns:xlink="http://www.w3.org/1999/xlink" x="0px" y="0px"
	 viewBox="0 0 231.42 83.22" style="enable-background:new 0 0 231.42 83.22;" xml:space="preserve">
<style type="text/css">
	.st0{fill:#FFFFFF;stroke:#000000;stroke-miterlimit:10;}
	.st1{fill:#EBF6FA;}
	.st2{fill:#B4D8DC;}
	.st3{fill:#132D46;}
	.st4{fill:#FFFFFF;}
	.st5{fill:#F1EBF6;}
	.st6{fill:#C1B3D9;}
	.st7{fill:#321C45;}
</style>
<g id="Calque_13">
</g>
<g id="essais">
</g>
<g id="logo_complet">
</g>
<g id="logo_nom">
</g>
<g id="petit_logo">
</g>
<g id="logo_noir">
</g>
<g id="logo_blanc">
</g>
<g id="variation_logo">
	<g>
		<path class="st4" d="M61.68,19.01l6.19,32.52h-4.23l-1.54-7.5h-7.69l-1.54,7.5H51.3l6.11-32.52H61.68z M54.68,43.1h7l-3.34-20.45
			L54.68,43.1z"/>
		<path class="st4" d="M80.04,19.01c0.92,0,1.77,0.22,2.54,0.67c0.77,0.45,1.43,1.06,1.98,1.84c0.55,0.78,0.99,1.7,1.31,2.74
			c0.32,1.05,0.48,2.16,0.48,3.34c0,1.87-0.37,3.51-1.1,4.91c-0.73,1.41-1.87,2.34-3.41,2.8c3.06,0.51,4.59,2.69,4.59,6.54v6.31
			c0,2.08,0.79,3.33,2.38,3.77c-0.38,0.1-0.82,0.15-1.31,0.15c-1.86,0-3.21-0.36-4.06-1.08c-0.85-0.72-1.28-1.67-1.28-2.84v-7.96
			c0-0.54-0.1-1.07-0.31-1.6c-0.2-0.52-0.48-1.01-0.83-1.44c-0.35-0.44-0.74-0.79-1.17-1.06c-0.44-0.27-0.87-0.4-1.31-0.4h-4.46
			v15.8h-4.27V19.01H80.04z M74.09,34.8h4.38c0.59,0,1.11-0.17,1.56-0.5c0.45-0.33,0.82-0.79,1.11-1.38
			c0.29-0.59,0.52-1.26,0.67-2.03c0.15-0.77,0.23-1.6,0.23-2.49c0-1.23-0.15-2.36-0.44-3.39c-0.29-1.03-0.71-1.93-1.23-2.68
			c-0.53-0.75-1.16-1.34-1.9-1.76c-0.74-0.42-1.58-0.63-2.5-0.63h-1.88V34.8z"/>
		<path class="st4" d="M105.8,19.01v1.73c-0.36-0.54-1.05-0.81-2.08-0.81H100v31.59h-4.27V19.93H91.7c-0.13,0-0.29,0.03-0.5,0.08
			c-0.21,0.05-0.41,0.12-0.62,0.19s-0.38,0.16-0.54,0.25c-0.15,0.09-0.24,0.19-0.27,0.29v-1.73H105.8z"/>
		<path class="st4" d="M123.75,19.01v0.92h-12.03v14.8h6.96v0.92h-6.96V50.6h12.03v0.92h-16.3V19.01H123.75z"/>
		<path class="st4" d="M141.39,19.01v0.92h-12.03v15.26h8.49v0.92h-8.49v15.41h-4.27V19.01H141.39z"/>
		<path class="st4" d="M153,19.01l6.19,32.52h-4.23l-1.54-7.5h-7.69l-1.54,7.5h-1.58l6.11-32.52H153z M146,43.1h7l-3.34-20.45
			L146,43.1z"/>
		<path class="st4" d="M178.68,24.19c-0.26-0.62-0.61-1.18-1.06-1.71c-0.45-0.53-0.96-0.99-1.54-1.38c-0.58-0.4-1.19-0.71-1.83-0.94
			c-0.64-0.23-1.28-0.35-1.92-0.35c-1.13,0-2.13,0.37-3.02,1.12c-0.88,0.74-1.63,1.79-2.23,3.14c-0.6,1.35-1.06,2.96-1.36,4.85
			c-0.31,1.89-0.46,3.98-0.46,6.29c0,2.26,0.15,4.35,0.46,6.27c0.31,1.92,0.75,3.59,1.33,5c0.58,1.41,1.27,2.52,2.1,3.33
			c0.82,0.81,1.75,1.21,2.81,1.21c0.59,0,1.18-0.12,1.79-0.37c0.6-0.24,1.18-0.57,1.73-0.98c0.55-0.41,1.08-0.88,1.58-1.4
			c0.5-0.53,0.94-1.07,1.33-1.63h1.65c-1,1.95-2.31,3.36-3.94,4.23c-1.63,0.87-3.48,1.31-5.55,1.31c-1.69,0-3.15-0.31-4.38-0.94
			c-1.23-0.63-2.24-1.63-3.02-3.02c-0.78-1.38-1.36-3.17-1.73-5.36c-0.37-2.19-0.56-4.85-0.56-7.98c0-2.64,0.22-4.96,0.65-6.98
			c0.44-2.01,1.14-3.7,2.11-5.07c0.97-1.37,2.23-2.41,3.77-3.11c1.54-0.71,3.41-1.06,5.61-1.06c1.64,0,3.07,0.45,4.3,1.35
			c1.23,0.9,2.25,2.15,3.07,3.77L178.68,24.19z"/>
		<path class="st4" d="M197.47,19.01v1.73c-0.36-0.54-1.05-0.81-2.08-0.81h-3.73v31.59h-4.27V19.93h-4.04
			c-0.13,0-0.29,0.03-0.5,0.08c-0.21,0.05-0.41,0.12-0.62,0.19s-0.38,0.16-0.54,0.25c-0.15,0.09-0.24,0.19-0.27,0.29v-1.73H197.47z"
			/>
		<path class="st4" d="M212.23,23.19c-0.59-0.92-1.22-1.66-1.9-2.21c-0.68-0.55-1.4-0.83-2.17-0.83c-0.79,0-1.51,0.15-2.13,0.44
			c-0.63,0.29-1.15,0.69-1.58,1.19c-0.42,0.5-0.75,1.09-0.98,1.77c-0.23,0.68-0.35,1.39-0.35,2.13c0,1.18,0.24,2.25,0.73,3.21
			c0.49,0.96,1.11,1.87,1.88,2.73c0.77,0.86,1.64,1.7,2.61,2.54c0.97,0.83,1.95,1.71,2.92,2.63c0.97,0.95,1.67,2.08,2.09,3.38
			c0.42,1.31,0.63,2.59,0.63,3.84c0,2.54-0.76,4.53-2.29,5.98s-3.65,2.17-6.36,2.17c-1.61,0-3.01-0.4-4.19-1.21
			s-2.06-1.98-2.65-3.52l1.54-0.96c0.15,0.54,0.39,1.06,0.71,1.56c0.32,0.5,0.71,0.94,1.17,1.32c0.46,0.38,0.97,0.69,1.54,0.92
			c0.56,0.23,1.15,0.35,1.77,0.35c0.59,0,1.16-0.15,1.71-0.44s1.03-0.73,1.44-1.31c0.41-0.58,0.74-1.29,0.98-2.13
			c0.24-0.85,0.37-1.81,0.37-2.88c0-1.08-0.21-2.15-0.63-3.23c-0.42-1.08-1.13-2.06-2.13-2.96c-0.97-0.87-1.92-1.71-2.83-2.52
			c-0.91-0.81-1.72-1.65-2.42-2.52c-0.71-0.87-1.27-1.81-1.69-2.81c-0.42-1-0.63-2.11-0.63-3.34c0-1.1,0.17-2.13,0.5-3.09
			c0.33-0.96,0.84-1.79,1.52-2.5c0.68-0.71,1.53-1.26,2.56-1.67c1.02-0.41,2.23-0.61,3.61-0.61c1.41,0,2.56,0.33,3.46,0.98
			c0.9,0.65,1.72,1.52,2.46,2.59L212.23,23.19z"/>
	</g>
	<g>
		<path class="st4" d="M55.23,57.55c0.37,0.49,0.56,1.13,0.56,1.93v0.87h-0.66v-0.91c0-0.6-0.13-1.08-0.38-1.44
			c-0.26-0.36-0.66-0.54-1.21-0.54c-0.55,0-0.95,0.18-1.21,0.54c-0.26,0.36-0.38,0.84-0.38,1.44v5.46c0,0.6,0.13,1.08,0.38,1.43
			c0.26,0.36,0.66,0.53,1.21,0.53c0.55,0,0.95-0.18,1.21-0.53c0.26-0.35,0.38-0.83,0.38-1.43v-1.24h0.66v1.2
			c0,0.8-0.19,1.44-0.56,1.93c-0.37,0.49-0.94,0.73-1.71,0.73c-0.77,0-1.34-0.24-1.71-0.73c-0.37-0.48-0.56-1.13-0.56-1.93v-5.37
			c0-0.8,0.19-1.44,0.56-1.93c0.37-0.49,0.94-0.73,1.71-0.73C54.29,56.82,54.86,57.06,55.23,57.55z"/>
		<path class="st4" d="M59.65,66.34c0.25,0.36,0.65,0.54,1.2,0.54c0.55,0,0.95-0.18,1.2-0.54s0.38-0.85,0.38-1.46v-7.97h0.65v7.94
			c0,0.8-0.18,1.44-0.55,1.93c-0.37,0.49-0.93,0.73-1.69,0.73c-0.76,0-1.33-0.24-1.7-0.73c-0.37-0.48-0.56-1.13-0.56-1.93v-7.94
			h0.69v7.97C59.27,65.49,59.4,65.98,59.65,66.34z"/>
		<path class="st4" d="M69.83,57.53c0.36,0.48,0.55,1.11,0.55,1.91v0.23h-0.66V59.4c0-0.6-0.13-1.08-0.38-1.43
			c-0.25-0.35-0.65-0.53-1.19-0.53c-0.54,0-0.94,0.18-1.19,0.53c-0.25,0.35-0.38,0.82-0.38,1.41c0,0.38,0.08,0.72,0.24,1.01
			c0.16,0.29,0.36,0.55,0.59,0.77c0.23,0.22,0.56,0.47,0.97,0.77c0.43,0.31,0.78,0.58,1.05,0.82c0.27,0.24,0.5,0.53,0.68,0.89
			c0.18,0.35,0.27,0.76,0.27,1.23c0,0.8-0.19,1.44-0.56,1.91c-0.37,0.47-0.94,0.71-1.71,0.71c-0.77,0-1.34-0.24-1.71-0.71
			c-0.37-0.47-0.56-1.11-0.56-1.91v-0.54h0.66v0.58c0,0.6,0.13,1.07,0.38,1.42c0.26,0.34,0.66,0.52,1.21,0.52
			c0.55,0,0.95-0.17,1.21-0.52c0.26-0.35,0.38-0.82,0.38-1.42c0-0.38-0.08-0.71-0.24-1c-0.16-0.29-0.36-0.54-0.59-0.76
			c-0.23-0.21-0.55-0.47-0.95-0.76c-0.43-0.31-0.78-0.59-1.05-0.83s-0.5-0.55-0.68-0.9C66,60.31,65.9,59.9,65.9,59.43
			c0-0.81,0.19-1.45,0.56-1.91c0.37-0.46,0.93-0.7,1.68-0.71C68.9,56.82,69.46,57.06,69.83,57.53z"/>
		<path class="st4" d="M74.97,57.54h-2.13v-0.63h4.97v0.63h-2.15v9.88h-0.69V57.54z"/>
		<path class="st4" d="M80.89,57.55c0.38-0.49,0.96-0.73,1.72-0.73c0.78,0,1.36,0.24,1.75,0.72c0.38,0.48,0.58,1.13,0.58,1.94v5.37
			c0,0.81-0.19,1.46-0.58,1.94c-0.39,0.48-0.97,0.72-1.75,0.72c-0.76,0-1.33-0.24-1.72-0.73c-0.39-0.48-0.58-1.13-0.58-1.93v-5.37
			C80.31,58.68,80.5,58.03,80.89,57.55z M81.39,66.34c0.26,0.35,0.67,0.53,1.22,0.53c0.56,0,0.97-0.18,1.24-0.53
			c0.26-0.35,0.4-0.84,0.4-1.45v-5.46c0-0.61-0.13-1.09-0.4-1.45c-0.27-0.35-0.68-0.53-1.24-0.53c-0.55,0-0.96,0.18-1.22,0.53
			C81.13,58.34,81,58.82,81,59.43v5.46C81,65.5,81.13,65.99,81.39,66.34z"/>
		<path class="st4" d="M90.61,67.4l-2.22-9.29v9.3h-0.62V56.91h0.99l2.21,9.29l2.19-9.29h0.99v10.51h-0.66v-9.33L91.3,67.4H90.61z"
			/>
		<path class="st4" d="M97.73,67.42h-0.69V56.91h0.69V67.42z"/>
		<path class="st4" d="M104.51,57.53c0.36,0.48,0.55,1.11,0.55,1.91v0.23h-0.66V59.4c0-0.6-0.13-1.08-0.38-1.43
			c-0.25-0.35-0.65-0.53-1.19-0.53c-0.54,0-0.94,0.18-1.19,0.53c-0.25,0.35-0.38,0.82-0.38,1.41c0,0.38,0.08,0.72,0.24,1.01
			c0.16,0.29,0.36,0.55,0.59,0.77c0.23,0.22,0.56,0.47,0.97,0.77c0.43,0.31,0.78,0.58,1.05,0.82c0.27,0.24,0.5,0.53,0.68,0.89
			c0.18,0.35,0.27,0.76,0.27,1.23c0,0.8-0.19,1.44-0.56,1.91c-0.37,0.47-0.94,0.71-1.71,0.71c-0.77,0-1.34-0.24-1.71-0.71
			c-0.37-0.47-0.56-1.11-0.56-1.91v-0.54h0.66v0.58c0,0.6,0.13,1.07,0.38,1.42c0.26,0.34,0.66,0.52,1.21,0.52
			c0.55,0,0.95-0.17,1.21-0.52c0.26-0.35,0.38-0.82,0.38-1.42c0-0.38-0.08-0.71-0.24-1c-0.16-0.29-0.36-0.54-0.59-0.76
			c-0.23-0.21-0.55-0.47-0.95-0.76c-0.43-0.31-0.78-0.59-1.05-0.83s-0.5-0.55-0.68-0.9c-0.19-0.35-0.28-0.77-0.28-1.24
			c0-0.81,0.19-1.45,0.56-1.91c0.37-0.46,0.93-0.7,1.68-0.71C103.58,56.82,104.14,57.06,104.51,57.53z"/>
		<path class="st4" d="M108.36,67.42h-0.63l2.3-10.52h1.01l2.34,10.52h-0.69l-0.53-2.33h-3.27L108.36,67.42z M112.05,64.49
			l-1.55-6.8l-1.52,6.8H112.05z"/>
		<path class="st4" d="M117.32,57.54h-2.13v-0.63h4.97v0.63h-2.15v9.88h-0.69V57.54z"/>
		<path class="st4" d="M123.4,67.42h-0.69V56.91h0.69V67.42z"/>
		<path class="st4" d="M126.83,57.55c0.38-0.49,0.96-0.73,1.72-0.73c0.78,0,1.36,0.24,1.75,0.72c0.38,0.48,0.58,1.13,0.58,1.94v5.37
			c0,0.81-0.19,1.46-0.58,1.94c-0.39,0.48-0.97,0.72-1.75,0.72c-0.76,0-1.33-0.24-1.72-0.73c-0.39-0.48-0.58-1.13-0.58-1.93v-5.37
			C126.25,58.68,126.44,58.03,126.83,57.55z M127.33,66.34c0.26,0.35,0.67,0.53,1.22,0.53c0.56,0,0.97-0.18,1.24-0.53
			c0.26-0.35,0.4-0.84,0.4-1.45v-5.46c0-0.61-0.13-1.09-0.4-1.45c-0.27-0.35-0.68-0.53-1.24-0.53c-0.55,0-0.96,0.18-1.22,0.53
			c-0.26,0.36-0.39,0.84-0.39,1.45v5.46C126.94,65.5,127.07,65.99,127.33,66.34z"/>
		<path class="st4" d="M133.71,67.42V56.91h0.9l3.15,8.87v-8.87h0.63v10.51h-0.77l-3.29-9.36v9.36H133.71z"/>
		<path class="st4" d="M149.17,57.53c0.36,0.48,0.55,1.11,0.55,1.91v0.23h-0.66V59.4c0-0.6-0.13-1.08-0.38-1.43
			c-0.25-0.35-0.65-0.53-1.19-0.53s-0.94,0.18-1.19,0.53c-0.25,0.35-0.38,0.82-0.38,1.41c0,0.38,0.08,0.72,0.24,1.01
			c0.16,0.29,0.36,0.55,0.59,0.77c0.23,0.22,0.56,0.47,0.97,0.77c0.43,0.31,0.78,0.58,1.05,0.82s0.5,0.53,0.68,0.89
			c0.18,0.35,0.27,0.76,0.27,1.23c0,0.8-0.19,1.44-0.56,1.91c-0.37,0.47-0.94,0.71-1.71,0.71c-0.77,0-1.34-0.24-1.71-0.71
			c-0.37-0.47-0.56-1.11-0.56-1.91v-0.54h0.66v0.58c0,0.6,0.13,1.07,0.38,1.42c0.26,0.34,0.66,0.52,1.21,0.52
			c0.55,0,0.95-0.17,1.21-0.52c0.26-0.35,0.38-0.82,0.38-1.42c0-0.38-0.08-0.71-0.24-1c-0.16-0.29-0.36-0.54-0.59-0.76
			c-0.23-0.21-0.55-0.47-0.95-0.76c-0.43-0.31-0.78-0.59-1.05-0.83c-0.27-0.25-0.5-0.55-0.68-0.9c-0.19-0.35-0.28-0.77-0.28-1.24
			c0-0.81,0.19-1.45,0.56-1.91c0.37-0.46,0.93-0.7,1.68-0.71C148.24,56.82,148.81,57.06,149.17,57.53z"/>
		<path class="st4" d="M153.58,66.34c0.25,0.36,0.65,0.54,1.2,0.54c0.55,0,0.95-0.18,1.2-0.54c0.25-0.36,0.38-0.85,0.38-1.46v-7.97
			H157v7.94c0,0.8-0.18,1.44-0.55,1.93c-0.37,0.49-0.93,0.73-1.69,0.73c-0.76,0-1.33-0.24-1.7-0.73c-0.37-0.48-0.56-1.13-0.56-1.93
			v-7.94h0.69v7.97C153.2,65.49,153.33,65.98,153.58,66.34z"/>
		<path class="st4" d="M164.32,59.28v0.91c0,0.62-0.12,1.11-0.37,1.46c-0.25,0.36-0.63,0.59-1.15,0.71
			c1.01,0.22,1.52,0.94,1.52,2.15v1.64c0,0.58,0.08,1,0.26,1.26h-0.72c-0.09-0.15-0.15-0.32-0.18-0.52
			c-0.03-0.19-0.05-0.44-0.05-0.74V64.5c0-0.66-0.17-1.12-0.5-1.39s-0.82-0.4-1.47-0.4h-1.1v4.7h-0.69V56.91h2.19
			C163.57,56.91,164.32,57.7,164.32,59.28z M163.15,61.71c0.32-0.25,0.48-0.71,0.48-1.38v-0.99c0-0.59-0.13-1.04-0.38-1.34
			c-0.25-0.31-0.65-0.46-1.2-0.46h-1.49v4.55h1.11C162.34,62.09,162.83,61.96,163.15,61.71z"/>
		<path class="st4" d="M174.23,67.4L172,58.11v9.3h-0.62V56.91h0.99l2.21,9.29l2.19-9.29h0.99v10.51h-0.66v-9.33l-2.19,9.32H174.23z
			"/>
		<path class="st4" d="M184.22,62.4h-2.87v4.38h3.45v0.63h-4.14V56.91h4.14v0.63h-3.45v4.23h2.87V62.4z"/>
		<path class="st4" d="M191.51,57.53c0.36,0.48,0.55,1.11,0.55,1.91v0.23h-0.66V59.4c0-0.6-0.13-1.08-0.38-1.43
			c-0.25-0.35-0.65-0.53-1.19-0.53c-0.54,0-0.94,0.18-1.19,0.53c-0.25,0.35-0.38,0.82-0.38,1.41c0,0.38,0.08,0.72,0.24,1.01
			c0.16,0.29,0.36,0.55,0.59,0.77c0.23,0.22,0.56,0.47,0.97,0.77c0.43,0.31,0.78,0.58,1.05,0.82c0.27,0.24,0.5,0.53,0.68,0.89
			c0.18,0.35,0.27,0.76,0.27,1.23c0,0.8-0.19,1.44-0.56,1.91c-0.37,0.47-0.94,0.71-1.71,0.71c-0.77,0-1.34-0.24-1.71-0.71
			c-0.37-0.47-0.56-1.11-0.56-1.91v-0.54h0.66v0.58c0,0.6,0.13,1.07,0.38,1.42c0.26,0.34,0.66,0.52,1.21,0.52
			c0.55,0,0.95-0.17,1.21-0.52c0.26-0.35,0.38-0.82,0.38-1.42c0-0.38-0.08-0.71-0.24-1c-0.16-0.29-0.36-0.54-0.59-0.76
			c-0.23-0.21-0.55-0.47-0.95-0.76c-0.43-0.31-0.78-0.59-1.05-0.83c-0.27-0.25-0.5-0.55-0.68-0.9c-0.19-0.35-0.28-0.77-0.28-1.24
			c0-0.81,0.19-1.45,0.56-1.91c0.37-0.46,0.93-0.7,1.68-0.71C190.58,56.82,191.14,57.06,191.51,57.53z"/>
		<path class="st4" d="M195.91,66.34c0.25,0.36,0.65,0.54,1.2,0.54c0.55,0,0.95-0.18,1.2-0.54s0.38-0.85,0.38-1.46v-7.97h0.65v7.94
			c0,0.8-0.18,1.44-0.55,1.93c-0.37,0.49-0.93,0.73-1.69,0.73c-0.76,0-1.33-0.24-1.7-0.73c-0.37-0.48-0.56-1.13-0.56-1.93v-7.94
			h0.69v7.97C195.54,65.49,195.66,65.98,195.91,66.34z"/>
		<path class="st4" d="M206.66,59.28v0.91c0,0.62-0.12,1.11-0.37,1.46c-0.25,0.36-0.63,0.59-1.15,0.71
			c1.01,0.22,1.52,0.94,1.52,2.15v1.64c0,0.58,0.08,1,0.26,1.26h-0.72c-0.09-0.15-0.15-0.32-0.18-0.52
			c-0.03-0.19-0.05-0.44-0.05-0.74V64.5c0-0.66-0.17-1.12-0.5-1.39s-0.82-0.4-1.47-0.4h-1.1v4.7h-0.69V56.91h2.19
			C205.91,56.91,206.66,57.7,206.66,59.28z M205.49,61.71c0.32-0.25,0.48-0.71,0.48-1.38v-0.99c0-0.59-0.13-1.04-0.38-1.34
			c-0.25-0.31-0.65-0.46-1.2-0.46h-1.49v4.55h1.11C204.68,62.09,205.17,61.96,205.49,61.71z"/>
		<path class="st4" d="M213.26,62.4h-2.87v4.38h3.45v0.63h-4.14V56.91h4.14v0.63h-3.45v4.23h2.87V62.4z"/>
	</g>
	<g>
		<g>
			<polygon class="st4" points="39.25,22.56 37.65,24.27 30.93,18.92 24.72,24.39 22.82,23.01 17.52,25.82 17.52,30.49 23,27.51 
				24.9,28.89 31.11,23.42 37.83,28.78 39.43,27.07 43.44,29.84 43.44,25.54 			"/>
			<polygon class="st4" points="39.52,27.85 37.86,29.44 31.12,24.04 24.9,29.46 22.95,27.95 17.55,31.05 17.52,33.24 23,30.27 
				24.9,31.65 31.11,26.18 37.83,31.53 39.43,29.83 43.44,32.59 43.44,30.39 			"/>
			<polygon class="st4" points="39.54,30.61 37.93,32.54 31.12,26.87 25,32.26 22.99,30.85 17.53,33.75 17.52,35.11 23.23,31.93 
				25.31,33.43 31.19,28.3 37.93,33.67 39.35,32.15 43.44,34.8 43.44,33.25 			"/>
		</g>
		<g>
			<path class="st4" d="M34.09,66.39c-0.65,0.31-1.28,0.72-1.96,0.92c-4.16,1.23-8.16-2.27-7.42-6.58c0.66-3.9,1.52-7.76,2.29-11.64
				c0.08-0.38,0.17-0.76,0.24-1.15c0.45-2.29-0.94-4-3.28-4.03c-1.46-0.02-2.92,0-4.38,0c-1.47,0-2.04-0.56-2.04-2.03
				c0-1.46,0-2.92,0-4.38c0-0.15,0.01-0.3,0.01-0.4c8.63,0,17.15,0,25.9,0c-0.02,0.64,0.01,4.1-0.01,5.1
				c-0.02,1.05-0.64,1.69-1.69,1.71c-1.56,0.03-3.13,0-4.69,0.01c-2.39,0.01-3.8,1.75-3.31,4.09c0.71,3.43,1.43,6.85,2.13,10.27
				c0.18,0.88,0.32,1.77,0.44,2.66c0.19,1.51-0.16,2.9-1.04,4.14c-0.05,0.07-0.07,0.15-0.1,0.23
				C34.81,65.67,34.45,66.03,34.09,66.39z M28.86,59.92c-0.88,0.87-0.89,2.34-0.03,3.22c0.87,0.89,2.37,0.91,3.26,0.04
				c0.9-0.87,0.9-2.37,0.01-3.26C31.2,59.02,29.77,59.02,28.86,59.92z"/>
		</g>
	</g>
</g>
<g id="admin">
</g>
<g id="recto_carte_visite">
</g>
<g id="verso_carte_visite">
</g>
<g id="Story_une">
</g>
<g id="RS">
</g>
</svg>
