<?xml version="1.0" encoding="utf-8"?>
<!-- Generator: Adobe Illustrator 27.0.1, SVG Export Plug-In . SVG Version: 6.00 Build 0)  -->
<svg version="1.1" xmlns="http://www.w3.org/2000/svg" xmlns:xlink="http://www.w3.org/1999/xlink" x="0px" y="0px"
	 viewBox="0 0 156.96 149.27" style="enable-background:new 0 0 156.96 149.27;" xml:space="preserve">
<style type="text/css">
	.st0{fill:#FFFFFF;stroke:#000000;stroke-miterlimit:10;}
	.st1{fill:#EBF6FA;}
	.st2{fill:#B4D8DC;}
	.st3{fill:#132D46;}
	.st4{fill:#FFFFFF;}
	.st5{fill:#F1EBF6;}
	.st6{fill:#C1B3D9;}
	.st7{fill:#321C45;}
</style>
<g id="Calque_13">
	<rect x="-33.87" y="-337.84" class="st0" width="475.27" height="508.19"/>
</g>
<g id="essais">
</g>
<g id="logo_complet">
</g>
<g id="logo_nom">
</g>
<g id="petit_logo">
	<g>
		<polygon class="st1" points="120.96,70.82 120.96,55.89 106.39,45.55 100.84,51.48 77.49,32.89 55.94,51.88 49.32,47.09 
			30.95,56.85 30.95,73.08 30.95,74.69 31.25,75.02 50.13,64.8 57.35,70.03 77.77,52.21 101.17,70.84 106.11,65.56 119.24,74.25 
			120.96,72.75 		"/>
		<polygon class="st2" points="120.96,70.82 107.02,61.2 101.47,67.13 78.12,48.54 56.57,67.54 49.95,62.74 30.95,73.08 
			30.95,74.69 30.95,82.64 30.95,83.36 31.88,84.38 50.76,74.16 57.97,79.38 78.4,61.57 101.8,80.2 106.74,74.92 119.87,83.61 
			120.96,82.65 120.96,80.38 120.96,72.75 		"/>
		<polygon class="st3" points="120.96,80.38 120.96,88.06 106.74,78.83 101.8,84.11 78.4,65.47 57.97,83.29 50.76,78.07 
			30.95,89.14 30.95,82.64 49.95,72.31 56.57,77.11 78.12,58.11 101.47,76.7 107.02,70.77 		"/>
		<g>
			<path class="st3" d="M39.84,90.61l3.15,16.55h-2.15l-0.78-3.82h-3.91l-0.78,3.82h-0.8l3.11-16.55H39.84z M36.28,102.88h3.56
				l-1.7-10.41L36.28,102.88z"/>
			<path class="st3" d="M49.19,90.61c0.47,0,0.9,0.11,1.29,0.34c0.39,0.23,0.73,0.54,1.01,0.94c0.28,0.4,0.5,0.86,0.67,1.4
				c0.16,0.53,0.24,1.1,0.24,1.7c0,0.95-0.19,1.79-0.56,2.5c-0.37,0.72-0.95,1.19-1.74,1.43c1.56,0.26,2.33,1.37,2.33,3.33v3.21
				c0,1.06,0.4,1.7,1.21,1.92c-0.2,0.05-0.42,0.08-0.67,0.08c-0.94,0-1.63-0.18-2.07-0.55c-0.43-0.37-0.65-0.85-0.65-1.45v-4.05
				c0-0.27-0.05-0.54-0.16-0.81c-0.1-0.27-0.24-0.51-0.42-0.73c-0.18-0.22-0.38-0.4-0.6-0.54c-0.22-0.14-0.44-0.21-0.67-0.21h-2.27
				v8.04h-2.17V90.61H49.19z M46.16,98.65h2.23c0.3,0,0.56-0.08,0.79-0.25c0.23-0.17,0.42-0.4,0.57-0.7
				c0.15-0.3,0.26-0.64,0.34-1.03c0.08-0.39,0.12-0.81,0.12-1.27c0-0.62-0.08-1.2-0.23-1.73c-0.15-0.53-0.36-0.98-0.63-1.37
				c-0.27-0.38-0.59-0.68-0.97-0.9c-0.38-0.21-0.8-0.32-1.27-0.32h-0.96V98.65z"/>
			<path class="st3" d="M62.31,90.61v0.88c-0.18-0.27-0.54-0.41-1.06-0.41h-1.9v16.08h-2.17V91.08h-2.05
				c-0.07,0-0.15,0.01-0.25,0.04c-0.1,0.03-0.21,0.06-0.31,0.1c-0.1,0.04-0.2,0.08-0.27,0.13c-0.08,0.05-0.12,0.09-0.14,0.15v-0.88
				H62.31z"/>
			<path class="st3" d="M71.44,90.61v0.47h-6.12v7.53h3.54v0.47h-3.54v7.61h6.12v0.47h-8.3V90.61H71.44z"/>
			<path class="st3" d="M80.42,90.61v0.47H74.3v7.77h4.32v0.47H74.3v7.85h-2.17V90.61H80.42z"/>
			<path class="st3" d="M86.33,90.61l3.15,16.55h-2.15l-0.78-3.82h-3.91l-0.78,3.82h-0.8l3.11-16.55H86.33z M82.77,102.88h3.56
				l-1.7-10.41L82.77,102.88z"/>
			<path class="st3" d="M99.4,93.25c-0.13-0.31-0.31-0.6-0.54-0.87c-0.23-0.27-0.49-0.5-0.78-0.7c-0.29-0.2-0.6-0.36-0.93-0.48
				c-0.33-0.12-0.65-0.18-0.98-0.18c-0.57,0-1.09,0.19-1.54,0.57c-0.45,0.38-0.83,0.91-1.13,1.6c-0.31,0.69-0.54,1.51-0.69,2.47
				c-0.16,0.96-0.23,2.03-0.23,3.2c0,1.15,0.08,2.21,0.23,3.19c0.16,0.98,0.38,1.83,0.67,2.55c0.29,0.72,0.65,1.28,1.07,1.69
				c0.42,0.41,0.89,0.62,1.43,0.62c0.3,0,0.6-0.06,0.91-0.19c0.31-0.12,0.6-0.29,0.88-0.5c0.28-0.21,0.55-0.45,0.8-0.71
				c0.25-0.27,0.48-0.54,0.67-0.83h0.84c-0.51,0.99-1.18,1.71-2.01,2.15c-0.83,0.44-1.77,0.66-2.83,0.66c-0.86,0-1.6-0.16-2.23-0.48
				c-0.63-0.32-1.14-0.83-1.54-1.54c-0.4-0.7-0.69-1.61-0.88-2.73c-0.19-1.12-0.28-2.47-0.28-4.06c0-1.34,0.11-2.53,0.33-3.55
				c0.22-1.02,0.58-1.88,1.08-2.58c0.5-0.7,1.13-1.23,1.92-1.58c0.78-0.36,1.73-0.54,2.86-0.54c0.83,0,1.56,0.23,2.19,0.68
				c0.63,0.46,1.15,1.1,1.57,1.92L99.4,93.25z"/>
			<path class="st3" d="M108.97,90.61v0.88c-0.18-0.27-0.53-0.41-1.06-0.41h-1.9v16.08h-2.17V91.08h-2.05
				c-0.07,0-0.15,0.01-0.25,0.04c-0.11,0.03-0.21,0.06-0.31,0.1c-0.1,0.04-0.19,0.08-0.27,0.13c-0.08,0.05-0.12,0.09-0.14,0.15
				v-0.88H108.97z"/>
			<path class="st3" d="M116.49,92.74c-0.3-0.47-0.62-0.84-0.97-1.13s-0.71-0.42-1.11-0.42c-0.4,0-0.77,0.08-1.09,0.23
				c-0.32,0.15-0.59,0.35-0.8,0.61c-0.22,0.25-0.38,0.55-0.5,0.9c-0.12,0.35-0.18,0.71-0.18,1.09c0,0.6,0.12,1.14,0.37,1.63
				c0.25,0.49,0.57,0.95,0.96,1.39c0.39,0.44,0.83,0.87,1.33,1.29c0.5,0.42,0.99,0.87,1.49,1.34c0.5,0.48,0.85,1.06,1.07,1.72
				c0.22,0.67,0.32,1.32,0.32,1.96c0,1.29-0.39,2.31-1.16,3.04s-1.86,1.11-3.24,1.11c-0.82,0-1.53-0.21-2.13-0.62
				c-0.6-0.41-1.05-1.01-1.35-1.79l0.78-0.49c0.08,0.27,0.2,0.54,0.36,0.79c0.16,0.25,0.36,0.48,0.6,0.67
				c0.23,0.2,0.5,0.35,0.78,0.47c0.29,0.12,0.59,0.18,0.9,0.18c0.3,0,0.59-0.07,0.87-0.22s0.52-0.37,0.73-0.67
				c0.21-0.29,0.37-0.66,0.5-1.09s0.19-0.92,0.19-1.47c0-0.55-0.11-1.1-0.32-1.64c-0.22-0.55-0.58-1.05-1.09-1.51
				c-0.5-0.44-0.97-0.87-1.44-1.28c-0.46-0.41-0.87-0.84-1.23-1.28c-0.36-0.44-0.65-0.92-0.86-1.43c-0.22-0.51-0.32-1.08-0.32-1.7
				c0-0.56,0.08-1.09,0.25-1.58c0.17-0.49,0.43-0.91,0.77-1.27c0.35-0.36,0.78-0.64,1.3-0.85c0.52-0.21,1.13-0.31,1.84-0.31
				c0.72,0,1.3,0.17,1.76,0.5c0.46,0.33,0.87,0.77,1.25,1.32L116.49,92.74z"/>
		</g>
		<g>
			<path class="st3" d="M36.56,110.23c0.19,0.25,0.28,0.57,0.28,0.98v0.44h-0.34v-0.47c0-0.31-0.06-0.55-0.19-0.73
				c-0.13-0.18-0.34-0.28-0.62-0.28c-0.28,0-0.49,0.09-0.62,0.28c-0.13,0.18-0.19,0.43-0.19,0.73v2.78c0,0.31,0.07,0.55,0.19,0.73
				c0.13,0.18,0.33,0.27,0.62,0.27c0.28,0,0.48-0.09,0.62-0.27c0.13-0.18,0.19-0.42,0.19-0.73v-0.63h0.34v0.61
				c0,0.41-0.09,0.74-0.28,0.98c-0.19,0.25-0.48,0.37-0.87,0.37c-0.39,0-0.68-0.12-0.87-0.37c-0.19-0.25-0.28-0.57-0.28-0.98v-2.73
				c0-0.41,0.09-0.73,0.28-0.98c0.19-0.25,0.48-0.37,0.87-0.37C36.08,109.86,36.37,109.98,36.56,110.23z"/>
			<path class="st3" d="M38.81,114.71c0.13,0.18,0.33,0.27,0.61,0.27c0.28,0,0.48-0.09,0.61-0.27c0.13-0.18,0.19-0.43,0.19-0.74
				v-4.06h0.33v4.04c0,0.41-0.09,0.74-0.28,0.98c-0.19,0.25-0.47,0.37-0.86,0.37c-0.39,0-0.67-0.12-0.86-0.37
				c-0.19-0.25-0.28-0.57-0.28-0.98v-4.04h0.35v4.06C38.62,114.27,38.68,114.52,38.81,114.71z"/>
			<path class="st3" d="M43.99,110.22c0.19,0.24,0.28,0.57,0.28,0.97v0.11h-0.34v-0.14c0-0.31-0.06-0.55-0.19-0.73
				c-0.13-0.18-0.33-0.27-0.6-0.27s-0.48,0.09-0.6,0.27c-0.13,0.18-0.19,0.42-0.19,0.72c0,0.19,0.04,0.37,0.12,0.52
				c0.08,0.15,0.18,0.28,0.3,0.39c0.12,0.11,0.28,0.24,0.49,0.39c0.22,0.16,0.4,0.3,0.53,0.42c0.14,0.12,0.25,0.27,0.34,0.45
				c0.09,0.18,0.14,0.39,0.14,0.63c0,0.41-0.09,0.73-0.28,0.97c-0.19,0.24-0.48,0.36-0.87,0.36c-0.39,0-0.68-0.12-0.87-0.36
				c-0.19-0.24-0.28-0.57-0.28-0.97v-0.27h0.34v0.3c0,0.31,0.07,0.55,0.19,0.72c0.13,0.18,0.33,0.26,0.62,0.26
				c0.28,0,0.48-0.09,0.62-0.26c0.13-0.18,0.19-0.42,0.19-0.72c0-0.19-0.04-0.36-0.12-0.51s-0.18-0.28-0.3-0.39
				c-0.12-0.11-0.28-0.24-0.48-0.39c-0.22-0.16-0.4-0.3-0.54-0.42c-0.14-0.12-0.25-0.28-0.35-0.46c-0.09-0.18-0.14-0.39-0.14-0.63
				c0-0.41,0.09-0.74,0.28-0.97c0.19-0.23,0.47-0.35,0.86-0.36C43.52,109.86,43.81,109.98,43.99,110.22z"/>
			<path class="st3" d="M46.61,110.23h-1.09v-0.32h2.53v0.32h-1.09v5.03h-0.35V110.23z"/>
			<path class="st3" d="M49.62,110.23c0.2-0.25,0.49-0.37,0.87-0.37c0.4,0,0.69,0.12,0.89,0.37c0.2,0.24,0.29,0.57,0.29,0.99v2.73
				c0,0.41-0.1,0.74-0.29,0.99c-0.2,0.24-0.49,0.37-0.89,0.37c-0.39,0-0.68-0.12-0.87-0.37c-0.2-0.25-0.29-0.57-0.29-0.98v-2.73
				C49.33,110.81,49.43,110.48,49.62,110.23z M49.88,114.71c0.13,0.18,0.34,0.27,0.62,0.27c0.28,0,0.5-0.09,0.63-0.27
				c0.13-0.18,0.2-0.43,0.2-0.74v-2.78c0-0.31-0.07-0.56-0.2-0.74c-0.14-0.18-0.35-0.27-0.63-0.27c-0.28,0-0.49,0.09-0.62,0.27
				c-0.13,0.18-0.2,0.43-0.2,0.74v2.78C49.68,114.28,49.75,114.53,49.88,114.71z"/>
			<path class="st3" d="M54.57,115.25l-1.13-4.73v4.74h-0.31v-5.35h0.5l1.12,4.73l1.12-4.73h0.5v5.35h-0.34v-4.75l-1.12,4.74H54.57z
				"/>
			<path class="st3" d="M58.2,115.25h-0.35v-5.35h0.35V115.25z"/>
			<path class="st3" d="M61.65,110.22c0.19,0.24,0.28,0.57,0.28,0.97v0.11h-0.34v-0.14c0-0.31-0.06-0.55-0.19-0.73
				c-0.13-0.18-0.33-0.27-0.6-0.27s-0.48,0.09-0.6,0.27c-0.13,0.18-0.19,0.42-0.19,0.72c0,0.19,0.04,0.37,0.12,0.52
				c0.08,0.15,0.18,0.28,0.3,0.39c0.12,0.11,0.28,0.24,0.49,0.39c0.22,0.16,0.4,0.3,0.53,0.42c0.14,0.12,0.25,0.27,0.34,0.45
				c0.09,0.18,0.14,0.39,0.14,0.63c0,0.41-0.09,0.73-0.28,0.97c-0.19,0.24-0.48,0.36-0.87,0.36c-0.39,0-0.68-0.12-0.87-0.36
				c-0.19-0.24-0.28-0.57-0.28-0.97v-0.27h0.34v0.3c0,0.31,0.07,0.55,0.19,0.72c0.13,0.18,0.33,0.26,0.62,0.26
				c0.28,0,0.48-0.09,0.62-0.26c0.13-0.18,0.19-0.42,0.19-0.72c0-0.19-0.04-0.36-0.12-0.51c-0.08-0.15-0.18-0.28-0.3-0.39
				c-0.12-0.11-0.28-0.24-0.48-0.39c-0.22-0.16-0.4-0.3-0.54-0.42c-0.14-0.12-0.25-0.28-0.35-0.46c-0.09-0.18-0.14-0.39-0.14-0.63
				c0-0.41,0.09-0.74,0.28-0.97c0.19-0.23,0.47-0.35,0.86-0.36C61.18,109.86,61.46,109.98,61.65,110.22z"/>
			<path class="st3" d="M63.61,115.25h-0.32l1.17-5.36h0.51l1.19,5.36h-0.35l-0.27-1.18h-1.67L63.61,115.25z M65.49,113.77
				l-0.79-3.46l-0.77,3.46H65.49z"/>
			<path class="st3" d="M68.17,110.23h-1.09v-0.32h2.53v0.32h-1.09v5.03h-0.35V110.23z"/>
			<path class="st3" d="M71.26,115.25h-0.35v-5.35h0.35V115.25z"/>
			<path class="st3" d="M73.01,110.23c0.2-0.25,0.49-0.37,0.87-0.37c0.4,0,0.69,0.12,0.89,0.37c0.2,0.24,0.29,0.57,0.29,0.99v2.73
				c0,0.41-0.1,0.74-0.29,0.99c-0.2,0.24-0.49,0.37-0.89,0.37c-0.39,0-0.68-0.12-0.87-0.37c-0.2-0.25-0.29-0.57-0.29-0.98v-2.73
				C72.71,110.81,72.81,110.48,73.01,110.23z M73.26,114.71c0.13,0.18,0.34,0.27,0.62,0.27c0.28,0,0.5-0.09,0.63-0.27
				c0.13-0.18,0.2-0.43,0.2-0.74v-2.78c0-0.31-0.07-0.56-0.2-0.74c-0.14-0.18-0.35-0.27-0.63-0.27c-0.28,0-0.49,0.09-0.62,0.27
				c-0.13,0.18-0.2,0.43-0.2,0.74v2.78C73.07,114.28,73.13,114.53,73.26,114.71z"/>
			<path class="st3" d="M76.51,115.25v-5.35h0.46l1.6,4.52v-4.52h0.32v5.35H78.5l-1.67-4.77v4.77H76.51z"/>
			<path class="st3" d="M84.38,110.22c0.19,0.24,0.28,0.57,0.28,0.97v0.11h-0.34v-0.14c0-0.31-0.06-0.55-0.19-0.73
				s-0.33-0.27-0.6-0.27c-0.27,0-0.48,0.09-0.6,0.27c-0.13,0.18-0.19,0.42-0.19,0.72c0,0.19,0.04,0.37,0.12,0.52
				c0.08,0.15,0.18,0.28,0.3,0.39c0.12,0.11,0.28,0.24,0.49,0.39c0.22,0.16,0.4,0.3,0.53,0.42c0.14,0.12,0.25,0.27,0.34,0.45
				c0.09,0.18,0.14,0.39,0.14,0.63c0,0.41-0.09,0.73-0.28,0.97c-0.19,0.24-0.48,0.36-0.87,0.36c-0.39,0-0.68-0.12-0.87-0.36
				c-0.19-0.24-0.28-0.57-0.28-0.97v-0.27h0.34v0.3c0,0.31,0.07,0.55,0.19,0.72c0.13,0.18,0.33,0.26,0.62,0.26
				c0.28,0,0.48-0.09,0.62-0.26c0.13-0.18,0.19-0.42,0.19-0.72c0-0.19-0.04-0.36-0.12-0.51c-0.08-0.15-0.18-0.28-0.3-0.39
				c-0.12-0.11-0.28-0.24-0.48-0.39c-0.22-0.16-0.4-0.3-0.54-0.42c-0.14-0.12-0.25-0.28-0.35-0.46c-0.09-0.18-0.14-0.39-0.14-0.63
				c0-0.41,0.09-0.74,0.28-0.97c0.19-0.23,0.47-0.35,0.86-0.36C83.91,109.86,84.2,109.98,84.38,110.22z"/>
			<path class="st3" d="M86.63,114.71c0.13,0.18,0.33,0.27,0.61,0.27c0.28,0,0.48-0.09,0.61-0.27c0.13-0.18,0.19-0.43,0.19-0.74
				v-4.06h0.33v4.04c0,0.41-0.09,0.74-0.28,0.98c-0.19,0.25-0.47,0.37-0.86,0.37c-0.39,0-0.67-0.12-0.86-0.37
				c-0.19-0.25-0.28-0.57-0.28-0.98v-4.04h0.35v4.06C86.43,114.27,86.5,114.52,86.63,114.71z"/>
			<path class="st3" d="M92.1,111.11v0.47c0,0.32-0.06,0.56-0.19,0.74c-0.12,0.18-0.32,0.3-0.58,0.36c0.51,0.11,0.77,0.48,0.77,1.09
				v0.83c0,0.3,0.04,0.51,0.13,0.64h-0.37c-0.05-0.08-0.08-0.16-0.09-0.26c-0.02-0.1-0.02-0.23-0.02-0.38v-0.84
				c0-0.34-0.08-0.57-0.25-0.71c-0.17-0.13-0.42-0.2-0.75-0.2h-0.56v2.39h-0.35v-5.35h1.12C91.71,109.91,92.1,110.31,92.1,111.11z
				 M91.5,112.35c0.16-0.13,0.24-0.36,0.24-0.7v-0.5c0-0.3-0.06-0.53-0.19-0.68c-0.13-0.16-0.33-0.23-0.61-0.23h-0.76v2.32h0.57
				C91.09,112.54,91.34,112.48,91.5,112.35z"/>
			<path class="st3" d="M97.14,115.25l-1.13-4.73v4.74h-0.31v-5.35h0.5l1.12,4.73l1.12-4.73h0.5v5.35H98.6v-4.75l-1.12,4.74H97.14z"
				/>
			<path class="st3" d="M102.23,112.7h-1.46v2.23h1.76v0.32h-2.11v-5.35h2.11v0.32h-1.76v2.15h1.46V112.7z"/>
			<path class="st3" d="M105.94,110.22c0.19,0.24,0.28,0.57,0.28,0.97v0.11h-0.34v-0.14c0-0.31-0.06-0.55-0.19-0.73
				c-0.13-0.18-0.33-0.27-0.6-0.27c-0.27,0-0.48,0.09-0.6,0.27s-0.19,0.42-0.19,0.72c0,0.19,0.04,0.37,0.12,0.52
				c0.08,0.15,0.18,0.28,0.3,0.39c0.12,0.11,0.28,0.24,0.49,0.39c0.22,0.16,0.4,0.3,0.53,0.42c0.14,0.12,0.25,0.27,0.34,0.45
				c0.09,0.18,0.14,0.39,0.14,0.63c0,0.41-0.09,0.73-0.28,0.97c-0.19,0.24-0.48,0.36-0.87,0.36c-0.39,0-0.68-0.12-0.87-0.36
				c-0.19-0.24-0.28-0.57-0.28-0.97v-0.27h0.34v0.3c0,0.31,0.06,0.55,0.19,0.72c0.13,0.18,0.34,0.26,0.61,0.26
				c0.28,0,0.49-0.09,0.62-0.26c0.13-0.18,0.19-0.42,0.19-0.72c0-0.19-0.04-0.36-0.12-0.51c-0.08-0.15-0.18-0.28-0.3-0.39
				c-0.12-0.11-0.28-0.24-0.49-0.39c-0.22-0.16-0.4-0.3-0.53-0.42c-0.14-0.12-0.25-0.28-0.35-0.46c-0.09-0.18-0.14-0.39-0.14-0.63
				c0-0.41,0.09-0.74,0.28-0.97c0.19-0.23,0.47-0.35,0.86-0.36C105.46,109.86,105.75,109.98,105.94,110.22z"/>
			<path class="st3" d="M108.18,114.71c0.13,0.18,0.33,0.27,0.61,0.27c0.28,0,0.48-0.09,0.61-0.27c0.13-0.18,0.19-0.43,0.19-0.74
				v-4.06h0.33v4.04c0,0.41-0.09,0.74-0.28,0.98c-0.19,0.25-0.47,0.37-0.86,0.37c-0.39,0-0.67-0.12-0.86-0.37
				c-0.19-0.25-0.28-0.57-0.28-0.98v-4.04h0.35v4.06C107.99,114.27,108.05,114.52,108.18,114.71z"/>
			<path class="st3" d="M113.65,111.11v0.47c0,0.32-0.06,0.56-0.19,0.74c-0.12,0.18-0.32,0.3-0.58,0.36
				c0.51,0.11,0.77,0.48,0.77,1.09v0.83c0,0.3,0.04,0.51,0.13,0.64h-0.37c-0.05-0.08-0.08-0.16-0.09-0.26
				c-0.02-0.1-0.02-0.23-0.02-0.38v-0.84c0-0.34-0.08-0.57-0.25-0.71c-0.17-0.13-0.42-0.2-0.75-0.2h-0.56v2.39h-0.35v-5.35h1.12
				C113.27,109.91,113.65,110.31,113.65,111.11z M113.05,112.35c0.16-0.13,0.25-0.36,0.25-0.7v-0.5c0-0.3-0.06-0.53-0.19-0.68
				c-0.13-0.16-0.33-0.23-0.61-0.23h-0.76v2.32h0.57C112.64,112.54,112.89,112.48,113.05,112.35z"/>
			<path class="st3" d="M117.01,112.7h-1.46v2.23h1.76v0.32h-2.11v-5.35h2.11v0.32h-1.76v2.15h1.46V112.7z"/>
		</g>
	</g>
</g>
<g id="logo_noir">
</g>
<g id="logo_blanc">
</g>
<g id="variation_logo">
</g>
<g id="admin">
</g>
<g id="recto_carte_visite">
</g>
<g id="verso_carte_visite">
</g>
<g id="Story_une">
</g>
<g id="RS">
</g>
</svg>
