<?xml version="1.0" encoding="utf-8"?>
<!-- Generator: Adobe Illustrator 27.0.1, SVG Export Plug-In . SVG Version: 6.00 Build 0)  -->
<svg version="1.1" xmlns="http://www.w3.org/2000/svg" xmlns:xlink="http://www.w3.org/1999/xlink" x="0px" y="0px"
	 viewBox="0 0 176.76 283.17" style="enable-background:new 0 0 176.76 283.17;" xml:space="preserve">
<style type="text/css">
	.st0{fill:#FFFFFF;stroke:#000000;stroke-miterlimit:10;}
	.st1{fill:#EBF6FA;}
	.st2{fill:#B4D8DC;}
	.st3{fill:#132D46;}
	.st4{fill:#FFFFFF;}
	.st5{fill:#F1EBF6;}
	.st6{fill:#C1B3D9;}
	.st7{fill:#321C45;}
</style>
<g id="Calque_13">
	<rect x="-27.2" y="-28.18" class="st0" width="475.27" height="508.19"/>
</g>
<g id="essais">
</g>
<g id="logo_complet">
	<g>
		<polygon class="st1" points="133.99,74.02 133.99,59.09 119.42,48.75 113.88,54.68 90.52,36.09 68.98,55.09 62.36,50.29 
			43.98,60.06 43.98,76.28 43.98,77.89 44.28,78.23 63.16,68 70.38,73.23 90.81,55.41 114.2,74.04 119.15,68.76 132.28,77.45 
			133.99,75.95 		"/>
		<polygon class="st2" points="133.99,74.02 120.05,64.4 114.5,70.33 91.15,51.74 69.6,70.74 62.99,65.95 43.98,76.28 43.98,77.89 
			43.98,85.84 43.98,86.56 44.91,87.59 63.79,77.36 71.01,82.59 91.43,64.77 114.83,83.4 119.78,78.13 132.91,86.81 133.99,85.86 
			133.99,83.59 133.99,75.95 		"/>
		<polygon class="st3" points="133.99,83.59 133.99,91.26 119.78,82.03 114.83,87.31 91.43,68.68 71.01,86.49 63.79,81.27 
			43.98,92.34 43.98,85.84 62.99,75.51 69.6,80.31 91.15,61.31 114.5,79.9 120.05,73.97 		"/>
		<g>
			<path class="st3" d="M54.13,94.24l3.04,15.98H55.1l-0.76-3.68h-3.78l-0.76,3.68h-0.77l3-15.98H54.13z M50.7,106.08h3.44
				l-1.64-10.05L50.7,106.08z"/>
			<path class="st3" d="M63.15,94.24c0.45,0,0.87,0.11,1.25,0.33c0.38,0.22,0.7,0.52,0.97,0.91c0.27,0.38,0.49,0.83,0.64,1.35
				c0.16,0.52,0.24,1.06,0.24,1.64c0,0.92-0.18,1.72-0.54,2.41c-0.36,0.69-0.92,1.15-1.68,1.38c1.5,0.25,2.25,1.32,2.25,3.21v3.1
				c0,1.02,0.39,1.64,1.17,1.85c-0.19,0.05-0.4,0.08-0.64,0.08c-0.91,0-1.58-0.18-2-0.53c-0.42-0.35-0.63-0.82-0.63-1.4v-3.91
				c0-0.26-0.05-0.53-0.15-0.78c-0.1-0.26-0.24-0.49-0.41-0.71c-0.17-0.21-0.36-0.39-0.58-0.52c-0.21-0.13-0.43-0.2-0.64-0.2h-2.19
				v7.76h-2.1V94.24H63.15z M60.23,102h2.15c0.29,0,0.54-0.08,0.76-0.24c0.22-0.16,0.4-0.39,0.55-0.68c0.14-0.29,0.25-0.62,0.33-1
				c0.08-0.38,0.11-0.78,0.11-1.22c0-0.6-0.07-1.16-0.22-1.67c-0.14-0.51-0.35-0.95-0.6-1.32c-0.26-0.37-0.57-0.66-0.93-0.87
				c-0.37-0.21-0.77-0.31-1.23-0.31h-0.93V102z"/>
			<path class="st3" d="M75.81,94.24v0.85c-0.18-0.26-0.52-0.4-1.02-0.4h-1.83v15.52h-2.1V94.69h-1.98c-0.06,0-0.14,0.01-0.25,0.04
				c-0.1,0.03-0.2,0.06-0.3,0.09c-0.1,0.04-0.19,0.08-0.26,0.12c-0.08,0.04-0.12,0.09-0.13,0.14v-0.85H75.81z"/>
			<path class="st3" d="M84.63,94.24v0.45h-5.91v7.27h3.42v0.45h-3.42v7.35h5.91v0.45h-8.01V94.24H84.63z"/>
			<path class="st3" d="M93.3,94.24v0.45h-5.91v7.5h4.17v0.45h-4.17v7.57h-2.1V94.24H93.3z"/>
			<path class="st3" d="M99.01,94.24l3.04,15.98h-2.08l-0.76-3.68h-3.78l-0.76,3.68h-0.77l3-15.98H99.01z M95.57,106.08h3.44
				l-1.64-10.05L95.57,106.08z"/>
			<path class="st3" d="M111.62,96.79c-0.13-0.3-0.3-0.58-0.52-0.84c-0.22-0.26-0.47-0.48-0.76-0.68c-0.28-0.19-0.58-0.35-0.9-0.46
				c-0.31-0.11-0.63-0.17-0.94-0.17c-0.55,0-1.05,0.18-1.48,0.55c-0.43,0.37-0.8,0.88-1.1,1.54c-0.3,0.66-0.52,1.46-0.67,2.38
				c-0.15,0.93-0.23,1.96-0.23,3.09c0,1.11,0.08,2.14,0.23,3.08s0.37,1.76,0.65,2.46c0.28,0.69,0.63,1.24,1.03,1.64
				c0.4,0.4,0.86,0.6,1.38,0.6c0.29,0,0.58-0.06,0.88-0.18c0.3-0.12,0.58-0.28,0.85-0.48c0.27-0.2,0.53-0.43,0.77-0.69
				c0.25-0.26,0.46-0.53,0.65-0.8h0.81c-0.49,0.96-1.14,1.65-1.94,2.08c-0.8,0.43-1.71,0.64-2.73,0.64c-0.83,0-1.55-0.15-2.15-0.46
				c-0.6-0.31-1.1-0.8-1.48-1.48c-0.38-0.68-0.67-1.56-0.85-2.63c-0.18-1.08-0.27-2.38-0.27-3.92c0-1.3,0.11-2.44,0.32-3.43
				c0.21-0.99,0.56-1.82,1.04-2.49c0.48-0.67,1.1-1.18,1.85-1.53c0.76-0.35,1.67-0.52,2.76-0.52c0.81,0,1.51,0.22,2.12,0.66
				c0.6,0.44,1.11,1.06,1.51,1.85L111.62,96.79z"/>
			<path class="st3" d="M120.86,94.24v0.85c-0.18-0.26-0.52-0.4-1.02-0.4H118v15.52h-2.1V94.69h-1.98c-0.06,0-0.14,0.01-0.25,0.04
				c-0.1,0.03-0.2,0.06-0.3,0.09c-0.1,0.04-0.19,0.08-0.26,0.12c-0.08,0.04-0.12,0.09-0.13,0.14v-0.85H120.86z"/>
			<path class="st3" d="M128.11,96.3c-0.29-0.45-0.6-0.82-0.93-1.09c-0.33-0.27-0.69-0.41-1.07-0.41c-0.39,0-0.74,0.07-1.05,0.22
				c-0.31,0.14-0.57,0.34-0.77,0.59c-0.21,0.25-0.37,0.54-0.48,0.87c-0.11,0.33-0.17,0.68-0.17,1.05c0,0.58,0.12,1.1,0.36,1.58
				c0.24,0.47,0.55,0.92,0.93,1.34s0.81,0.84,1.28,1.25c0.48,0.41,0.96,0.84,1.44,1.29c0.48,0.47,0.82,1.02,1.03,1.66
				c0.21,0.64,0.31,1.27,0.31,1.89c0,1.25-0.37,2.23-1.12,2.94c-0.75,0.71-1.79,1.07-3.13,1.07c-0.79,0-1.48-0.2-2.06-0.59
				c-0.58-0.4-1.01-0.97-1.3-1.73l0.76-0.47c0.08,0.26,0.19,0.52,0.35,0.76c0.16,0.25,0.35,0.46,0.58,0.65
				c0.23,0.19,0.48,0.34,0.76,0.45c0.28,0.11,0.57,0.17,0.87,0.17c0.29,0,0.57-0.07,0.84-0.22c0.27-0.14,0.51-0.36,0.71-0.64
				s0.36-0.63,0.48-1.05c0.12-0.42,0.18-0.89,0.18-1.42c0-0.53-0.1-1.06-0.31-1.59c-0.21-0.53-0.56-1.01-1.05-1.45
				c-0.48-0.43-0.94-0.84-1.39-1.24c-0.45-0.4-0.84-0.81-1.19-1.24c-0.35-0.43-0.62-0.89-0.83-1.38c-0.21-0.49-0.31-1.04-0.31-1.64
				c0-0.54,0.08-1.05,0.25-1.52c0.16-0.47,0.41-0.88,0.75-1.23c0.33-0.35,0.75-0.62,1.26-0.82c0.5-0.2,1.1-0.3,1.78-0.3
				c0.69,0,1.26,0.16,1.7,0.48c0.44,0.32,0.84,0.75,1.21,1.27L128.11,96.3z"/>
		</g>
		<g>
			<path class="st3" d="M50.97,113.18c0.18,0.24,0.27,0.55,0.27,0.95v0.43h-0.32v-0.45c0-0.29-0.06-0.53-0.19-0.71
				c-0.13-0.18-0.32-0.27-0.59-0.27c-0.27,0-0.47,0.09-0.59,0.27c-0.13,0.18-0.19,0.41-0.19,0.71v2.68c0,0.3,0.06,0.53,0.19,0.7
				c0.13,0.18,0.32,0.26,0.59,0.26c0.27,0,0.47-0.09,0.59-0.26c0.13-0.17,0.19-0.41,0.19-0.7v-0.61h0.32v0.59
				c0,0.39-0.09,0.71-0.27,0.95c-0.18,0.24-0.46,0.36-0.84,0.36c-0.38,0-0.66-0.12-0.84-0.36c-0.18-0.24-0.27-0.55-0.27-0.95v-2.64
				c0-0.39,0.09-0.71,0.27-0.95c0.18-0.24,0.46-0.36,0.84-0.36C50.5,112.82,50.78,112.94,50.97,113.18z"/>
			<path class="st3" d="M53.13,117.5c0.12,0.18,0.32,0.27,0.59,0.27c0.27,0,0.47-0.09,0.59-0.27s0.18-0.42,0.18-0.72v-3.92h0.32v3.9
				c0,0.39-0.09,0.71-0.27,0.95c-0.18,0.24-0.46,0.36-0.83,0.36c-0.37,0-0.65-0.12-0.83-0.36c-0.18-0.24-0.27-0.55-0.27-0.95v-3.9
				h0.34v3.92C52.95,117.08,53.01,117.32,53.13,117.5z"/>
			<path class="st3" d="M58.14,113.17c0.18,0.23,0.27,0.55,0.27,0.94v0.11h-0.32v-0.13c0-0.29-0.06-0.53-0.18-0.7
				c-0.12-0.17-0.32-0.26-0.58-0.26s-0.46,0.09-0.58,0.26c-0.12,0.17-0.18,0.4-0.18,0.69c0,0.19,0.04,0.35,0.12,0.5
				c0.08,0.14,0.18,0.27,0.29,0.38c0.12,0.11,0.27,0.23,0.48,0.38c0.21,0.15,0.38,0.29,0.52,0.41s0.24,0.26,0.33,0.44
				c0.09,0.17,0.13,0.37,0.13,0.6c0,0.39-0.09,0.71-0.27,0.94s-0.46,0.35-0.84,0.35c-0.38,0-0.66-0.12-0.84-0.35
				c-0.18-0.23-0.27-0.55-0.27-0.94v-0.27h0.32v0.29c0,0.3,0.06,0.53,0.19,0.7c0.13,0.17,0.32,0.25,0.59,0.25
				c0.27,0,0.47-0.08,0.59-0.25c0.13-0.17,0.19-0.4,0.19-0.7c0-0.19-0.04-0.35-0.12-0.49c-0.08-0.14-0.18-0.27-0.29-0.37
				c-0.12-0.1-0.27-0.23-0.47-0.37c-0.21-0.15-0.38-0.29-0.52-0.41c-0.13-0.12-0.24-0.27-0.34-0.44c-0.09-0.17-0.14-0.38-0.14-0.61
				c0-0.4,0.09-0.71,0.27-0.94c0.18-0.23,0.46-0.34,0.83-0.35C57.68,112.82,57.96,112.94,58.14,113.17z"/>
			<path class="st3" d="M60.66,113.17h-1.05v-0.31h2.44v0.31H61v4.85h-0.34V113.17z"/>
			<path class="st3" d="M63.57,113.18c0.19-0.24,0.47-0.36,0.84-0.36c0.38,0,0.67,0.12,0.86,0.35c0.19,0.24,0.28,0.55,0.28,0.95
				v2.64c0,0.4-0.09,0.72-0.28,0.95c-0.19,0.24-0.48,0.35-0.86,0.35c-0.37,0-0.66-0.12-0.84-0.36c-0.19-0.24-0.28-0.55-0.28-0.95
				v-2.64C63.29,113.73,63.38,113.42,63.57,113.18z M63.82,117.5c0.13,0.17,0.33,0.26,0.6,0.26c0.27,0,0.48-0.09,0.61-0.26
				c0.13-0.17,0.2-0.41,0.2-0.71v-2.68c0-0.3-0.07-0.54-0.2-0.71c-0.13-0.17-0.33-0.26-0.61-0.26c-0.27,0-0.47,0.09-0.6,0.26
				c-0.13,0.18-0.19,0.41-0.19,0.71v2.68C63.63,117.09,63.69,117.33,63.82,117.5z"/>
			<path class="st3" d="M68.35,118.02l-1.09-4.56v4.57h-0.3v-5.16h0.49l1.08,4.56l1.08-4.56h0.49v5.16h-0.32v-4.59l-1.08,4.58H68.35
				z"/>
			<path class="st3" d="M71.85,118.03h-0.34v-5.16h0.34V118.03z"/>
			<path class="st3" d="M75.18,113.17c0.18,0.23,0.27,0.55,0.27,0.94v0.11h-0.32v-0.13c0-0.29-0.06-0.53-0.18-0.7
				c-0.12-0.17-0.32-0.26-0.58-0.26c-0.27,0-0.46,0.09-0.58,0.26c-0.12,0.17-0.18,0.4-0.18,0.69c0,0.19,0.04,0.35,0.12,0.5
				c0.08,0.14,0.18,0.27,0.29,0.38c0.12,0.11,0.27,0.23,0.48,0.38c0.21,0.15,0.38,0.29,0.52,0.41c0.13,0.12,0.24,0.26,0.33,0.44
				c0.09,0.17,0.13,0.37,0.13,0.6c0,0.39-0.09,0.71-0.27,0.94s-0.46,0.35-0.84,0.35c-0.38,0-0.66-0.12-0.84-0.35
				c-0.18-0.23-0.27-0.55-0.27-0.94v-0.27h0.32v0.29c0,0.3,0.06,0.53,0.19,0.7c0.13,0.17,0.32,0.25,0.59,0.25
				c0.27,0,0.47-0.08,0.59-0.25c0.13-0.17,0.19-0.4,0.19-0.7c0-0.19-0.04-0.35-0.12-0.49c-0.08-0.14-0.18-0.27-0.29-0.37
				c-0.12-0.1-0.27-0.23-0.47-0.37c-0.21-0.15-0.38-0.29-0.52-0.41s-0.24-0.27-0.34-0.44c-0.09-0.17-0.14-0.38-0.14-0.61
				c0-0.4,0.09-0.71,0.27-0.94c0.18-0.23,0.46-0.34,0.83-0.35C74.72,112.82,75,112.94,75.18,113.17z"/>
			<path class="st3" d="M77.07,118.03h-0.31l1.13-5.17h0.49l1.15,5.17h-0.34l-0.26-1.14h-1.61L77.07,118.03z M78.88,116.59
				l-0.76-3.34l-0.75,3.34H78.88z"/>
			<path class="st3" d="M81.47,113.17h-1.05v-0.31h2.44v0.31h-1.05v4.85h-0.34V113.17z"/>
			<path class="st3" d="M84.46,118.03h-0.34v-5.16h0.34V118.03z"/>
			<path class="st3" d="M86.14,113.18c0.19-0.24,0.47-0.36,0.84-0.36c0.38,0,0.67,0.12,0.86,0.35c0.19,0.24,0.28,0.55,0.28,0.95
				v2.64c0,0.4-0.09,0.72-0.28,0.95c-0.19,0.24-0.48,0.35-0.86,0.35c-0.37,0-0.66-0.12-0.84-0.36c-0.19-0.24-0.28-0.55-0.28-0.95
				v-2.64C85.86,113.73,85.95,113.42,86.14,113.18z M86.39,117.5c0.13,0.17,0.33,0.26,0.6,0.26c0.27,0,0.48-0.09,0.61-0.26
				c0.13-0.17,0.2-0.41,0.2-0.71v-2.68c0-0.3-0.07-0.54-0.2-0.71c-0.13-0.17-0.33-0.26-0.61-0.26c-0.27,0-0.47,0.09-0.6,0.26
				c-0.13,0.18-0.19,0.41-0.19,0.71v2.68C86.2,117.09,86.26,117.33,86.39,117.5z"/>
			<path class="st3" d="M89.53,118.03v-5.16h0.44l1.55,4.36v-4.36h0.31v5.16h-0.38l-1.61-4.6v4.6H89.53z"/>
			<path class="st3" d="M97.12,113.17c0.18,0.23,0.27,0.55,0.27,0.94v0.11h-0.32v-0.13c0-0.29-0.06-0.53-0.18-0.7
				c-0.12-0.17-0.32-0.26-0.58-0.26c-0.27,0-0.46,0.09-0.58,0.26c-0.12,0.17-0.18,0.4-0.18,0.69c0,0.19,0.04,0.35,0.12,0.5
				c0.08,0.14,0.18,0.27,0.29,0.38c0.12,0.11,0.27,0.23,0.48,0.38c0.21,0.15,0.38,0.29,0.52,0.41s0.24,0.26,0.33,0.44
				c0.09,0.17,0.13,0.37,0.13,0.6c0,0.39-0.09,0.71-0.27,0.94s-0.46,0.35-0.84,0.35c-0.38,0-0.66-0.12-0.84-0.35
				c-0.18-0.23-0.27-0.55-0.27-0.94v-0.27h0.32v0.29c0,0.3,0.06,0.53,0.19,0.7c0.13,0.17,0.32,0.25,0.59,0.25
				c0.27,0,0.47-0.08,0.59-0.25c0.13-0.17,0.19-0.4,0.19-0.7c0-0.19-0.04-0.35-0.12-0.49c-0.08-0.14-0.18-0.27-0.29-0.37
				c-0.12-0.1-0.27-0.23-0.47-0.37c-0.21-0.15-0.38-0.29-0.52-0.41s-0.24-0.27-0.34-0.44c-0.09-0.17-0.14-0.38-0.14-0.61
				c0-0.4,0.09-0.71,0.27-0.94c0.18-0.23,0.46-0.34,0.83-0.35C96.67,112.82,96.94,112.94,97.12,113.17z"/>
			<path class="st3" d="M99.29,117.5c0.12,0.18,0.32,0.27,0.59,0.27c0.27,0,0.47-0.09,0.59-0.27c0.12-0.18,0.18-0.42,0.18-0.72
				v-3.92h0.32v3.9c0,0.39-0.09,0.71-0.27,0.95c-0.18,0.24-0.46,0.36-0.83,0.36c-0.37,0-0.65-0.12-0.83-0.36
				c-0.18-0.24-0.27-0.55-0.27-0.95v-3.9h0.34v3.92C99.1,117.08,99.17,117.32,99.29,117.5z"/>
			<path class="st3" d="M104.57,114.03v0.45c0,0.31-0.06,0.54-0.18,0.72c-0.12,0.18-0.31,0.29-0.56,0.35
				c0.5,0.11,0.74,0.46,0.74,1.05v0.8c0,0.28,0.04,0.49,0.13,0.62h-0.35c-0.04-0.07-0.07-0.16-0.09-0.25
				c-0.01-0.1-0.02-0.22-0.02-0.36v-0.81c0-0.32-0.08-0.55-0.24-0.68s-0.4-0.2-0.72-0.2h-0.54v2.31h-0.34v-5.16h1.08
				C104.2,112.87,104.57,113.25,104.57,114.03z M103.99,115.23c0.16-0.12,0.24-0.35,0.24-0.68v-0.49c0-0.29-0.06-0.51-0.18-0.66
				c-0.12-0.15-0.32-0.23-0.59-0.23h-0.73v2.24h0.55C103.59,115.41,103.84,115.35,103.99,115.23z"/>
			<path class="st3" d="M109.43,118.02l-1.09-4.56v4.57h-0.3v-5.16h0.49l1.08,4.56l1.08-4.56h0.49v5.16h-0.32v-4.59l-1.08,4.58
				H109.43z"/>
			<path class="st3" d="M114.35,115.56h-1.41v2.15h1.7v0.31h-2.04v-5.16h2.04v0.31h-1.7v2.08h1.41V115.56z"/>
			<path class="st3" d="M117.93,113.17c0.18,0.23,0.27,0.55,0.27,0.94v0.11h-0.32v-0.13c0-0.29-0.06-0.53-0.18-0.7
				c-0.12-0.17-0.32-0.26-0.58-0.26c-0.27,0-0.46,0.09-0.58,0.26c-0.12,0.17-0.18,0.4-0.18,0.69c0,0.19,0.04,0.35,0.12,0.5
				c0.08,0.14,0.18,0.27,0.29,0.38c0.12,0.11,0.27,0.23,0.48,0.38c0.21,0.15,0.38,0.29,0.52,0.41c0.13,0.12,0.24,0.26,0.33,0.44
				c0.09,0.17,0.13,0.37,0.13,0.6c0,0.39-0.09,0.71-0.27,0.94s-0.46,0.35-0.84,0.35c-0.38,0-0.66-0.12-0.84-0.35
				c-0.18-0.23-0.27-0.55-0.27-0.94v-0.27h0.32v0.29c0,0.3,0.06,0.53,0.19,0.7c0.13,0.17,0.32,0.25,0.59,0.25
				c0.27,0,0.47-0.08,0.59-0.25c0.13-0.17,0.19-0.4,0.19-0.7c0-0.19-0.04-0.35-0.12-0.49c-0.08-0.14-0.18-0.27-0.29-0.37
				c-0.12-0.1-0.27-0.23-0.47-0.37c-0.21-0.15-0.38-0.29-0.52-0.41s-0.24-0.27-0.34-0.44c-0.09-0.17-0.14-0.38-0.14-0.61
				c0-0.4,0.09-0.71,0.27-0.94c0.18-0.23,0.46-0.34,0.83-0.35C117.47,112.82,117.75,112.94,117.93,113.17z"/>
			<path class="st3" d="M120.09,117.5c0.12,0.18,0.32,0.27,0.59,0.27c0.27,0,0.47-0.09,0.59-0.27c0.12-0.18,0.18-0.42,0.18-0.72
				v-3.92h0.32v3.9c0,0.39-0.09,0.71-0.27,0.95c-0.18,0.24-0.46,0.36-0.83,0.36c-0.37,0-0.65-0.12-0.83-0.36
				c-0.18-0.24-0.27-0.55-0.27-0.95v-3.9h0.34v3.92C119.91,117.08,119.97,117.32,120.09,117.5z"/>
			<path class="st3" d="M125.37,114.03v0.45c0,0.31-0.06,0.54-0.18,0.72c-0.12,0.18-0.31,0.29-0.56,0.35
				c0.5,0.11,0.74,0.46,0.74,1.05v0.8c0,0.28,0.04,0.49,0.13,0.62h-0.35c-0.04-0.07-0.07-0.16-0.09-0.25
				c-0.01-0.1-0.02-0.22-0.02-0.36v-0.81c0-0.32-0.08-0.55-0.24-0.68s-0.4-0.2-0.72-0.2h-0.54v2.31h-0.34v-5.16h1.08
				C125,112.87,125.37,113.25,125.37,114.03z M124.79,115.23c0.16-0.12,0.24-0.35,0.24-0.68v-0.49c0-0.29-0.06-0.51-0.18-0.66
				c-0.12-0.15-0.32-0.23-0.59-0.23h-0.73v2.24h0.55C124.4,115.41,124.64,115.35,124.79,115.23z"/>
			<path class="st3" d="M128.61,115.56h-1.41v2.15h1.7v0.31h-2.04v-5.16h2.04v0.31h-1.7v2.08h1.41V115.56z"/>
		</g>
		<g>
			<path class="st3" d="M101.49,225.16c-2.26,1.08-4.43,2.49-6.81,3.19c-14.44,4.27-28.33-7.88-25.78-22.84
				c2.31-13.53,5.27-26.96,7.94-40.43c0.26-1.33,0.58-2.65,0.84-3.98c1.56-7.94-3.28-13.91-11.4-14
				c-5.07-0.06-10.15-0.02-15.22-0.01c-5.12,0-7.09-1.95-7.09-7.05c0-5.07-0.01-10.15-0.01-15.22c0-0.52,0.04-1.04,0.05-1.4
				c29.97,0,59.56,0.01,89.96,0.01c-0.09,2.23,0.03,14.23-0.03,17.71c-0.07,3.65-2.21,5.86-5.85,5.92
				c-5.43,0.09-10.85,0.02-16.28,0.05c-8.31,0.05-13.19,6.06-11.51,14.2c2.46,11.89,4.96,23.78,7.39,35.68
				c0.62,3.06,1.12,6.15,1.51,9.25c0.67,5.25-0.54,10.06-3.63,14.39c-0.16,0.23-0.23,0.52-0.34,0.79
				C104,222.66,102.75,223.91,101.49,225.16z M83.34,202.71c-3.04,3.03-3.08,8.11-0.1,11.18c3.02,3.1,8.23,3.16,11.34,0.14
				c3.11-3.03,3.13-8.23,0.04-11.31C91.46,199.57,86.5,199.56,83.34,202.71z"/>
		</g>
	</g>
</g>
<g id="logo_nom">
</g>
<g id="petit_logo">
</g>
<g id="logo_noir">
</g>
<g id="logo_blanc">
</g>
<g id="variation_logo">
</g>
<g id="admin">
</g>
<g id="recto_carte_visite">
</g>
<g id="verso_carte_visite">
</g>
<g id="Story_une">
</g>
<g id="RS">
</g>
</svg>
