<?xml version="1.0" encoding="utf-8"?>
<!-- Generator: Adobe Illustrator 27.0.1, SVG Export Plug-In . SVG Version: 6.00 Build 0)  -->
<svg version="1.1" xmlns="http://www.w3.org/2000/svg" xmlns:xlink="http://www.w3.org/1999/xlink" x="0px" y="0px"
	 viewBox="0 0 110.95 172.09" style="enable-background:new 0 0 110.95 172.09;" xml:space="preserve">
<style type="text/css">
	.st0{fill:#FFFFFF;stroke:#000000;stroke-miterlimit:10;}
	.st1{fill:#EBF6FA;}
	.st2{fill:#B4D8DC;}
	.st3{fill:#132D46;}
	.st4{fill:#FFFFFF;}
	.st5{fill:#F1EBF6;}
	.st6{fill:#C1B3D9;}
	.st7{fill:#321C45;}
</style>
<g id="Calque_13">
</g>
<g id="essais">
</g>
<g id="logo_complet">
</g>
<g id="logo_nom">
</g>
<g id="petit_logo">
</g>
<g id="logo_noir">
</g>
<g id="logo_blanc">
</g>
<g id="variation_logo">
	<g>
		<polygon class="st1" points="96.86,42.18 96.86,28.95 83.95,19.8 79.04,25.05 58.35,8.58 39.27,25.41 33.41,21.16 17.13,29.81 
			17.13,44.18 17.13,45.61 17.4,45.9 34.12,36.85 40.51,41.48 58.6,25.69 79.33,42.2 83.71,37.52 95.34,45.22 96.86,43.89 		"/>
		<polygon class="st2" points="96.86,42.18 84.51,33.66 79.59,38.91 58.91,22.44 39.82,39.27 33.96,35.03 17.13,44.18 17.13,45.61 
			17.13,52.65 17.13,53.29 17.95,54.19 34.68,45.14 41.07,49.76 59.16,33.98 79.88,50.49 84.26,45.81 95.89,53.51 96.86,52.66 
			96.86,50.65 96.86,43.89 		"/>
		<polygon class="st3" points="96.86,50.65 96.86,57.45 84.26,49.27 79.88,53.95 59.16,37.44 41.07,53.23 34.68,48.6 17.13,58.4 
			17.13,52.65 33.96,43.5 39.82,47.75 58.91,30.92 79.59,47.39 84.51,42.14 		"/>
		<g>
			<path class="st3" d="M68.07,155.25c-2.01,0.96-3.93,2.2-6.03,2.83c-12.79,3.78-25.09-6.98-22.84-20.23
				c2.04-11.99,4.66-23.88,7.03-35.81c0.23-1.18,0.51-2.35,0.74-3.53c1.38-7.03-2.9-12.32-10.1-12.4
				c-4.49-0.05-8.99-0.01-13.48-0.01c-4.54,0-6.28-1.73-6.28-6.24c0-4.49-0.01-8.99-0.01-13.48c0-0.46,0.03-0.93,0.05-1.24
				c26.55,0,52.76,0.01,79.68,0.01c-0.08,1.98,0.03,12.6-0.03,15.68c-0.06,3.23-1.96,5.19-5.18,5.25
				c-4.81,0.08-9.61,0.01-14.42,0.04c-7.36,0.04-11.68,5.37-10.19,12.57c2.17,10.54,4.39,21.06,6.54,31.6
				c0.55,2.71,0.99,5.45,1.34,8.19c0.6,4.65-0.48,8.91-3.21,12.74c-0.14,0.2-0.2,0.46-0.3,0.7
				C70.29,153.04,69.18,154.14,68.07,155.25z M51.99,135.36c-2.69,2.69-2.73,7.18-0.09,9.9c2.68,2.75,7.29,2.8,10.04,0.12
				c2.76-2.68,2.77-7.29,0.03-10.02C59.19,132.58,54.79,132.58,51.99,135.36z"/>
		</g>
	</g>
</g>
<g id="admin">
</g>
<g id="recto_carte_visite">
</g>
<g id="verso_carte_visite">
</g>
<g id="Story_une">
</g>
<g id="RS">
</g>
</svg>
