<?xml version="1.0" encoding="utf-8"?>
<!-- Generator: Adobe Illustrator 27.0.1, SVG Export Plug-In . SVG Version: 6.00 Build 0)  -->
<svg version="1.1" xmlns="http://www.w3.org/2000/svg" xmlns:xlink="http://www.w3.org/1999/xlink" x="0px" y="0px"
	 viewBox="0 0 107.8 198.43" style="enable-background:new 0 0 107.8 198.43;" xml:space="preserve">
<style type="text/css">
	.st0{fill:#FFFFFF;stroke:#000000;stroke-miterlimit:10;}
	.st1{fill:#EBF6FA;}
	.st2{fill:#B4D8DC;}
	.st3{fill:#132D46;}
	.st4{fill:#FFFFFF;}
	.st5{fill:#F1EBF6;}
	.st6{fill:#C1B3D9;}
	.st7{fill:#321C45;}
</style>
<g id="Calque_13">
</g>
<g id="essais">
</g>
<g id="logo_complet">
</g>
<g id="logo_nom">
	<g>
		<polygon class="st1" points="98.9,44.99 98.9,30.05 84.33,19.72 78.78,25.65 55.43,7.05 33.88,26.05 27.26,21.26 8.89,31.02 
			8.89,47.25 8.89,48.86 9.19,49.19 28.07,38.97 35.29,44.2 55.71,26.37 79.11,45.01 84.05,39.73 97.18,48.42 98.9,46.91 		"/>
		<polygon class="st2" points="98.9,44.99 84.96,35.37 79.41,41.3 56.06,22.71 34.51,41.71 27.89,36.91 8.89,47.25 8.89,48.86 
			8.89,56.81 8.89,57.53 9.82,58.55 28.7,48.33 35.91,53.55 56.34,35.74 79.74,54.37 84.68,49.09 97.81,57.78 98.9,56.82 
			98.9,54.55 98.9,46.91 		"/>
		<polygon class="st3" points="98.9,54.55 98.9,62.23 84.68,53 79.74,58.28 56.34,39.64 35.91,57.46 28.7,52.24 8.89,63.31 
			8.89,56.81 27.89,46.48 34.51,51.27 56.06,32.28 79.41,50.87 84.96,44.94 		"/>
		<g>
			<path class="st3" d="M19.73,64.89l2.98,15.66h-2.04l-0.74-3.61h-3.7l-0.74,3.61h-0.76l2.94-15.66H19.73z M16.36,76.5h3.37
				l-1.61-9.85L16.36,76.5z"/>
			<path class="st3" d="M28.57,64.89c0.45,0,0.85,0.11,1.22,0.32c0.37,0.22,0.69,0.51,0.96,0.89c0.27,0.38,0.48,0.82,0.63,1.32
				c0.15,0.51,0.23,1.04,0.23,1.61c0,0.9-0.18,1.69-0.53,2.37c-0.35,0.68-0.9,1.13-1.64,1.35c1.47,0.25,2.21,1.3,2.21,3.15v3.04
				c0,1,0.38,1.61,1.15,1.82c-0.19,0.05-0.4,0.07-0.63,0.07c-0.89,0-1.55-0.17-1.96-0.52c-0.41-0.35-0.62-0.8-0.62-1.37v-3.83
				c0-0.26-0.05-0.52-0.15-0.77c-0.1-0.25-0.23-0.48-0.4-0.69c-0.17-0.21-0.35-0.38-0.56-0.51c-0.21-0.13-0.42-0.19-0.63-0.19h-2.15
				v7.61h-2.05V64.89H28.57z M25.71,72.5h2.11c0.28,0,0.53-0.08,0.75-0.24c0.22-0.16,0.39-0.38,0.54-0.66
				c0.14-0.28,0.25-0.61,0.32-0.98c0.07-0.37,0.11-0.77,0.11-1.2c0-0.59-0.07-1.14-0.21-1.63c-0.14-0.5-0.34-0.93-0.59-1.29
				c-0.25-0.36-0.56-0.65-0.92-0.85c-0.36-0.2-0.76-0.3-1.2-0.3h-0.91V72.5z"/>
			<path class="st3" d="M40.98,64.89v0.83c-0.17-0.26-0.51-0.39-1-0.39h-1.8v15.22h-2.05V65.34h-1.94c-0.06,0-0.14,0.01-0.24,0.04
				c-0.1,0.03-0.2,0.06-0.3,0.09c-0.1,0.04-0.18,0.08-0.26,0.12c-0.07,0.04-0.12,0.09-0.13,0.14v-0.83H40.98z"/>
			<path class="st3" d="M49.63,64.89v0.44h-5.79v7.13h3.35v0.44h-3.35v7.2h5.79v0.44h-7.85V64.89H49.63z"/>
			<path class="st3" d="M58.13,64.89v0.44h-5.79v7.35h4.09v0.44h-4.09v7.42h-2.05V64.89H58.13z"/>
			<path class="st3" d="M63.72,64.89l2.98,15.66h-2.04l-0.74-3.61h-3.7l-0.74,3.61h-0.76l2.94-15.66H63.72z M60.35,76.5h3.37
				l-1.61-9.85L60.35,76.5z"/>
			<path class="st3" d="M76.08,67.39c-0.12-0.3-0.29-0.57-0.51-0.82c-0.22-0.25-0.46-0.47-0.74-0.67c-0.28-0.19-0.57-0.34-0.88-0.45
				c-0.31-0.11-0.62-0.17-0.93-0.17c-0.54,0-1.03,0.18-1.45,0.54c-0.43,0.36-0.78,0.86-1.07,1.51c-0.29,0.65-0.51,1.43-0.66,2.34
				c-0.15,0.91-0.22,1.92-0.22,3.03c0,1.09,0.07,2.09,0.22,3.02s0.36,1.73,0.64,2.41c0.28,0.68,0.61,1.21,1.01,1.6
				c0.39,0.39,0.85,0.58,1.35,0.58c0.28,0,0.57-0.06,0.86-0.18c0.29-0.12,0.57-0.27,0.83-0.47c0.27-0.2,0.52-0.42,0.76-0.68
				c0.24-0.25,0.45-0.52,0.64-0.79h0.8c-0.48,0.94-1.11,1.62-1.9,2.04c-0.78,0.42-1.68,0.63-2.68,0.63c-0.81,0-1.52-0.15-2.11-0.45
				s-1.08-0.79-1.45-1.45c-0.38-0.67-0.65-1.53-0.83-2.58c-0.18-1.06-0.27-2.34-0.27-3.84c0-1.27,0.1-2.39,0.31-3.36
				c0.21-0.97,0.55-1.78,1.02-2.44c0.47-0.66,1.07-1.16,1.81-1.5c0.74-0.34,1.64-0.51,2.7-0.51c0.79,0,1.48,0.22,2.07,0.65
				c0.59,0.43,1.09,1.04,1.48,1.81L76.08,67.39z"/>
			<path class="st3" d="M85.13,64.89v0.83c-0.17-0.26-0.51-0.39-1-0.39h-1.8v15.22h-2.05V65.34h-1.94c-0.06,0-0.14,0.01-0.24,0.04
				c-0.1,0.03-0.2,0.06-0.3,0.09c-0.1,0.04-0.18,0.08-0.26,0.12c-0.07,0.04-0.12,0.09-0.13,0.14v-0.83H85.13z"/>
			<path class="st3" d="M92.24,66.91c-0.28-0.44-0.59-0.8-0.92-1.06c-0.33-0.27-0.68-0.4-1.05-0.4c-0.38,0-0.73,0.07-1.03,0.21
				c-0.3,0.14-0.56,0.33-0.76,0.57c-0.2,0.24-0.36,0.52-0.47,0.85c-0.11,0.33-0.17,0.67-0.17,1.03c0,0.57,0.12,1.08,0.35,1.55
				c0.23,0.46,0.54,0.9,0.91,1.31s0.79,0.82,1.26,1.22c0.47,0.4,0.94,0.82,1.41,1.27c0.47,0.46,0.81,1,1.01,1.63
				c0.2,0.63,0.31,1.25,0.31,1.85c0,1.22-0.37,2.18-1.1,2.88c-0.73,0.7-1.76,1.05-3.06,1.05c-0.78,0-1.45-0.19-2.02-0.58
				c-0.57-0.39-0.99-0.95-1.28-1.69l0.74-0.46c0.07,0.26,0.19,0.51,0.34,0.75s0.34,0.45,0.56,0.64c0.22,0.19,0.47,0.33,0.74,0.44
				c0.27,0.11,0.56,0.17,0.85,0.17c0.28,0,0.56-0.07,0.82-0.21c0.27-0.14,0.5-0.35,0.69-0.63c0.2-0.28,0.35-0.62,0.47-1.03
				c0.12-0.41,0.18-0.87,0.18-1.39c0-0.52-0.1-1.04-0.31-1.55c-0.2-0.52-0.55-0.99-1.03-1.43c-0.47-0.42-0.92-0.82-1.36-1.21
				c-0.44-0.39-0.83-0.79-1.17-1.21c-0.34-0.42-0.61-0.87-0.81-1.35c-0.2-0.48-0.31-1.02-0.31-1.61c0-0.53,0.08-1.03,0.24-1.49
				c0.16-0.46,0.4-0.86,0.73-1.2c0.33-0.34,0.74-0.61,1.23-0.81c0.49-0.2,1.07-0.3,1.74-0.3c0.68,0,1.23,0.16,1.67,0.47
				c0.43,0.31,0.83,0.73,1.18,1.25L92.24,66.91z"/>
		</g>
		<g>
			<path class="st3" d="M66.4,187.32c-2.26,1.08-4.43,2.49-6.81,3.19c-14.44,4.27-28.33-7.88-25.78-22.84
				c2.31-13.53,5.27-26.96,7.94-40.43c0.26-1.33,0.58-2.65,0.84-3.98c1.56-7.94-3.28-13.91-11.4-14
				c-5.07-0.06-10.15-0.02-15.22-0.01c-5.12,0-7.09-1.95-7.09-7.05c0-5.07-0.01-10.15-0.01-15.22c0-0.52,0.04-1.04,0.05-1.4
				c29.97,0,59.56,0.01,89.96,0.01c-0.09,2.23,0.03,14.23-0.03,17.71c-0.07,3.65-2.21,5.86-5.85,5.92
				c-5.43,0.09-10.85,0.02-16.28,0.05c-8.31,0.05-13.19,6.06-11.51,14.2c2.46,11.89,4.96,23.78,7.39,35.68
				c0.62,3.06,1.12,6.15,1.51,9.25c0.67,5.25-0.54,10.06-3.63,14.39c-0.16,0.23-0.23,0.52-0.34,0.79
				C68.91,184.82,67.65,186.07,66.4,187.32z M48.25,164.87c-3.04,3.03-3.08,8.11-0.1,11.18c3.02,3.1,8.23,3.16,11.34,0.14
				c3.11-3.03,3.13-8.23,0.04-11.31C56.37,161.72,51.41,161.72,48.25,164.87z"/>
		</g>
	</g>
</g>
<g id="petit_logo">
</g>
<g id="logo_noir">
</g>
<g id="logo_blanc">
</g>
<g id="variation_logo">
</g>
<g id="admin">
</g>
<g id="recto_carte_visite">
</g>
<g id="verso_carte_visite">
</g>
<g id="Story_une">
</g>
<g id="RS">
</g>
</svg>
