<?xml version="1.0" encoding="utf-8"?>
<!-- Generator: Adobe Illustrator 27.0.1, SVG Export Plug-In . SVG Version: 6.00 Build 0)  -->
<svg version="1.1" xmlns="http://www.w3.org/2000/svg" xmlns:xlink="http://www.w3.org/1999/xlink" x="0px" y="0px"
	 viewBox="0 0 107.8 198.43" style="enable-background:new 0 0 107.8 198.43;" xml:space="preserve">
<style type="text/css">
	.st0{fill:#FFFFFF;stroke:#000000;stroke-miterlimit:10;}
	.st1{fill:#EBF6FA;}
	.st2{fill:#B4D8DC;}
	.st3{fill:#132D46;}
	.st4{fill:#FFFFFF;}
	.st5{fill:#F1EBF6;}
	.st6{fill:#C1B3D9;}
	.st7{fill:#321C45;}
</style>
<g id="Calque_13">
</g>
<g id="essais">
</g>
<g id="logo_complet">
</g>
<g id="logo_nom">
</g>
<g id="petit_logo">
</g>
<g id="logo_noir">
	<g>
		<path d="M19.03,64.73l3.04,15.98h-2.08l-0.76-3.68h-3.78l-0.76,3.68h-0.77l3-15.98H19.03z M15.59,76.57h3.44l-1.64-10.05
			L15.59,76.57z"/>
		<path d="M28.05,64.73c0.45,0,0.87,0.11,1.25,0.33c0.38,0.22,0.7,0.52,0.98,0.91c0.27,0.38,0.49,0.83,0.64,1.35
			c0.16,0.52,0.24,1.06,0.24,1.64c0,0.92-0.18,1.72-0.54,2.42c-0.36,0.69-0.92,1.15-1.68,1.38c1.5,0.25,2.25,1.32,2.25,3.22v3.1
			c0,1.02,0.39,1.64,1.17,1.85c-0.19,0.05-0.4,0.08-0.64,0.08c-0.91,0-1.58-0.18-2-0.53c-0.42-0.35-0.63-0.82-0.63-1.4v-3.91
			c0-0.26-0.05-0.53-0.15-0.78c-0.1-0.26-0.24-0.49-0.41-0.71c-0.17-0.21-0.36-0.39-0.58-0.52c-0.21-0.13-0.43-0.2-0.64-0.2h-2.19
			v7.77h-2.1V64.73H28.05z M25.13,72.49h2.15c0.29,0,0.54-0.08,0.77-0.24c0.22-0.16,0.4-0.39,0.55-0.68c0.14-0.29,0.26-0.62,0.33-1
			c0.08-0.38,0.11-0.78,0.11-1.22c0-0.6-0.07-1.16-0.22-1.67c-0.14-0.51-0.35-0.95-0.6-1.32c-0.26-0.37-0.57-0.66-0.94-0.87
			c-0.37-0.21-0.77-0.31-1.23-0.31h-0.93V72.49z"/>
		<path d="M40.72,64.73v0.85c-0.18-0.26-0.52-0.4-1.02-0.4h-1.83v15.53h-2.1V65.18h-1.98c-0.06,0-0.14,0.01-0.25,0.04
			c-0.1,0.03-0.2,0.06-0.3,0.09c-0.1,0.04-0.19,0.08-0.26,0.12c-0.08,0.04-0.12,0.09-0.13,0.14v-0.85H40.72z"/>
		<path d="M49.54,64.73v0.45h-5.91v7.27h3.42v0.45h-3.42v7.35h5.91v0.45h-8.01V64.73H49.54z"/>
		<path d="M58.21,64.73v0.45H52.3v7.5h4.18v0.45H52.3v7.58h-2.1V64.73H58.21z"/>
		<path d="M63.92,64.73l3.04,15.98h-2.08l-0.76-3.68h-3.78l-0.76,3.68h-0.77l3-15.98H63.92z M60.48,76.57h3.44l-1.64-10.05
			L60.48,76.57z"/>
		<path d="M76.54,67.28c-0.13-0.3-0.3-0.58-0.52-0.84c-0.22-0.26-0.47-0.48-0.76-0.68c-0.28-0.19-0.58-0.35-0.9-0.46
			c-0.31-0.11-0.63-0.17-0.94-0.17c-0.55,0-1.05,0.18-1.48,0.55c-0.43,0.37-0.8,0.88-1.1,1.54c-0.3,0.66-0.52,1.46-0.67,2.38
			c-0.15,0.93-0.23,1.96-0.23,3.09c0,1.11,0.08,2.14,0.23,3.08c0.15,0.95,0.37,1.77,0.65,2.46c0.28,0.69,0.63,1.24,1.03,1.64
			c0.4,0.4,0.86,0.6,1.38,0.6c0.29,0,0.58-0.06,0.88-0.18c0.3-0.12,0.58-0.28,0.85-0.48c0.27-0.2,0.53-0.43,0.77-0.69
			c0.25-0.26,0.46-0.53,0.65-0.8h0.81c-0.49,0.96-1.14,1.65-1.94,2.08c-0.8,0.43-1.71,0.64-2.73,0.64c-0.83,0-1.55-0.15-2.15-0.46
			c-0.6-0.31-1.1-0.8-1.48-1.48c-0.38-0.68-0.67-1.56-0.85-2.64c-0.18-1.08-0.27-2.38-0.27-3.92c0-1.3,0.11-2.44,0.32-3.43
			c0.21-0.99,0.56-1.82,1.04-2.49c0.48-0.67,1.1-1.18,1.85-1.53c0.76-0.35,1.67-0.52,2.76-0.52c0.81,0,1.51,0.22,2.12,0.66
			c0.6,0.44,1.11,1.06,1.51,1.85L76.54,67.28z"/>
		<path d="M85.78,64.73v0.85c-0.18-0.26-0.52-0.4-1.02-0.4h-1.83v15.53h-2.1V65.18h-1.98c-0.06,0-0.14,0.01-0.25,0.04
			c-0.1,0.03-0.2,0.06-0.3,0.09c-0.1,0.04-0.19,0.08-0.26,0.12c-0.08,0.04-0.12,0.09-0.13,0.14v-0.85H85.78z"/>
		<path d="M93.03,66.79c-0.29-0.45-0.6-0.82-0.93-1.09c-0.33-0.27-0.69-0.41-1.07-0.41c-0.39,0-0.74,0.07-1.05,0.22
			c-0.31,0.14-0.57,0.34-0.77,0.59c-0.21,0.25-0.37,0.54-0.48,0.87c-0.11,0.33-0.17,0.68-0.17,1.05c0,0.58,0.12,1.11,0.36,1.58
			c0.24,0.47,0.55,0.92,0.93,1.34c0.38,0.42,0.81,0.84,1.28,1.25c0.48,0.41,0.96,0.84,1.44,1.29c0.48,0.47,0.82,1.02,1.03,1.66
			c0.21,0.64,0.31,1.27,0.31,1.89c0,1.25-0.37,2.23-1.12,2.94c-0.75,0.71-1.79,1.07-3.13,1.07c-0.79,0-1.48-0.2-2.06-0.59
			c-0.58-0.4-1.01-0.97-1.3-1.73l0.76-0.47c0.08,0.26,0.19,0.52,0.35,0.77c0.16,0.25,0.35,0.46,0.58,0.65
			c0.23,0.19,0.48,0.34,0.76,0.45c0.28,0.11,0.57,0.17,0.87,0.17c0.29,0,0.57-0.07,0.84-0.22c0.27-0.14,0.51-0.36,0.71-0.64
			c0.2-0.28,0.36-0.63,0.48-1.05c0.12-0.42,0.18-0.89,0.18-1.42c0-0.53-0.1-1.06-0.31-1.59c-0.21-0.53-0.56-1.01-1.05-1.45
			c-0.48-0.43-0.94-0.84-1.39-1.24c-0.45-0.4-0.84-0.81-1.19-1.24c-0.35-0.43-0.62-0.89-0.83-1.38c-0.21-0.49-0.31-1.04-0.31-1.64
			c0-0.54,0.08-1.05,0.25-1.52c0.16-0.47,0.41-0.88,0.75-1.23c0.33-0.35,0.75-0.62,1.26-0.82c0.5-0.2,1.1-0.3,1.78-0.3
			c0.69,0,1.26,0.16,1.7,0.48s0.84,0.75,1.21,1.28L93.03,66.79z"/>
	</g>
	<g>
		<path d="M66.4,187.32c-2.26,1.08-4.43,2.49-6.81,3.19c-14.44,4.27-28.33-7.88-25.78-22.84c2.31-13.53,5.27-26.96,7.94-40.43
			c0.26-1.33,0.58-2.65,0.84-3.98c1.56-7.94-3.28-13.91-11.4-14c-5.07-0.06-10.15-0.02-15.22-0.01c-5.12,0-7.09-1.95-7.09-7.05
			c0-5.07-0.01-10.15-0.01-15.22c0-0.52,0.04-1.04,0.05-1.4c29.97,0,59.56,0.01,89.96,0.01c-0.09,2.23,0.03,14.23-0.03,17.71
			c-0.07,3.65-2.21,5.86-5.85,5.92c-5.43,0.09-10.85,0.02-16.28,0.05c-8.31,0.05-13.19,6.06-11.51,14.2
			c2.46,11.89,4.96,23.78,7.39,35.68c0.62,3.06,1.12,6.15,1.51,9.25c0.67,5.25-0.54,10.06-3.63,14.39
			c-0.16,0.23-0.23,0.52-0.34,0.79C68.91,184.82,67.65,186.07,66.4,187.32z M48.25,164.87c-3.04,3.03-3.08,8.11-0.1,11.18
			c3.02,3.1,8.23,3.16,11.34,0.14c3.11-3.03,3.13-8.23,0.04-11.31C56.37,161.72,51.41,161.72,48.25,164.87z"/>
	</g>
	<g>
		<polygon points="84.35,19.7 78.8,25.63 55.44,7.03 33.89,26.03 27.28,21.24 8.9,31 8.9,47.23 27.9,36.89 34.52,41.69 56.07,22.69 
			79.43,41.28 84.98,35.35 98.92,44.97 98.92,30.03 		"/>
		<polygon points="85.28,38.06 79.51,43.58 56.13,24.82 34.51,43.65 27.73,38.4 9,49.17 8.9,56.79 27.9,46.46 34.52,51.26 
			56.07,32.26 79.43,50.85 84.98,44.92 98.92,54.53 98.92,46.9 		"/>
		<polygon points="85.36,47.64 79.75,54.35 56.11,34.65 34.87,53.37 27.88,48.48 8.93,58.54 8.9,63.29 28.71,52.22 35.93,57.44 
			56.36,39.62 79.75,58.26 84.7,52.98 98.92,62.21 98.92,56.8 		"/>
	</g>
</g>
<g id="logo_blanc">
</g>
<g id="variation_logo">
</g>
<g id="admin">
</g>
<g id="recto_carte_visite">
</g>
<g id="verso_carte_visite">
</g>
<g id="Story_une">
</g>
<g id="RS">
</g>
</svg>
