<?xml version="1.0" encoding="utf-8"?>
<!-- Generator: Adobe Illustrator 27.0.1, SVG Export Plug-In . SVG Version: 6.00 Build 0)  -->
<svg version="1.1" xmlns="http://www.w3.org/2000/svg" xmlns:xlink="http://www.w3.org/1999/xlink" x="0px" y="0px"
	 viewBox="0 0 101.65 96.67" style="enable-background:new 0 0 101.65 96.67;" xml:space="preserve">
<style type="text/css">
	.st0{fill:#FFFFFF;stroke:#000000;stroke-miterlimit:10;}
	.st1{fill:#EBF6FA;}
	.st2{fill:#B4D8DC;}
	.st3{fill:#132D46;}
	.st4{fill:#FFFFFF;}
	.st5{fill:#F1EBF6;}
	.st6{fill:#C1B3D9;}
	.st7{fill:#321C45;}
</style>
<g id="Calque_13">
</g>
<g id="essais">
</g>
<g id="logo_complet">
</g>
<g id="logo_nom">
</g>
<g id="petit_logo">
	<g>
		<polygon class="st1" points="95.83,44.52 95.83,29.59 81.26,19.25 75.71,25.18 52.35,6.59 30.81,25.59 24.19,20.79 5.81,30.56 
			5.81,46.78 5.81,48.39 6.11,48.72 24.99,38.5 32.21,43.73 52.64,25.91 76.03,44.54 80.98,39.26 94.11,47.95 95.83,46.45 		"/>
		<polygon class="st2" points="95.83,44.52 81.88,34.9 76.34,40.83 52.98,22.24 31.44,41.24 24.82,36.44 5.81,46.78 5.81,48.39 
			5.81,56.34 5.81,57.06 6.74,58.09 25.62,47.86 32.84,53.08 53.27,35.27 76.66,53.9 81.61,48.62 94.74,57.31 95.83,56.36 
			95.83,54.08 95.83,46.45 		"/>
		<polygon class="st3" points="95.83,54.08 95.83,61.76 81.61,52.53 76.66,57.81 53.27,39.17 32.84,56.99 25.62,51.77 5.81,62.84 
			5.81,56.34 24.82,46.01 31.44,50.81 52.98,31.81 76.34,50.4 81.88,44.47 		"/>
		<g>
			<path class="st3" d="M14.92,64.38l3.13,16.46h-2.14l-0.78-3.79h-3.89l-0.78,3.79h-0.8l3.09-16.46H14.92z M11.37,76.58h3.54
				l-1.69-10.35L11.37,76.58z"/>
			<path class="st3" d="M24.21,64.38c0.47,0,0.9,0.11,1.29,0.34c0.39,0.23,0.72,0.54,1,0.93c0.28,0.39,0.5,0.86,0.66,1.39
				c0.16,0.53,0.24,1.09,0.24,1.69c0,0.95-0.19,1.77-0.56,2.49c-0.37,0.71-0.95,1.19-1.73,1.42c1.55,0.26,2.32,1.36,2.32,3.31v3.19
				c0,1.05,0.4,1.69,1.21,1.91c-0.19,0.05-0.42,0.08-0.66,0.08c-0.94,0-1.62-0.18-2.06-0.54c-0.43-0.36-0.65-0.84-0.65-1.44v-4.03
				c0-0.27-0.05-0.54-0.16-0.81c-0.1-0.27-0.24-0.51-0.42-0.73c-0.18-0.22-0.37-0.4-0.59-0.53c-0.22-0.14-0.44-0.2-0.66-0.2H21.2v8
				h-2.16V64.38H24.21z M21.2,72.38h2.22c0.3,0,0.56-0.08,0.79-0.25c0.23-0.17,0.42-0.4,0.56-0.7c0.15-0.3,0.26-0.64,0.34-1.03
				c0.08-0.39,0.12-0.81,0.12-1.26c0-0.62-0.07-1.19-0.22-1.72c-0.15-0.52-0.36-0.98-0.62-1.36c-0.27-0.38-0.59-0.68-0.96-0.89
				c-0.38-0.21-0.8-0.32-1.26-0.32H21.2V72.38z"/>
			<path class="st3" d="M37.25,64.38v0.88c-0.18-0.27-0.53-0.41-1.05-0.41h-1.89v15.99h-2.16V64.85h-2.04
				c-0.06,0-0.15,0.01-0.25,0.04c-0.1,0.03-0.21,0.06-0.31,0.1s-0.19,0.08-0.27,0.13c-0.08,0.05-0.12,0.09-0.14,0.15v-0.88H37.25z"
				/>
			<path class="st3" d="M46.33,64.38v0.47h-6.09v7.49h3.52v0.47h-3.52v7.57h6.09v0.47h-8.25V64.38H46.33z"/>
			<path class="st3" d="M55.26,64.38v0.47h-6.09v7.72h4.3v0.47h-4.3v7.8h-2.16V64.38H55.26z"/>
			<path class="st3" d="M61.14,64.38l3.13,16.46h-2.14l-0.78-3.79h-3.89l-0.78,3.79h-0.8l3.09-16.46H61.14z M57.6,76.58h3.54
				l-1.69-10.35L57.6,76.58z"/>
			<path class="st3" d="M74.13,67.01c-0.13-0.31-0.31-0.6-0.54-0.87c-0.23-0.27-0.49-0.5-0.78-0.7c-0.29-0.2-0.6-0.36-0.92-0.48
				c-0.32-0.12-0.65-0.17-0.97-0.17c-0.57,0-1.08,0.19-1.53,0.56c-0.45,0.38-0.82,0.91-1.13,1.59c-0.31,0.68-0.54,1.5-0.69,2.45
				c-0.16,0.95-0.23,2.02-0.23,3.18c0,1.14,0.08,2.2,0.23,3.17c0.16,0.97,0.38,1.82,0.67,2.53c0.29,0.71,0.65,1.28,1.06,1.69
				c0.42,0.41,0.89,0.61,1.42,0.61c0.3,0,0.6-0.06,0.9-0.18c0.3-0.12,0.6-0.29,0.88-0.5c0.28-0.21,0.55-0.44,0.8-0.71
				c0.25-0.27,0.48-0.54,0.67-0.83h0.84c-0.51,0.99-1.17,1.7-1.99,2.14c-0.82,0.44-1.76,0.66-2.81,0.66c-0.86,0-1.59-0.16-2.22-0.48
				s-1.13-0.83-1.53-1.53c-0.4-0.7-0.69-1.61-0.88-2.71c-0.19-1.11-0.28-2.45-0.28-4.04c0-1.34,0.11-2.51,0.33-3.53
				c0.22-1.02,0.58-1.87,1.07-2.57c0.49-0.69,1.13-1.22,1.91-1.58c0.78-0.36,1.72-0.54,2.84-0.54c0.83,0,1.56,0.23,2.18,0.68
				c0.62,0.45,1.14,1.09,1.56,1.91L74.13,67.01z"/>
			<path class="st3" d="M83.65,64.38v0.88c-0.18-0.27-0.53-0.41-1.05-0.41h-1.89v15.99h-2.16V64.85h-2.04
				c-0.07,0-0.15,0.01-0.25,0.04c-0.1,0.03-0.21,0.06-0.31,0.1s-0.19,0.08-0.27,0.13c-0.08,0.05-0.12,0.09-0.14,0.15v-0.88H83.65z"
				/>
			<path class="st3" d="M91.12,66.5c-0.3-0.47-0.62-0.84-0.96-1.12s-0.71-0.42-1.1-0.42c-0.4,0-0.76,0.08-1.08,0.22
				c-0.32,0.15-0.58,0.35-0.8,0.6c-0.21,0.25-0.38,0.55-0.5,0.89c-0.12,0.34-0.18,0.7-0.18,1.08c0,0.6,0.12,1.14,0.37,1.62
				c0.25,0.49,0.56,0.95,0.95,1.38c0.39,0.43,0.83,0.86,1.32,1.28c0.49,0.42,0.99,0.87,1.48,1.33c0.49,0.48,0.85,1.05,1.06,1.71
				c0.21,0.66,0.32,1.31,0.32,1.95c0,1.28-0.39,2.29-1.16,3.03c-0.77,0.73-1.84,1.1-3.22,1.1c-0.82,0-1.52-0.2-2.12-0.61
				c-0.6-0.41-1.04-1-1.34-1.78l0.78-0.49c0.08,0.27,0.2,0.54,0.36,0.79c0.16,0.25,0.36,0.48,0.59,0.67
				c0.23,0.19,0.49,0.35,0.78,0.47c0.29,0.12,0.58,0.18,0.89,0.18c0.3,0,0.59-0.07,0.87-0.22c0.28-0.15,0.52-0.37,0.73-0.66
				c0.21-0.29,0.37-0.65,0.5-1.08c0.12-0.43,0.18-0.91,0.18-1.46c0-0.55-0.11-1.09-0.32-1.63c-0.21-0.55-0.57-1.04-1.08-1.5
				c-0.49-0.44-0.97-0.87-1.43-1.27c-0.46-0.41-0.87-0.83-1.23-1.27c-0.36-0.44-0.64-0.91-0.86-1.42c-0.21-0.51-0.32-1.07-0.32-1.69
				c0-0.56,0.08-1.08,0.25-1.57c0.17-0.49,0.42-0.91,0.77-1.26c0.34-0.36,0.77-0.64,1.29-0.85c0.52-0.21,1.13-0.31,1.83-0.31
				c0.71,0,1.3,0.17,1.75,0.5s0.87,0.77,1.25,1.31L91.12,66.5z"/>
		</g>
		<g>
			<path class="st3" d="M11.65,83.89c0.19,0.25,0.28,0.57,0.28,0.98v0.44H11.6v-0.46c0-0.3-0.06-0.55-0.19-0.73
				c-0.13-0.18-0.33-0.27-0.61-0.27c-0.28,0-0.48,0.09-0.61,0.27s-0.19,0.43-0.19,0.73v2.76c0,0.3,0.06,0.55,0.19,0.73
				c0.13,0.18,0.33,0.27,0.61,0.27c0.28,0,0.48-0.09,0.61-0.27c0.13-0.18,0.19-0.42,0.19-0.73v-0.63h0.33v0.61
				c0,0.41-0.09,0.73-0.28,0.98c-0.19,0.25-0.48,0.37-0.87,0.37c-0.39,0-0.68-0.12-0.87-0.37c-0.19-0.25-0.28-0.57-0.28-0.98v-2.72
				c0-0.41,0.09-0.73,0.28-0.98c0.19-0.25,0.48-0.37,0.87-0.37C11.18,83.52,11.47,83.65,11.65,83.89z"/>
			<path class="st3" d="M13.89,88.34c0.13,0.18,0.33,0.27,0.61,0.27c0.28,0,0.48-0.09,0.61-0.27c0.13-0.18,0.19-0.43,0.19-0.74
				v-4.03h0.33v4.02c0,0.41-0.09,0.73-0.28,0.98c-0.18,0.25-0.47,0.37-0.85,0.37c-0.39,0-0.67-0.12-0.86-0.37
				c-0.19-0.25-0.28-0.57-0.28-0.98v-4.02h0.35v4.03C13.7,87.91,13.76,88.16,13.89,88.34z"/>
			<path class="st3" d="M19.04,83.88c0.18,0.24,0.28,0.56,0.28,0.97v0.11h-0.33v-0.14c0-0.3-0.06-0.54-0.19-0.72
				c-0.13-0.18-0.33-0.27-0.6-0.27s-0.47,0.09-0.6,0.27c-0.13,0.18-0.19,0.42-0.19,0.71c0,0.19,0.04,0.36,0.12,0.51
				c0.08,0.15,0.18,0.28,0.3,0.39c0.12,0.11,0.28,0.24,0.49,0.39c0.22,0.16,0.39,0.3,0.53,0.42c0.14,0.12,0.25,0.27,0.34,0.45
				c0.09,0.18,0.14,0.39,0.14,0.62c0,0.41-0.09,0.73-0.28,0.97c-0.19,0.24-0.48,0.36-0.87,0.36c-0.39,0-0.68-0.12-0.87-0.36
				c-0.19-0.24-0.28-0.56-0.28-0.97v-0.27h0.33v0.3c0,0.3,0.06,0.54,0.19,0.72c0.13,0.17,0.33,0.26,0.61,0.26
				c0.28,0,0.48-0.09,0.61-0.26c0.13-0.17,0.19-0.41,0.19-0.72c0-0.19-0.04-0.36-0.12-0.51c-0.08-0.15-0.18-0.27-0.3-0.38
				c-0.12-0.11-0.28-0.24-0.48-0.38c-0.22-0.16-0.4-0.3-0.53-0.42s-0.25-0.28-0.35-0.46c-0.09-0.18-0.14-0.39-0.14-0.63
				c0-0.41,0.09-0.73,0.28-0.96c0.19-0.23,0.47-0.35,0.85-0.36C18.57,83.52,18.85,83.64,19.04,83.88z"/>
			<path class="st3" d="M21.64,83.89h-1.08v-0.32h2.51v0.32h-1.09v5h-0.35V83.89z"/>
			<path class="st3" d="M24.64,83.89c0.19-0.25,0.48-0.37,0.87-0.37c0.39,0,0.69,0.12,0.88,0.36c0.19,0.24,0.29,0.57,0.29,0.98v2.72
				c0,0.41-0.1,0.74-0.29,0.98c-0.2,0.24-0.49,0.36-0.88,0.36c-0.39,0-0.68-0.12-0.87-0.37c-0.2-0.25-0.29-0.57-0.29-0.98v-2.72
				C24.35,84.46,24.44,84.14,24.64,83.89z M24.89,88.34c0.13,0.18,0.34,0.27,0.62,0.27c0.28,0,0.49-0.09,0.63-0.27
				c0.13-0.18,0.2-0.42,0.2-0.73v-2.76c0-0.31-0.07-0.55-0.2-0.73c-0.13-0.18-0.34-0.27-0.63-0.27c-0.28,0-0.48,0.09-0.62,0.27
				c-0.13,0.18-0.2,0.42-0.2,0.73v2.76C24.69,87.92,24.76,88.16,24.89,88.34z"/>
			<path class="st3" d="M29.56,88.88l-1.12-4.7v4.71h-0.31v-5.32h0.5l1.12,4.7l1.11-4.7h0.5v5.32h-0.33v-4.72l-1.11,4.72H29.56z"/>
			<path class="st3" d="M33.16,88.89h-0.35v-5.32h0.35V88.89z"/>
			<path class="st3" d="M36.59,83.88c0.18,0.24,0.28,0.56,0.28,0.97v0.11h-0.33v-0.14c0-0.3-0.06-0.54-0.19-0.72
				c-0.13-0.18-0.33-0.27-0.6-0.27s-0.47,0.09-0.6,0.27c-0.13,0.18-0.19,0.42-0.19,0.71c0,0.19,0.04,0.36,0.12,0.51
				c0.08,0.15,0.18,0.28,0.3,0.39s0.28,0.24,0.49,0.39c0.22,0.16,0.39,0.3,0.53,0.42c0.14,0.12,0.25,0.27,0.34,0.45
				c0.09,0.18,0.14,0.39,0.14,0.62c0,0.41-0.09,0.73-0.28,0.97c-0.19,0.24-0.48,0.36-0.87,0.36c-0.39,0-0.68-0.12-0.87-0.36
				c-0.19-0.24-0.28-0.56-0.28-0.97v-0.27h0.33v0.3c0,0.3,0.06,0.54,0.19,0.72c0.13,0.17,0.33,0.26,0.61,0.26
				c0.28,0,0.48-0.09,0.61-0.26c0.13-0.17,0.19-0.41,0.19-0.72c0-0.19-0.04-0.36-0.12-0.51s-0.18-0.27-0.3-0.38
				c-0.12-0.11-0.28-0.24-0.48-0.38c-0.22-0.16-0.4-0.3-0.53-0.42c-0.14-0.12-0.25-0.28-0.35-0.46c-0.09-0.18-0.14-0.39-0.14-0.63
				c0-0.41,0.09-0.73,0.28-0.96c0.19-0.23,0.47-0.35,0.85-0.36C36.12,83.52,36.41,83.64,36.59,83.88z"/>
			<path class="st3" d="M38.54,88.89h-0.32l1.16-5.32h0.51l1.19,5.32h-0.35l-0.27-1.18h-1.66L38.54,88.89z M40.41,87.4l-0.78-3.44
				l-0.77,3.44H40.41z"/>
			<path class="st3" d="M43.08,83.89H42v-0.32h2.51v0.32h-1.09v5h-0.35V83.89z"/>
			<path class="st3" d="M46.15,88.89H45.8v-5.32h0.35V88.89z"/>
			<path class="st3" d="M47.89,83.89c0.19-0.25,0.48-0.37,0.87-0.37c0.39,0,0.69,0.12,0.88,0.36c0.19,0.24,0.29,0.57,0.29,0.98v2.72
				c0,0.41-0.1,0.74-0.29,0.98c-0.2,0.24-0.49,0.36-0.88,0.36c-0.39,0-0.67-0.12-0.87-0.37c-0.2-0.25-0.29-0.57-0.29-0.98v-2.72
				C47.6,84.46,47.69,84.14,47.89,83.89z M48.14,88.34c0.13,0.18,0.34,0.27,0.62,0.27c0.28,0,0.49-0.09,0.63-0.27
				c0.13-0.18,0.2-0.42,0.2-0.73v-2.76c0-0.31-0.07-0.55-0.2-0.73c-0.13-0.18-0.34-0.27-0.63-0.27c-0.28,0-0.48,0.09-0.62,0.27
				c-0.13,0.18-0.2,0.42-0.2,0.73v2.76C47.95,87.92,48.01,88.16,48.14,88.34z"/>
			<path class="st3" d="M51.37,88.89v-5.32h0.46l1.6,4.49v-4.49h0.32v5.32h-0.39l-1.66-4.74v4.74H51.37z"/>
			<path class="st3" d="M59.2,83.88c0.18,0.24,0.28,0.56,0.28,0.97v0.11h-0.33v-0.14c0-0.3-0.06-0.54-0.19-0.72
				c-0.13-0.18-0.33-0.27-0.6-0.27s-0.47,0.09-0.6,0.27c-0.13,0.18-0.19,0.42-0.19,0.71c0,0.19,0.04,0.36,0.12,0.51
				c0.08,0.15,0.18,0.28,0.3,0.39c0.12,0.11,0.28,0.24,0.49,0.39c0.22,0.16,0.39,0.3,0.53,0.42c0.14,0.12,0.25,0.27,0.34,0.45
				c0.09,0.18,0.14,0.39,0.14,0.62c0,0.41-0.09,0.73-0.28,0.97c-0.19,0.24-0.48,0.36-0.87,0.36c-0.39,0-0.68-0.12-0.87-0.36
				c-0.19-0.24-0.28-0.56-0.28-0.97v-0.27h0.33v0.3c0,0.3,0.06,0.54,0.19,0.72s0.33,0.26,0.61,0.26c0.28,0,0.48-0.09,0.61-0.26
				c0.13-0.17,0.19-0.41,0.19-0.72c0-0.19-0.04-0.36-0.12-0.51c-0.08-0.15-0.18-0.27-0.3-0.38c-0.12-0.11-0.28-0.24-0.48-0.38
				c-0.22-0.16-0.4-0.3-0.53-0.42c-0.14-0.12-0.25-0.28-0.35-0.46c-0.09-0.18-0.14-0.39-0.14-0.63c0-0.41,0.09-0.73,0.28-0.96
				c0.19-0.23,0.47-0.35,0.85-0.36C58.73,83.52,59.01,83.64,59.2,83.88z"/>
			<path class="st3" d="M61.43,88.34c0.13,0.18,0.33,0.27,0.61,0.27c0.28,0,0.48-0.09,0.61-0.27c0.13-0.18,0.19-0.43,0.19-0.74
				v-4.03h0.33v4.02c0,0.41-0.09,0.73-0.28,0.98c-0.18,0.25-0.47,0.37-0.85,0.37c-0.39,0-0.67-0.12-0.86-0.37
				c-0.19-0.25-0.28-0.57-0.28-0.98v-4.02h0.35v4.03C61.24,87.91,61.3,88.16,61.43,88.34z"/>
			<path class="st3" d="M66.87,84.77v0.46c0,0.31-0.06,0.56-0.19,0.74c-0.12,0.18-0.32,0.3-0.58,0.36c0.51,0.11,0.77,0.47,0.77,1.09
				v0.83c0,0.29,0.04,0.51,0.13,0.64h-0.36c-0.05-0.08-0.08-0.16-0.09-0.26s-0.02-0.22-0.02-0.38v-0.84c0-0.33-0.08-0.57-0.25-0.7
				c-0.17-0.13-0.42-0.2-0.74-0.2h-0.55v2.38h-0.35v-5.32h1.11C66.49,83.57,66.87,83.97,66.87,84.77z M66.28,86
				c0.16-0.13,0.24-0.36,0.24-0.7v-0.5c0-0.3-0.06-0.53-0.19-0.68c-0.13-0.15-0.33-0.23-0.61-0.23h-0.75v2.3h0.56
				C65.87,86.19,66.11,86.13,66.28,86z"/>
			<path class="st3" d="M71.88,88.88l-1.12-4.7v4.71h-0.31v-5.32h0.5l1.12,4.7l1.11-4.7h0.5v5.32h-0.33v-4.72l-1.11,4.72H71.88z"/>
			<path class="st3" d="M76.94,86.35h-1.45v2.22h1.75v0.32h-2.1v-5.32h2.1v0.32h-1.75v2.14h1.45V86.35z"/>
			<path class="st3" d="M80.63,83.88c0.18,0.24,0.28,0.56,0.28,0.97v0.11h-0.33v-0.14c0-0.3-0.06-0.54-0.19-0.72
				c-0.13-0.18-0.33-0.27-0.6-0.27c-0.27,0-0.47,0.09-0.6,0.27c-0.13,0.18-0.19,0.42-0.19,0.71c0,0.19,0.04,0.36,0.12,0.51
				c0.08,0.15,0.18,0.28,0.3,0.39c0.12,0.11,0.28,0.24,0.49,0.39c0.22,0.16,0.39,0.3,0.53,0.42c0.14,0.12,0.25,0.27,0.34,0.45
				c0.09,0.18,0.14,0.39,0.14,0.62c0,0.41-0.09,0.73-0.28,0.97c-0.19,0.24-0.48,0.36-0.87,0.36c-0.39,0-0.68-0.12-0.87-0.36
				c-0.19-0.24-0.28-0.56-0.28-0.97v-0.27h0.33v0.3c0,0.3,0.06,0.54,0.19,0.72c0.13,0.17,0.33,0.26,0.61,0.26
				c0.28,0,0.48-0.09,0.61-0.26c0.13-0.17,0.19-0.41,0.19-0.72c0-0.19-0.04-0.36-0.12-0.51c-0.08-0.15-0.18-0.27-0.3-0.38
				c-0.12-0.11-0.28-0.24-0.48-0.38c-0.22-0.16-0.39-0.3-0.53-0.42s-0.25-0.28-0.35-0.46c-0.09-0.18-0.14-0.39-0.14-0.63
				c0-0.41,0.09-0.73,0.28-0.96c0.19-0.23,0.47-0.35,0.85-0.36C80.16,83.52,80.44,83.64,80.63,83.88z"/>
			<path class="st3" d="M82.86,88.34c0.13,0.18,0.33,0.27,0.61,0.27s0.48-0.09,0.61-0.27c0.13-0.18,0.19-0.43,0.19-0.74v-4.03h0.33
				v4.02c0,0.41-0.09,0.73-0.28,0.98c-0.18,0.25-0.47,0.37-0.86,0.37c-0.38,0-0.67-0.12-0.86-0.37c-0.19-0.25-0.28-0.57-0.28-0.98
				v-4.02h0.35v4.03C82.67,87.91,82.73,88.16,82.86,88.34z"/>
			<path class="st3" d="M88.3,84.77v0.46c0,0.31-0.06,0.56-0.19,0.74c-0.12,0.18-0.32,0.3-0.58,0.36c0.51,0.11,0.77,0.47,0.77,1.09
				v0.83c0,0.29,0.04,0.51,0.13,0.64h-0.36c-0.05-0.08-0.08-0.16-0.09-0.26s-0.02-0.22-0.02-0.38v-0.84c0-0.33-0.08-0.57-0.25-0.7
				c-0.17-0.13-0.42-0.2-0.74-0.2H86.4v2.38h-0.35v-5.32h1.11C87.92,83.57,88.3,83.97,88.3,84.77z M87.7,86
				c0.16-0.13,0.24-0.36,0.24-0.7v-0.5c0-0.3-0.06-0.53-0.19-0.68c-0.13-0.15-0.33-0.23-0.61-0.23H86.4v2.3h0.56
				C87.29,86.19,87.54,86.13,87.7,86z"/>
			<path class="st3" d="M91.64,86.35h-1.45v2.22h1.75v0.32h-2.1v-5.32h2.1v0.32h-1.75v2.14h1.45V86.35z"/>
		</g>
	</g>
</g>
<g id="logo_noir">
</g>
<g id="logo_blanc">
</g>
<g id="variation_logo">
</g>
<g id="admin">
</g>
<g id="recto_carte_visite">
</g>
<g id="verso_carte_visite">
</g>
<g id="Story_une">
</g>
<g id="RS">
</g>
</svg>
