<?xml version="1.0" encoding="utf-8"?>
<!-- Generator: Adobe Illustrator 27.0.1, SVG Export Plug-In . SVG Version: 6.00 Build 0)  -->
<svg version="1.1" xmlns="http://www.w3.org/2000/svg" xmlns:xlink="http://www.w3.org/1999/xlink" x="0px" y="0px"
	 viewBox="0 0 231.42 83.22" style="enable-background:new 0 0 231.42 83.22;" xml:space="preserve">
<style type="text/css">
	.st0{fill:#FFFFFF;stroke:#000000;stroke-miterlimit:10;}
	.st1{fill:#EBF6FA;}
	.st2{fill:#B4D8DC;}
	.st3{fill:#132D46;}
	.st4{fill:#FFFFFF;}
	.st5{fill:#F1EBF6;}
	.st6{fill:#C1B3D9;}
	.st7{fill:#321C45;}
</style>
<g id="Calque_13">
</g>
<g id="essais">
</g>
<g id="logo_complet">
</g>
<g id="logo_nom">
</g>
<g id="petit_logo">
</g>
<g id="logo_noir">
</g>
<g id="logo_blanc">
</g>
<g id="variation_logo">
	<g>
		<path d="M63.46,20.72l6.19,32.52h-4.23l-1.54-7.5h-7.69l-1.54,7.5h-1.58l6.11-32.52H63.46z M56.46,44.81h7l-3.34-20.45
			L56.46,44.81z"/>
		<path d="M81.81,20.72c0.92,0,1.77,0.22,2.54,0.67c0.77,0.45,1.43,1.06,1.98,1.84c0.55,0.78,0.99,1.7,1.31,2.74
			c0.32,1.05,0.48,2.16,0.48,3.34c0,1.87-0.37,3.51-1.1,4.91c-0.73,1.41-1.87,2.34-3.41,2.8c3.06,0.51,4.59,2.69,4.59,6.54v6.31
			c0,2.08,0.79,3.33,2.38,3.77c-0.38,0.1-0.82,0.15-1.31,0.15c-1.86,0-3.21-0.36-4.06-1.08c-0.85-0.72-1.28-1.67-1.28-2.84v-7.96
			c0-0.54-0.1-1.07-0.31-1.6c-0.2-0.52-0.48-1.01-0.83-1.44c-0.35-0.44-0.74-0.79-1.17-1.06c-0.44-0.27-0.87-0.4-1.31-0.4h-4.46
			v15.8H71.6V20.72H81.81z M75.87,36.51h4.38c0.59,0,1.11-0.17,1.56-0.5c0.45-0.33,0.82-0.79,1.11-1.38
			c0.29-0.59,0.52-1.26,0.67-2.03c0.15-0.77,0.23-1.6,0.23-2.49c0-1.23-0.15-2.36-0.44-3.39c-0.29-1.03-0.71-1.93-1.23-2.68
			c-0.53-0.75-1.16-1.34-1.9-1.76c-0.74-0.42-1.58-0.63-2.5-0.63h-1.88V36.51z"/>
		<path d="M107.58,20.72v1.73c-0.36-0.54-1.05-0.81-2.08-0.81h-3.73v31.59h-4.27V21.64h-4.04c-0.13,0-0.29,0.03-0.5,0.08
			c-0.21,0.05-0.41,0.12-0.62,0.19s-0.38,0.16-0.54,0.25c-0.15,0.09-0.24,0.19-0.27,0.29v-1.73H107.58z"/>
		<path d="M125.53,20.72v0.92H113.5v14.8h6.96v0.92h-6.96v14.95h12.03v0.92h-16.3V20.72H125.53z"/>
		<path d="M143.17,20.72v0.92h-12.03V36.9h8.49v0.92h-8.49v15.41h-4.27V20.72H143.17z"/>
		<path d="M154.78,20.72l6.19,32.52h-4.23l-1.54-7.5h-7.69l-1.54,7.5h-1.58l6.11-32.52H154.78z M147.78,44.81h7l-3.34-20.45
			L147.78,44.81z"/>
		<path d="M180.45,25.9c-0.26-0.62-0.61-1.18-1.06-1.71c-0.45-0.53-0.96-0.99-1.54-1.38c-0.58-0.4-1.19-0.71-1.83-0.94
			c-0.64-0.23-1.28-0.35-1.92-0.35c-1.13,0-2.13,0.37-3.02,1.12c-0.88,0.74-1.63,1.79-2.23,3.14c-0.6,1.35-1.06,2.96-1.36,4.85
			c-0.31,1.89-0.46,3.98-0.46,6.29c0,2.26,0.15,4.35,0.46,6.27c0.31,1.92,0.75,3.59,1.33,5c0.58,1.41,1.27,2.52,2.1,3.33
			c0.82,0.81,1.75,1.21,2.81,1.21c0.59,0,1.18-0.12,1.79-0.37c0.6-0.24,1.18-0.57,1.73-0.98c0.55-0.41,1.08-0.88,1.58-1.4
			c0.5-0.53,0.94-1.07,1.33-1.63h1.65c-1,1.95-2.31,3.36-3.94,4.23c-1.63,0.87-3.48,1.31-5.55,1.31c-1.69,0-3.15-0.31-4.38-0.94
			c-1.23-0.63-2.24-1.63-3.02-3.02c-0.78-1.38-1.36-3.17-1.73-5.36c-0.37-2.19-0.56-4.85-0.56-7.98c0-2.64,0.22-4.96,0.65-6.98
			c0.44-2.01,1.14-3.7,2.11-5.07c0.97-1.37,2.23-2.41,3.77-3.11c1.54-0.71,3.41-1.06,5.61-1.06c1.64,0,3.07,0.45,4.3,1.35
			c1.23,0.9,2.25,2.15,3.07,3.77L180.45,25.9z"/>
		<path d="M199.25,20.72v1.73c-0.36-0.54-1.05-0.81-2.08-0.81h-3.73v31.59h-4.27V21.64h-4.04c-0.13,0-0.29,0.03-0.5,0.08
			c-0.21,0.05-0.41,0.12-0.62,0.19c-0.2,0.08-0.38,0.16-0.54,0.25c-0.15,0.09-0.24,0.19-0.27,0.29v-1.73H199.25z"/>
		<path d="M214.01,24.9c-0.59-0.92-1.22-1.66-1.9-2.21c-0.68-0.55-1.4-0.83-2.17-0.83c-0.79,0-1.51,0.15-2.13,0.44
			c-0.63,0.29-1.15,0.69-1.58,1.19c-0.42,0.5-0.75,1.09-0.98,1.77c-0.23,0.68-0.35,1.39-0.35,2.13c0,1.18,0.24,2.25,0.73,3.21
			c0.49,0.96,1.11,1.87,1.88,2.73c0.77,0.86,1.64,1.7,2.61,2.54c0.97,0.83,1.95,1.71,2.92,2.63c0.97,0.95,1.67,2.08,2.09,3.38
			c0.42,1.31,0.63,2.59,0.63,3.84c0,2.54-0.76,4.53-2.29,5.98s-3.65,2.17-6.36,2.17c-1.61,0-3.01-0.4-4.19-1.21
			s-2.06-1.98-2.65-3.52l1.54-0.96c0.15,0.54,0.39,1.06,0.71,1.56c0.32,0.5,0.71,0.94,1.17,1.32c0.46,0.38,0.97,0.69,1.54,0.92
			c0.56,0.23,1.15,0.35,1.77,0.35c0.59,0,1.16-0.15,1.71-0.44c0.55-0.29,1.03-0.73,1.44-1.31s0.74-1.29,0.98-2.13
			c0.24-0.85,0.37-1.81,0.37-2.88c0-1.08-0.21-2.15-0.63-3.23c-0.42-1.08-1.13-2.06-2.13-2.96c-0.97-0.87-1.92-1.71-2.83-2.52
			c-0.91-0.81-1.72-1.65-2.42-2.52c-0.71-0.87-1.27-1.81-1.69-2.81c-0.42-1-0.63-2.11-0.63-3.34c0-1.1,0.17-2.13,0.5-3.09
			c0.33-0.96,0.84-1.79,1.52-2.5c0.68-0.71,1.53-1.26,2.56-1.67c1.02-0.41,2.23-0.61,3.61-0.61c1.41,0,2.56,0.33,3.46,0.98
			c0.9,0.65,1.72,1.52,2.46,2.59L214.01,24.9z"/>
	</g>
	<g>
		<path d="M57.01,59.26c0.37,0.49,0.56,1.13,0.56,1.93v0.87h-0.66v-0.91c0-0.6-0.13-1.08-0.38-1.44c-0.26-0.36-0.66-0.54-1.21-0.54
			c-0.55,0-0.95,0.18-1.21,0.54s-0.38,0.84-0.38,1.44v5.46c0,0.6,0.13,1.08,0.38,1.43c0.26,0.36,0.66,0.53,1.21,0.53
			c0.55,0,0.95-0.18,1.21-0.53c0.26-0.35,0.38-0.83,0.38-1.43v-1.24h0.66v1.2c0,0.8-0.19,1.44-0.56,1.93
			c-0.37,0.49-0.94,0.73-1.71,0.73c-0.77,0-1.34-0.24-1.71-0.73c-0.37-0.48-0.56-1.13-0.56-1.93v-5.37c0-0.8,0.19-1.44,0.56-1.93
			c0.37-0.49,0.94-0.73,1.71-0.73C56.07,58.53,56.64,58.77,57.01,59.26z"/>
		<path d="M61.42,68.05c0.25,0.36,0.65,0.54,1.2,0.54c0.55,0,0.95-0.18,1.2-0.54s0.38-0.85,0.38-1.46v-7.97h0.65v7.94
			c0,0.8-0.18,1.44-0.55,1.93c-0.37,0.49-0.93,0.73-1.69,0.73c-0.76,0-1.33-0.24-1.7-0.73c-0.37-0.48-0.56-1.13-0.56-1.93v-7.94
			h0.69v7.97C61.05,67.2,61.17,67.69,61.42,68.05z"/>
		<path d="M71.6,59.24c0.36,0.48,0.55,1.11,0.55,1.91v0.23h-0.66v-0.27c0-0.6-0.13-1.08-0.38-1.43c-0.25-0.35-0.65-0.53-1.19-0.53
			c-0.54,0-0.94,0.18-1.19,0.53c-0.25,0.35-0.38,0.82-0.38,1.41c0,0.38,0.08,0.72,0.24,1.01c0.16,0.29,0.36,0.55,0.59,0.77
			c0.23,0.22,0.56,0.47,0.97,0.77c0.43,0.31,0.78,0.58,1.05,0.82c0.27,0.24,0.5,0.53,0.68,0.89c0.18,0.35,0.27,0.76,0.27,1.23
			c0,0.8-0.19,1.44-0.56,1.91c-0.37,0.47-0.94,0.71-1.71,0.71c-0.77,0-1.34-0.24-1.71-0.71c-0.37-0.47-0.56-1.11-0.56-1.91v-0.54
			h0.66v0.58c0,0.6,0.13,1.07,0.38,1.42c0.26,0.34,0.66,0.52,1.21,0.52c0.55,0,0.95-0.17,1.21-0.52c0.26-0.35,0.38-0.82,0.38-1.42
			c0-0.38-0.08-0.71-0.24-1c-0.16-0.29-0.36-0.54-0.59-0.76c-0.23-0.21-0.55-0.47-0.95-0.76c-0.43-0.31-0.78-0.59-1.05-0.83
			c-0.27-0.25-0.5-0.55-0.68-0.9c-0.19-0.35-0.28-0.77-0.28-1.24c0-0.81,0.19-1.45,0.56-1.91c0.37-0.46,0.93-0.7,1.68-0.71
			C70.68,58.53,71.24,58.77,71.6,59.24z"/>
		<path d="M76.75,59.25h-2.13v-0.63h4.97v0.63h-2.15v9.88h-0.69V59.25z"/>
		<path d="M82.67,59.26c0.38-0.49,0.96-0.73,1.72-0.73c0.78,0,1.36,0.24,1.75,0.72c0.38,0.48,0.58,1.13,0.58,1.94v5.37
			c0,0.81-0.19,1.46-0.58,1.94c-0.39,0.48-0.97,0.72-1.75,0.72c-0.76,0-1.33-0.24-1.72-0.73c-0.39-0.48-0.58-1.13-0.58-1.93v-5.37
			C82.09,60.39,82.28,59.74,82.67,59.26z M83.17,68.05c0.26,0.35,0.67,0.53,1.22,0.53c0.56,0,0.97-0.18,1.24-0.53
			c0.26-0.35,0.4-0.84,0.4-1.45v-5.46c0-0.61-0.13-1.09-0.4-1.45c-0.27-0.35-0.68-0.53-1.24-0.53c-0.55,0-0.96,0.18-1.22,0.53
			c-0.26,0.36-0.39,0.84-0.39,1.45v5.46C82.78,67.21,82.91,67.7,83.17,68.05z"/>
		<path d="M92.38,69.11l-2.22-9.29v9.3h-0.62V58.62h0.99l2.21,9.29l2.19-9.29h0.99v10.51h-0.66v-9.33l-2.19,9.32H92.38z"/>
		<path d="M99.51,69.13h-0.69V58.62h0.69V69.13z"/>
		<path d="M106.29,59.24c0.36,0.48,0.55,1.11,0.55,1.91v0.23h-0.66v-0.27c0-0.6-0.13-1.08-0.38-1.43c-0.25-0.35-0.65-0.53-1.19-0.53
			c-0.54,0-0.94,0.18-1.19,0.53c-0.25,0.35-0.38,0.82-0.38,1.41c0,0.38,0.08,0.72,0.24,1.01c0.16,0.29,0.36,0.55,0.59,0.77
			s0.56,0.47,0.97,0.77c0.43,0.31,0.78,0.58,1.05,0.82c0.27,0.24,0.5,0.53,0.68,0.89c0.18,0.35,0.27,0.76,0.27,1.23
			c0,0.8-0.19,1.44-0.56,1.91c-0.37,0.47-0.94,0.71-1.71,0.71c-0.77,0-1.34-0.24-1.71-0.71c-0.37-0.47-0.56-1.11-0.56-1.91v-0.54
			h0.66v0.58c0,0.6,0.13,1.07,0.38,1.42c0.26,0.34,0.66,0.52,1.21,0.52c0.55,0,0.95-0.17,1.21-0.52c0.26-0.35,0.38-0.82,0.38-1.42
			c0-0.38-0.08-0.71-0.24-1c-0.16-0.29-0.36-0.54-0.59-0.76c-0.23-0.21-0.55-0.47-0.95-0.76c-0.43-0.31-0.78-0.59-1.05-0.83
			c-0.27-0.25-0.5-0.55-0.68-0.9c-0.19-0.35-0.28-0.77-0.28-1.24c0-0.81,0.19-1.45,0.56-1.91c0.37-0.46,0.93-0.7,1.68-0.71
			C105.36,58.53,105.92,58.77,106.29,59.24z"/>
		<path d="M110.14,69.13h-0.63l2.3-10.52h1.01l2.34,10.52h-0.69l-0.53-2.33h-3.27L110.14,69.13z M113.83,66.2l-1.55-6.8l-1.52,6.8
			H113.83z"/>
		<path d="M119.1,59.25h-2.13v-0.63h4.97v0.63h-2.15v9.88h-0.69V59.25z"/>
		<path d="M125.17,69.13h-0.69V58.62h0.69V69.13z"/>
		<path d="M128.6,59.26c0.38-0.49,0.96-0.73,1.72-0.73c0.78,0,1.36,0.24,1.75,0.72c0.38,0.48,0.58,1.13,0.58,1.94v5.37
			c0,0.81-0.19,1.46-0.58,1.94c-0.39,0.48-0.97,0.72-1.75,0.72c-0.76,0-1.33-0.24-1.72-0.73c-0.39-0.48-0.58-1.13-0.58-1.93v-5.37
			C128.02,60.39,128.22,59.74,128.6,59.26z M129.11,68.05c0.26,0.35,0.67,0.53,1.22,0.53c0.56,0,0.97-0.18,1.24-0.53
			c0.26-0.35,0.4-0.84,0.4-1.45v-5.46c0-0.61-0.13-1.09-0.4-1.45c-0.27-0.35-0.68-0.53-1.24-0.53c-0.55,0-0.96,0.18-1.22,0.53
			c-0.26,0.36-0.39,0.84-0.39,1.45v5.46C128.72,67.21,128.85,67.7,129.11,68.05z"/>
		<path d="M135.48,69.13V58.62h0.9l3.15,8.87v-8.87h0.63v10.51h-0.77l-3.29-9.36v9.36H135.48z"/>
		<path d="M150.95,59.24c0.36,0.48,0.55,1.11,0.55,1.91v0.23h-0.66v-0.27c0-0.6-0.13-1.08-0.38-1.43c-0.25-0.35-0.65-0.53-1.19-0.53
			c-0.54,0-0.94,0.18-1.19,0.53c-0.25,0.35-0.38,0.82-0.38,1.41c0,0.38,0.08,0.72,0.24,1.01c0.16,0.29,0.36,0.55,0.59,0.77
			s0.56,0.47,0.97,0.77c0.43,0.31,0.78,0.58,1.05,0.82c0.27,0.24,0.5,0.53,0.68,0.89c0.18,0.35,0.27,0.76,0.27,1.23
			c0,0.8-0.19,1.44-0.56,1.91c-0.37,0.47-0.94,0.71-1.71,0.71c-0.77,0-1.34-0.24-1.71-0.71c-0.37-0.47-0.56-1.11-0.56-1.91v-0.54
			h0.66v0.58c0,0.6,0.13,1.07,0.38,1.42c0.26,0.34,0.66,0.52,1.21,0.52c0.55,0,0.95-0.17,1.21-0.52c0.26-0.35,0.38-0.82,0.38-1.42
			c0-0.38-0.08-0.71-0.24-1c-0.16-0.29-0.36-0.54-0.59-0.76c-0.23-0.21-0.55-0.47-0.95-0.76c-0.43-0.31-0.78-0.59-1.05-0.83
			c-0.27-0.25-0.5-0.55-0.68-0.9c-0.19-0.35-0.28-0.77-0.28-1.24c0-0.81,0.19-1.45,0.56-1.91c0.37-0.46,0.93-0.7,1.68-0.71
			C150.02,58.53,150.58,58.77,150.95,59.24z"/>
		<path d="M155.35,68.05c0.25,0.36,0.65,0.54,1.2,0.54c0.55,0,0.95-0.18,1.2-0.54c0.25-0.36,0.38-0.85,0.38-1.46v-7.97h0.65v7.94
			c0,0.8-0.18,1.44-0.55,1.93c-0.37,0.49-0.93,0.73-1.69,0.73c-0.76,0-1.33-0.24-1.7-0.73c-0.37-0.48-0.56-1.13-0.56-1.93v-7.94
			h0.69v7.97C154.98,67.2,155.1,67.69,155.35,68.05z"/>
		<path d="M166.1,60.99v0.91c0,0.62-0.12,1.11-0.37,1.46c-0.25,0.36-0.63,0.59-1.15,0.71c1.01,0.22,1.52,0.94,1.52,2.15v1.64
			c0,0.58,0.08,1,0.26,1.26h-0.72c-0.09-0.15-0.15-0.32-0.18-0.52c-0.03-0.19-0.05-0.44-0.05-0.74v-1.65c0-0.66-0.17-1.12-0.5-1.39
			c-0.33-0.26-0.82-0.4-1.47-0.4h-1.1v4.7h-0.69V58.62h2.19C165.35,58.62,166.1,59.41,166.1,60.99z M164.93,63.42
			c0.32-0.25,0.48-0.71,0.48-1.38v-0.99c0-0.59-0.13-1.04-0.38-1.34s-0.65-0.46-1.2-0.46h-1.49v4.55h1.11
			C164.12,63.8,164.61,63.67,164.93,63.42z"/>
		<path d="M176,69.11l-2.22-9.29v9.3h-0.62V58.62h0.99l2.21,9.29l2.19-9.29h0.99v10.51h-0.66v-9.33l-2.19,9.32H176z"/>
		<path d="M186,64.11h-2.87v4.38h3.45v0.63h-4.14V58.62h4.14v0.63h-3.45v4.23H186V64.11z"/>
		<path d="M193.28,59.24c0.36,0.48,0.55,1.11,0.55,1.91v0.23h-0.66v-0.27c0-0.6-0.13-1.08-0.38-1.43c-0.25-0.35-0.65-0.53-1.19-0.53
			c-0.54,0-0.94,0.18-1.19,0.53c-0.25,0.35-0.38,0.82-0.38,1.41c0,0.38,0.08,0.72,0.24,1.01c0.16,0.29,0.36,0.55,0.59,0.77
			s0.56,0.47,0.97,0.77c0.43,0.31,0.78,0.58,1.05,0.82c0.27,0.24,0.5,0.53,0.68,0.89c0.18,0.35,0.27,0.76,0.27,1.23
			c0,0.8-0.19,1.44-0.56,1.91c-0.37,0.47-0.94,0.71-1.71,0.71c-0.77,0-1.34-0.24-1.71-0.71c-0.37-0.47-0.56-1.11-0.56-1.91v-0.54
			h0.66v0.58c0,0.6,0.13,1.07,0.38,1.42c0.26,0.34,0.66,0.52,1.21,0.52c0.55,0,0.95-0.17,1.21-0.52c0.26-0.35,0.38-0.82,0.38-1.42
			c0-0.38-0.08-0.71-0.24-1c-0.16-0.29-0.36-0.54-0.59-0.76c-0.23-0.21-0.55-0.47-0.95-0.76c-0.43-0.31-0.78-0.59-1.05-0.83
			c-0.27-0.25-0.5-0.55-0.68-0.9c-0.19-0.35-0.28-0.77-0.28-1.24c0-0.81,0.19-1.45,0.56-1.91c0.37-0.46,0.93-0.7,1.68-0.71
			C192.36,58.53,192.92,58.77,193.28,59.24z"/>
		<path d="M197.69,68.05c0.25,0.36,0.65,0.54,1.2,0.54c0.55,0,0.95-0.18,1.2-0.54s0.38-0.85,0.38-1.46v-7.97h0.65v7.94
			c0,0.8-0.18,1.44-0.55,1.93c-0.37,0.49-0.93,0.73-1.69,0.73c-0.76,0-1.33-0.24-1.7-0.73c-0.37-0.48-0.56-1.13-0.56-1.93v-7.94
			h0.69v7.97C197.31,67.2,197.44,67.69,197.69,68.05z"/>
		<path d="M208.43,60.99v0.91c0,0.62-0.12,1.11-0.37,1.46c-0.25,0.36-0.63,0.59-1.15,0.71c1.01,0.22,1.52,0.94,1.52,2.15v1.64
			c0,0.58,0.08,1,0.26,1.26h-0.72c-0.09-0.15-0.15-0.32-0.18-0.52c-0.03-0.19-0.05-0.44-0.05-0.74v-1.65c0-0.66-0.17-1.12-0.5-1.39
			s-0.82-0.4-1.47-0.4h-1.1v4.7h-0.69V58.62h2.19C207.68,58.62,208.43,59.41,208.43,60.99z M207.26,63.42
			c0.32-0.25,0.48-0.71,0.48-1.38v-0.99c0-0.59-0.13-1.04-0.38-1.34c-0.25-0.31-0.65-0.46-1.2-0.46h-1.49v4.55h1.11
			C206.45,63.8,206.94,63.67,207.26,63.42z"/>
		<path d="M215.04,64.11h-2.87v4.38h3.45v0.63h-4.14V58.62h4.14v0.63h-3.45v4.23h2.87V64.11z"/>
	</g>
	<g>
		<g>
			<polygon points="41.02,24.27 39.43,25.98 32.7,20.63 26.5,26.1 24.59,24.72 19.3,27.53 19.3,32.2 24.77,29.22 26.68,30.6 
				32.88,25.13 39.61,30.49 41.21,28.78 45.22,31.55 45.22,27.25 			"/>
			<polygon points="41.29,29.56 39.63,31.15 32.9,25.75 26.68,31.17 24.72,29.66 19.33,32.76 19.3,34.95 24.77,31.98 26.68,33.36 
				32.88,27.89 39.61,33.24 41.21,31.54 45.22,34.3 45.22,32.1 			"/>
			<polygon points="41.32,32.32 39.7,34.25 32.89,28.58 26.78,33.97 24.77,32.56 19.31,35.46 19.3,36.82 25.01,33.64 27.08,35.14 
				32.97,30.01 39.7,35.38 41.13,33.86 45.22,36.51 45.22,34.96 			"/>
		</g>
		<g>
			<path d="M35.86,68.1c-0.65,0.31-1.28,0.72-1.96,0.92c-4.16,1.23-8.16-2.27-7.42-6.58c0.66-3.9,1.52-7.76,2.29-11.64
				c0.08-0.38,0.17-0.76,0.24-1.15c0.45-2.29-0.94-4-3.28-4.03c-1.46-0.02-2.92,0-4.38,0c-1.47,0-2.04-0.56-2.04-2.03
				c0-1.46,0-2.92,0-4.38c0-0.15,0.01-0.3,0.01-0.4c8.63,0,17.15,0,25.9,0c-0.02,0.64,0.01,4.1-0.01,5.1
				c-0.02,1.05-0.64,1.69-1.69,1.71c-1.56,0.03-3.13,0-4.69,0.01c-2.39,0.01-3.8,1.75-3.31,4.09c0.71,3.43,1.43,6.85,2.13,10.27
				c0.18,0.88,0.32,1.77,0.44,2.66c0.19,1.51-0.16,2.9-1.04,4.14c-0.05,0.07-0.07,0.15-0.1,0.23C36.58,67.38,36.22,67.74,35.86,68.1
				z M30.64,61.63c-0.88,0.87-0.89,2.34-0.03,3.22c0.87,0.89,2.37,0.91,3.26,0.04c0.9-0.87,0.9-2.37,0.01-3.26
				C32.97,60.73,31.54,60.73,30.64,61.63z"/>
		</g>
	</g>
</g>
<g id="admin">
</g>
<g id="recto_carte_visite">
</g>
<g id="verso_carte_visite">
</g>
<g id="Story_une">
</g>
<g id="RS">
</g>
</svg>
